<mxfile host="app.diagrams.net" modified="2023-06-28T19:34:51.813Z" agent="Mozilla/5.0 (Windows NT 10.0; Win64; x64) AppleWebKit/537.36 (KHTML, like Gecko) Chrome/114.0.0.0 Safari/537.36" etag="nsYDmNJx11FJn2oLg_u1" version="21.5.0" type="device">
  <diagram name="Page-1" id="ad52d381-51e7-2e0d-a935-2d0ddd2fd229">
    <mxGraphModel dx="7500" dy="810" grid="0" gridSize="10" guides="1" tooltips="1" connect="1" arrows="0" fold="1" page="0" pageScale="1" pageWidth="1100" pageHeight="850" background="none" math="0" shadow="1">
      <root>
        <mxCell id="0" />
        <mxCell id="1" parent="0" />
        <mxCell id="-rI8hnywURZdHphwKEdb-55" style="edgeStyle=none;shape=connector;rounded=0;orthogonalLoop=1;jettySize=auto;html=1;labelBackgroundColor=default;strokeColor=default;fontFamily=Helvetica;fontSize=12;fontColor=default;endArrow=none;endFill=0;" parent="1" source="-rI8hnywURZdHphwKEdb-56" target="-rI8hnywURZdHphwKEdb-47" edge="1">
          <mxGeometry relative="1" as="geometry" />
        </mxCell>
        <mxCell id="hV6xTBGtTwOXngfLoMFE-16" style="edgeStyle=none;shape=connector;rounded=0;orthogonalLoop=1;jettySize=auto;html=1;labelBackgroundColor=default;strokeColor=default;fontFamily=Helvetica;fontSize=11;fontColor=default;endArrow=none;endFill=0;" parent="1" source="hV6xTBGtTwOXngfLoMFE-15" target="hV6xTBGtTwOXngfLoMFE-1" edge="1">
          <mxGeometry relative="1" as="geometry" />
        </mxCell>
        <mxCell id="hV6xTBGtTwOXngfLoMFE-22" value="" style="edgeStyle=none;orthogonalLoop=1;jettySize=auto;html=1;rounded=0;endArrow=none;endFill=0;" parent="1" source="hV6xTBGtTwOXngfLoMFE-1" target="hV6xTBGtTwOXngfLoMFE-20" edge="1">
          <mxGeometry width="80" relative="1" as="geometry">
            <mxPoint x="538" y="1908" as="sourcePoint" />
            <mxPoint x="580" y="1903" as="targetPoint" />
            <Array as="points" />
          </mxGeometry>
        </mxCell>
        <mxCell id="mlaGE-T-amm_81YhXGvV-3" style="edgeStyle=none;shape=connector;rounded=0;orthogonalLoop=1;jettySize=auto;html=1;labelBackgroundColor=default;strokeColor=default;fontFamily=Helvetica;fontSize=12;fontColor=default;endArrow=none;endFill=0;" parent="1" source="mlaGE-T-amm_81YhXGvV-2" target="x2HAkG1FpfWmCbXRU_R8-192" edge="1">
          <mxGeometry relative="1" as="geometry">
            <mxPoint x="-1157" y="2433" as="sourcePoint" />
            <mxPoint x="-1161" y="2342" as="targetPoint" />
          </mxGeometry>
        </mxCell>
        <mxCell id="bFW7XB5v9sW4Uqi8YyjJ-208" value="" style="shape=link;html=1;rounded=0;" parent="1" source="x2HAkG1FpfWmCbXRU_R8-3" target="x2HAkG1FpfWmCbXRU_R8-33" edge="1">
          <mxGeometry relative="1" as="geometry">
            <mxPoint x="-1202" y="1577" as="sourcePoint" />
            <mxPoint x="-1303" y="1613" as="targetPoint" />
          </mxGeometry>
        </mxCell>
        <mxCell id="bFW7XB5v9sW4Uqi8YyjJ-209" value="N" style="resizable=0;html=1;whiteSpace=wrap;align=right;verticalAlign=bottom;" parent="bFW7XB5v9sW4Uqi8YyjJ-208" connectable="0" vertex="1">
          <mxGeometry x="1" relative="1" as="geometry">
            <mxPoint x="10" y="30" as="offset" />
          </mxGeometry>
        </mxCell>
        <mxCell id="bFW7XB5v9sW4Uqi8YyjJ-122" value="" style="shape=link;html=1;rounded=0;" parent="1" source="x2HAkG1FpfWmCbXRU_R8-3" target="x2HAkG1FpfWmCbXRU_R8-107" edge="1">
          <mxGeometry relative="1" as="geometry">
            <mxPoint x="-1366" y="1658" as="sourcePoint" />
            <mxPoint x="-1206" y="1658" as="targetPoint" />
          </mxGeometry>
        </mxCell>
        <mxCell id="bFW7XB5v9sW4Uqi8YyjJ-123" value="1" style="resizable=0;html=1;whiteSpace=wrap;align=right;verticalAlign=bottom;" parent="bFW7XB5v9sW4Uqi8YyjJ-122" connectable="0" vertex="1">
          <mxGeometry x="1" relative="1" as="geometry" />
        </mxCell>
        <mxCell id="bFW7XB5v9sW4Uqi8YyjJ-222" value="" style="shape=link;html=1;rounded=0;" parent="1" source="x2HAkG1FpfWmCbXRU_R8-44" target="x2HAkG1FpfWmCbXRU_R8-65" edge="1">
          <mxGeometry relative="1" as="geometry">
            <mxPoint x="-1102" y="1366" as="sourcePoint" />
            <mxPoint x="-1002" y="1373" as="targetPoint" />
          </mxGeometry>
        </mxCell>
        <mxCell id="bFW7XB5v9sW4Uqi8YyjJ-223" value="1" style="resizable=0;html=1;whiteSpace=wrap;align=right;verticalAlign=bottom;" parent="bFW7XB5v9sW4Uqi8YyjJ-222" connectable="0" vertex="1">
          <mxGeometry x="1" relative="1" as="geometry">
            <mxPoint x="8" y="-10" as="offset" />
          </mxGeometry>
        </mxCell>
        <mxCell id="bFW7XB5v9sW4Uqi8YyjJ-218" value="" style="shape=link;html=1;rounded=0;" parent="1" source="x2HAkG1FpfWmCbXRU_R8-44" target="EwDSnlVrmYeqQzUvhRLh-19" edge="1">
          <mxGeometry relative="1" as="geometry">
            <mxPoint x="-1202" y="1376" as="sourcePoint" />
            <mxPoint x="-1295" y="1399" as="targetPoint" />
          </mxGeometry>
        </mxCell>
        <mxCell id="bFW7XB5v9sW4Uqi8YyjJ-219" value="N" style="resizable=0;html=1;whiteSpace=wrap;align=right;verticalAlign=bottom;" parent="bFW7XB5v9sW4Uqi8YyjJ-218" connectable="0" vertex="1">
          <mxGeometry x="1" relative="1" as="geometry">
            <mxPoint x="43" y="10" as="offset" />
          </mxGeometry>
        </mxCell>
        <mxCell id="bFW7XB5v9sW4Uqi8YyjJ-168" value="" style="endArrow=none;html=1;rounded=0;" parent="1" source="x2HAkG1FpfWmCbXRU_R8-83" target="x2HAkG1FpfWmCbXRU_R8-119" edge="1">
          <mxGeometry relative="1" as="geometry">
            <mxPoint x="-3047" y="2131" as="sourcePoint" />
            <mxPoint x="-3217" y="2076" as="targetPoint" />
          </mxGeometry>
        </mxCell>
        <mxCell id="bFW7XB5v9sW4Uqi8YyjJ-169" value="1" style="resizable=0;html=1;whiteSpace=wrap;align=right;verticalAlign=bottom;" parent="bFW7XB5v9sW4Uqi8YyjJ-168" connectable="0" vertex="1">
          <mxGeometry x="1" relative="1" as="geometry">
            <mxPoint x="10" y="-4" as="offset" />
          </mxGeometry>
        </mxCell>
        <mxCell id="x2HAkG1FpfWmCbXRU_R8-122" value="Certificado POCA" style="ellipse;whiteSpace=wrap;html=1;align=center;fillColor=#99CCFF;" parent="1" vertex="1">
          <mxGeometry x="-2821" y="2717" width="100" height="40" as="geometry" />
        </mxCell>
        <mxCell id="x2HAkG1FpfWmCbXRU_R8-123" style="edgeStyle=none;shape=connector;rounded=0;orthogonalLoop=1;jettySize=auto;html=1;labelBackgroundColor=default;strokeColor=default;fontFamily=Helvetica;fontSize=12;fontColor=default;endArrow=none;endFill=0;" parent="1" source="x2HAkG1FpfWmCbXRU_R8-122" target="x2HAkG1FpfWmCbXRU_R8-85" edge="1">
          <mxGeometry relative="1" as="geometry" />
        </mxCell>
        <mxCell id="x2HAkG1FpfWmCbXRU_R8-121" style="edgeStyle=none;shape=connector;rounded=0;orthogonalLoop=1;jettySize=auto;html=1;labelBackgroundColor=default;strokeColor=default;fontFamily=Helvetica;fontSize=12;fontColor=default;endArrow=none;endFill=0;" parent="1" source="x2HAkG1FpfWmCbXRU_R8-120" target="x2HAkG1FpfWmCbXRU_R8-83" edge="1">
          <mxGeometry relative="1" as="geometry" />
        </mxCell>
        <mxCell id="bFW7XB5v9sW4Uqi8YyjJ-110" value="" style="shape=link;html=1;rounded=0;" parent="1" source="x2HAkG1FpfWmCbXRU_R8-85" target="bFW7XB5v9sW4Uqi8YyjJ-125" edge="1">
          <mxGeometry relative="1" as="geometry">
            <mxPoint x="-2833" y="2083" as="sourcePoint" />
            <mxPoint x="-2673" y="2083" as="targetPoint" />
          </mxGeometry>
        </mxCell>
        <mxCell id="bFW7XB5v9sW4Uqi8YyjJ-111" value="N" style="resizable=0;html=1;whiteSpace=wrap;align=right;verticalAlign=bottom;" parent="bFW7XB5v9sW4Uqi8YyjJ-110" connectable="0" vertex="1">
          <mxGeometry x="1" relative="1" as="geometry">
            <mxPoint x="-10" y="20" as="offset" />
          </mxGeometry>
        </mxCell>
        <mxCell id="bFW7XB5v9sW4Uqi8YyjJ-112" value="" style="shape=link;html=1;rounded=0;" parent="1" source="x2HAkG1FpfWmCbXRU_R8-84" target="bFW7XB5v9sW4Uqi8YyjJ-124" edge="1">
          <mxGeometry relative="1" as="geometry">
            <mxPoint x="-2836" y="2252.75" as="sourcePoint" />
            <mxPoint x="-2920" y="2171.75" as="targetPoint" />
          </mxGeometry>
        </mxCell>
        <mxCell id="bFW7XB5v9sW4Uqi8YyjJ-113" value="N" style="resizable=0;html=1;whiteSpace=wrap;align=right;verticalAlign=bottom;" parent="bFW7XB5v9sW4Uqi8YyjJ-112" connectable="0" vertex="1">
          <mxGeometry x="1" relative="1" as="geometry">
            <mxPoint x="-11" y="20" as="offset" />
          </mxGeometry>
        </mxCell>
        <mxCell id="bFW7XB5v9sW4Uqi8YyjJ-114" value="" style="shape=link;html=1;rounded=0;" parent="1" source="x2HAkG1FpfWmCbXRU_R8-83" target="bFW7XB5v9sW4Uqi8YyjJ-124" edge="1">
          <mxGeometry relative="1" as="geometry">
            <mxPoint x="-2831" y="2279" as="sourcePoint" />
            <mxPoint x="-2820" y="2171" as="targetPoint" />
          </mxGeometry>
        </mxCell>
        <mxCell id="bFW7XB5v9sW4Uqi8YyjJ-115" value="1" style="resizable=0;html=1;whiteSpace=wrap;align=right;verticalAlign=bottom;" parent="bFW7XB5v9sW4Uqi8YyjJ-114" connectable="0" vertex="1">
          <mxGeometry x="1" relative="1" as="geometry">
            <mxPoint x="-2" y="-10" as="offset" />
          </mxGeometry>
        </mxCell>
        <mxCell id="bv3p_5y2cNfuPuO2bN22-3" value="Usuário 2&lt;br&gt;Coordenador Administrativo" style="rounded=0;whiteSpace=wrap;html=1;shadow=1;comic=0;labelBackgroundColor=none;strokeWidth=2;fontFamily=Verdana;fontSize=12;align=center;spacingLeft=0;spacing=6;fillStyle=solid;hachureGap=4;fontSource=https%3A%2F%2Ffonts.googleapis.com%2Fcss%3Ffamily%3DArchitects%2BDaughter;" parent="1" vertex="1">
          <mxGeometry x="-2971" y="898" width="120" height="54" as="geometry" />
        </mxCell>
        <mxCell id="bv3p_5y2cNfuPuO2bN22-5" value="Usuário 3&lt;br&gt;Gestor Oferta Coletiva" style="rounded=0;whiteSpace=wrap;html=1;shadow=1;comic=0;labelBackgroundColor=none;strokeWidth=2;fontFamily=Verdana;fontSize=12;align=center;spacingLeft=0;spacing=6;fillStyle=solid;hachureGap=4;fontSource=https%3A%2F%2Ffonts.googleapis.com%2Fcss%3Ffamily%3DArchitects%2BDaughter;" parent="1" vertex="1">
          <mxGeometry x="-2971" y="978" width="120" height="54" as="geometry" />
        </mxCell>
        <mxCell id="bv3p_5y2cNfuPuO2bN22-7" value="Usuário 4&lt;br&gt;Cursistas da Especialização" style="rounded=0;whiteSpace=wrap;html=1;shadow=1;comic=0;labelBackgroundColor=none;strokeWidth=2;fontFamily=Verdana;fontSize=12;align=center;spacingLeft=0;spacing=6;fillStyle=solid;hachureGap=4;fontSource=https%3A%2F%2Ffonts.googleapis.com%2Fcss%3Ffamily%3DArchitects%2BDaughter;" parent="1" vertex="1">
          <mxGeometry x="-2971" y="1058" width="120" height="54" as="geometry" />
        </mxCell>
        <mxCell id="bv3p_5y2cNfuPuO2bN22-9" value="Usuário 5&lt;br&gt;Docentes do Curso de Especialização" style="rounded=0;whiteSpace=wrap;html=1;shadow=1;comic=0;labelBackgroundColor=none;strokeWidth=2;fontFamily=Verdana;fontSize=12;align=center;spacingLeft=0;spacing=6;fillStyle=solid;hachureGap=4;fontSource=https%3A%2F%2Ffonts.googleapis.com%2Fcss%3Ffamily%3DArchitects%2BDaughter;" parent="1" vertex="1">
          <mxGeometry x="-2971" y="1138" width="120" height="54" as="geometry" />
        </mxCell>
        <mxCell id="bv3p_5y2cNfuPuO2bN22-11" value="Usuário 6&lt;br&gt;Docentes Orientador" style="rounded=0;whiteSpace=wrap;html=1;shadow=1;comic=0;labelBackgroundColor=none;strokeWidth=2;fontFamily=Verdana;fontSize=12;align=center;spacingLeft=0;spacing=6;fillStyle=solid;hachureGap=4;fontSource=https%3A%2F%2Ffonts.googleapis.com%2Fcss%3Ffamily%3DArchitects%2BDaughter;" parent="1" vertex="1">
          <mxGeometry x="-2971" y="1218" width="120" height="54" as="geometry" />
        </mxCell>
        <mxCell id="bv3p_5y2cNfuPuO2bN22-13" value="Usuário 1&lt;br&gt;Gestor Rede ANDIFIS ISF" style="rounded=0;whiteSpace=wrap;html=1;shadow=1;comic=0;labelBackgroundColor=none;strokeWidth=2;fontFamily=Verdana;fontSize=12;align=center;spacingLeft=0;spacing=6;fillStyle=solid;hachureGap=4;fontSource=https%3A%2F%2Ffonts.googleapis.com%2Fcss%3Ffamily%3DArchitects%2BDaughter;" parent="1" vertex="1">
          <mxGeometry x="-2969" y="818" width="120" height="54" as="geometry" />
        </mxCell>
        <mxCell id="x2HAkG1FpfWmCbXRU_R8-11" style="rounded=0;orthogonalLoop=1;jettySize=auto;html=1;endArrow=none;endFill=0;" parent="1" source="x2HAkG1FpfWmCbXRU_R8-2" target="x2HAkG1FpfWmCbXRU_R8-9" edge="1">
          <mxGeometry relative="1" as="geometry" />
        </mxCell>
        <mxCell id="x2HAkG1FpfWmCbXRU_R8-73" style="edgeStyle=none;shape=connector;rounded=0;orthogonalLoop=1;jettySize=auto;html=1;labelBackgroundColor=default;strokeColor=default;fontFamily=Helvetica;fontSize=12;fontColor=default;endArrow=none;endFill=0;" parent="1" source="x2HAkG1FpfWmCbXRU_R8-2" target="x2HAkG1FpfWmCbXRU_R8-72" edge="1">
          <mxGeometry relative="1" as="geometry" />
        </mxCell>
        <mxCell id="x2HAkG1FpfWmCbXRU_R8-74" style="edgeStyle=none;shape=connector;rounded=0;orthogonalLoop=1;jettySize=auto;html=1;labelBackgroundColor=default;strokeColor=default;fontFamily=Helvetica;fontSize=12;fontColor=default;endArrow=none;endFill=0;" parent="1" source="x2HAkG1FpfWmCbXRU_R8-2" target="x2HAkG1FpfWmCbXRU_R8-71" edge="1">
          <mxGeometry relative="1" as="geometry" />
        </mxCell>
        <mxCell id="x2HAkG1FpfWmCbXRU_R8-75" style="edgeStyle=none;shape=connector;rounded=0;orthogonalLoop=1;jettySize=auto;html=1;labelBackgroundColor=default;strokeColor=default;fontFamily=Helvetica;fontSize=12;fontColor=default;endArrow=none;endFill=0;" parent="1" source="x2HAkG1FpfWmCbXRU_R8-2" target="x2HAkG1FpfWmCbXRU_R8-69" edge="1">
          <mxGeometry relative="1" as="geometry" />
        </mxCell>
        <mxCell id="x2HAkG1FpfWmCbXRU_R8-76" style="edgeStyle=none;shape=connector;rounded=0;orthogonalLoop=1;jettySize=auto;html=1;labelBackgroundColor=default;strokeColor=default;fontFamily=Helvetica;fontSize=12;fontColor=default;endArrow=none;endFill=0;" parent="1" source="x2HAkG1FpfWmCbXRU_R8-2" target="x2HAkG1FpfWmCbXRU_R8-8" edge="1">
          <mxGeometry relative="1" as="geometry" />
        </mxCell>
        <mxCell id="x2HAkG1FpfWmCbXRU_R8-2" value="Edital" style="whiteSpace=wrap;html=1;align=center;fillColor=#B3FF66;" parent="1" vertex="1">
          <mxGeometry x="-1212" y="1272" width="100" height="40" as="geometry" />
        </mxCell>
        <mxCell id="x2HAkG1FpfWmCbXRU_R8-5" style="rounded=0;orthogonalLoop=1;jettySize=auto;html=1;endArrow=none;endFill=0;" parent="1" source="x2HAkG1FpfWmCbXRU_R8-3" target="bFW7XB5v9sW4Uqi8YyjJ-49" edge="1">
          <mxGeometry relative="1" as="geometry">
            <mxPoint x="-1232" y="1709" as="targetPoint" />
          </mxGeometry>
        </mxCell>
        <mxCell id="x2HAkG1FpfWmCbXRU_R8-18" style="edgeStyle=none;rounded=0;orthogonalLoop=1;jettySize=auto;html=1;endArrow=none;endFill=0;" parent="1" source="x2HAkG1FpfWmCbXRU_R8-3" target="x2HAkG1FpfWmCbXRU_R8-17" edge="1">
          <mxGeometry relative="1" as="geometry" />
        </mxCell>
        <mxCell id="x2HAkG1FpfWmCbXRU_R8-21" style="edgeStyle=none;rounded=0;orthogonalLoop=1;jettySize=auto;html=1;endArrow=none;endFill=0;" parent="1" source="x2HAkG1FpfWmCbXRU_R8-3" target="x2HAkG1FpfWmCbXRU_R8-19" edge="1">
          <mxGeometry relative="1" as="geometry" />
        </mxCell>
        <mxCell id="x2HAkG1FpfWmCbXRU_R8-25" style="edgeStyle=none;shape=connector;rounded=0;orthogonalLoop=1;jettySize=auto;html=1;labelBackgroundColor=default;strokeColor=default;fontFamily=Helvetica;fontSize=11;fontColor=default;endArrow=none;endFill=0;" parent="1" source="x2HAkG1FpfWmCbXRU_R8-3" target="x2HAkG1FpfWmCbXRU_R8-23" edge="1">
          <mxGeometry relative="1" as="geometry" />
        </mxCell>
        <mxCell id="x2HAkG1FpfWmCbXRU_R8-27" style="edgeStyle=none;shape=connector;rounded=0;orthogonalLoop=1;jettySize=auto;html=1;labelBackgroundColor=default;strokeColor=default;fontFamily=Helvetica;fontSize=11;fontColor=default;endArrow=none;endFill=0;" parent="1" source="x2HAkG1FpfWmCbXRU_R8-3" target="x2HAkG1FpfWmCbXRU_R8-26" edge="1">
          <mxGeometry relative="1" as="geometry" />
        </mxCell>
        <mxCell id="hV6xTBGtTwOXngfLoMFE-27" style="edgeStyle=none;shape=connector;rounded=0;orthogonalLoop=1;jettySize=auto;html=1;exitX=1;exitY=0.5;exitDx=0;exitDy=0;labelBackgroundColor=default;strokeColor=default;fontFamily=Helvetica;fontSize=11;fontColor=default;endArrow=none;endFill=0;" parent="1" source="x2HAkG1FpfWmCbXRU_R8-3" target="hV6xTBGtTwOXngfLoMFE-26" edge="1">
          <mxGeometry relative="1" as="geometry" />
        </mxCell>
        <mxCell id="x2HAkG1FpfWmCbXRU_R8-3" value="Formulário" style="whiteSpace=wrap;html=1;align=center;fillColor=#B3FF66;" parent="1" vertex="1">
          <mxGeometry x="-1212" y="1529" width="100" height="40" as="geometry" />
        </mxCell>
        <mxCell id="x2HAkG1FpfWmCbXRU_R8-4" value="Formulário de Credenciamento de Especialistas" style="whiteSpace=wrap;html=1;align=center;fillColor=#B3FF66;" parent="1" vertex="1">
          <mxGeometry x="-1914" y="1870.5" width="129" height="57" as="geometry" />
        </mxCell>
        <mxCell id="x2HAkG1FpfWmCbXRU_R8-6" value="Publicado em" style="ellipse;whiteSpace=wrap;html=1;align=center;fillColor=#99CCFF;" parent="1" vertex="1">
          <mxGeometry x="-1446" y="1353" width="100" height="40" as="geometry" />
        </mxCell>
        <mxCell id="x2HAkG1FpfWmCbXRU_R8-8" value="&lt;u&gt;Nome&lt;/u&gt;" style="ellipse;whiteSpace=wrap;html=1;align=center;fillColor=#99CCFF;" parent="1" vertex="1">
          <mxGeometry x="-1280.5" y="1215" width="100" height="40" as="geometry" />
        </mxCell>
        <mxCell id="x2HAkG1FpfWmCbXRU_R8-14" value="Aplicado por" style="shape=rhombus;perimeter=rhombusPerimeter;whiteSpace=wrap;html=1;align=center;fillColor=#FFFF99;" parent="1" vertex="1">
          <mxGeometry x="-1222" y="1391" width="120" height="60" as="geometry" />
        </mxCell>
        <mxCell id="x2HAkG1FpfWmCbXRU_R8-17" value="Criado em" style="ellipse;whiteSpace=wrap;html=1;align=center;fillColor=#99CCFF;" parent="1" vertex="1">
          <mxGeometry x="-1030" y="1598" width="100" height="40" as="geometry" />
        </mxCell>
        <mxCell id="x2HAkG1FpfWmCbXRU_R8-19" value="&lt;b&gt;&lt;u&gt;Data de início&lt;/u&gt;&lt;/b&gt;" style="ellipse;whiteSpace=wrap;html=1;align=center;fillColor=#99CCFF;" parent="1" vertex="1">
          <mxGeometry x="-1066" y="1625" width="100" height="40" as="geometry" />
        </mxCell>
        <mxCell id="x2HAkG1FpfWmCbXRU_R8-23" value="Data de término" style="ellipse;whiteSpace=wrap;html=1;align=center;fillColor=#99CCFF;" parent="1" vertex="1">
          <mxGeometry x="-1070" y="1569" width="100" height="40" as="geometry" />
        </mxCell>
        <mxCell id="x2HAkG1FpfWmCbXRU_R8-26" value="Observações" style="ellipse;whiteSpace=wrap;html=1;align=center;fillColor=#99CCFF;" parent="1" vertex="1">
          <mxGeometry x="-1119" y="1595" width="100" height="40" as="geometry" />
        </mxCell>
        <mxCell id="bFW7XB5v9sW4Uqi8YyjJ-34" value="" style="endArrow=none;html=1;rounded=0;" parent="1" source="x2HAkG1FpfWmCbXRU_R8-3" target="x2HAkG1FpfWmCbXRU_R8-14" edge="1">
          <mxGeometry relative="1" as="geometry">
            <mxPoint x="-1371" y="1478" as="sourcePoint" />
            <mxPoint x="-1211" y="1478" as="targetPoint" />
          </mxGeometry>
        </mxCell>
        <mxCell id="bFW7XB5v9sW4Uqi8YyjJ-35" value="1" style="resizable=0;html=1;whiteSpace=wrap;align=right;verticalAlign=bottom;" parent="bFW7XB5v9sW4Uqi8YyjJ-34" connectable="0" vertex="1">
          <mxGeometry x="1" relative="1" as="geometry">
            <mxPoint y="19" as="offset" />
          </mxGeometry>
        </mxCell>
        <mxCell id="bFW7XB5v9sW4Uqi8YyjJ-39" value="" style="shape=link;html=1;rounded=0;" parent="1" source="x2HAkG1FpfWmCbXRU_R8-2" target="x2HAkG1FpfWmCbXRU_R8-14" edge="1">
          <mxGeometry relative="1" as="geometry">
            <mxPoint x="-1050" y="1437" as="sourcePoint" />
            <mxPoint x="-870" y="1435" as="targetPoint" />
          </mxGeometry>
        </mxCell>
        <mxCell id="bFW7XB5v9sW4Uqi8YyjJ-40" value="1" style="resizable=0;html=1;whiteSpace=wrap;align=right;verticalAlign=bottom;" parent="bFW7XB5v9sW4Uqi8YyjJ-39" connectable="0" vertex="1">
          <mxGeometry x="1" relative="1" as="geometry">
            <mxPoint x="-2" as="offset" />
          </mxGeometry>
        </mxCell>
        <mxCell id="x2HAkG1FpfWmCbXRU_R8-33" value="Cria" style="shape=rhombus;perimeter=rhombusPerimeter;whiteSpace=wrap;html=1;align=center;strokeColor=default;fontFamily=Helvetica;fontSize=12;fontColor=default;fillColor=#FFFF99;" parent="1" vertex="1">
          <mxGeometry x="-1460" y="1412" width="120" height="60" as="geometry" />
        </mxCell>
        <mxCell id="x2HAkG1FpfWmCbXRU_R8-275" style="edgeStyle=none;shape=connector;rounded=0;orthogonalLoop=1;jettySize=auto;html=1;labelBackgroundColor=default;strokeColor=default;fontFamily=Helvetica;fontSize=12;fontColor=default;endArrow=none;endFill=0;" parent="1" source="bFW7XB5v9sW4Uqi8YyjJ-38" target="x2HAkG1FpfWmCbXRU_R8-270" edge="1">
          <mxGeometry relative="1" as="geometry" />
        </mxCell>
        <mxCell id="x2HAkG1FpfWmCbXRU_R8-276" style="edgeStyle=none;shape=connector;rounded=0;orthogonalLoop=1;jettySize=auto;html=1;labelBackgroundColor=default;strokeColor=default;fontFamily=Helvetica;fontSize=12;fontColor=default;endArrow=none;endFill=0;" parent="1" source="bFW7XB5v9sW4Uqi8YyjJ-38" target="x2HAkG1FpfWmCbXRU_R8-269" edge="1">
          <mxGeometry relative="1" as="geometry" />
        </mxCell>
        <mxCell id="x2HAkG1FpfWmCbXRU_R8-277" style="edgeStyle=none;shape=connector;rounded=0;orthogonalLoop=1;jettySize=auto;html=1;labelBackgroundColor=default;strokeColor=default;fontFamily=Helvetica;fontSize=12;fontColor=default;endArrow=none;endFill=0;" parent="1" source="bFW7XB5v9sW4Uqi8YyjJ-38" target="THlvHC6nMn96xe4pw3AP-9" edge="1">
          <mxGeometry relative="1" as="geometry">
            <mxPoint x="-1871.2379232280314" y="1238.6737222338036" as="targetPoint" />
          </mxGeometry>
        </mxCell>
        <mxCell id="x2HAkG1FpfWmCbXRU_R8-278" style="edgeStyle=none;shape=connector;rounded=0;orthogonalLoop=1;jettySize=auto;html=1;labelBackgroundColor=default;strokeColor=default;fontFamily=Helvetica;fontSize=12;fontColor=default;endArrow=none;endFill=0;" parent="1" source="bFW7XB5v9sW4Uqi8YyjJ-38" target="x2HAkG1FpfWmCbXRU_R8-272" edge="1">
          <mxGeometry relative="1" as="geometry" />
        </mxCell>
        <mxCell id="x2HAkG1FpfWmCbXRU_R8-280" style="edgeStyle=none;shape=connector;rounded=0;orthogonalLoop=1;jettySize=auto;html=1;labelBackgroundColor=default;strokeColor=default;fontFamily=Helvetica;fontSize=12;fontColor=default;endArrow=none;endFill=0;" parent="1" source="bFW7XB5v9sW4Uqi8YyjJ-38" target="x2HAkG1FpfWmCbXRU_R8-274" edge="1">
          <mxGeometry relative="1" as="geometry" />
        </mxCell>
        <mxCell id="x2HAkG1FpfWmCbXRU_R8-282" style="edgeStyle=none;shape=connector;rounded=0;orthogonalLoop=1;jettySize=auto;html=1;labelBackgroundColor=default;strokeColor=default;fontFamily=Helvetica;fontSize=12;fontColor=default;endArrow=none;endFill=0;" parent="1" source="bFW7XB5v9sW4Uqi8YyjJ-38" target="x2HAkG1FpfWmCbXRU_R8-281" edge="1">
          <mxGeometry relative="1" as="geometry" />
        </mxCell>
        <mxCell id="bFW7XB5v9sW4Uqi8YyjJ-38" value="Usuário 1&lt;br&gt;Gestor Rede ANDIFES ISF" style="rounded=0;whiteSpace=wrap;html=1;shadow=1;comic=0;labelBackgroundColor=none;strokeWidth=1;fontFamily=Verdana;fontSize=12;align=center;spacingLeft=0;spacing=6;fillStyle=solid;hachureGap=4;fontSource=https%3A%2F%2Ffonts.googleapis.com%2Fcss%3Ffamily%3DArchitects%2BDaughter;fillColor=#B3FF66;" parent="1" vertex="1">
          <mxGeometry x="-1690" y="1265" width="120" height="54" as="geometry" />
        </mxCell>
        <mxCell id="bFW7XB5v9sW4Uqi8YyjJ-45" value="Inscrição na Oferta Coletiva" style="whiteSpace=wrap;html=1;align=center;fillColor=#B3FF66;" parent="1" vertex="1">
          <mxGeometry x="128" y="1879" width="100" height="40" as="geometry" />
        </mxCell>
        <mxCell id="bFW7XB5v9sW4Uqi8YyjJ-47" style="rounded=0;orthogonalLoop=1;jettySize=auto;html=1;endArrow=none;endFill=0;" parent="1" source="x2HAkG1FpfWmCbXRU_R8-4" target="bFW7XB5v9sW4Uqi8YyjJ-49" edge="1">
          <mxGeometry relative="1" as="geometry">
            <mxPoint x="-1161" y="1649" as="sourcePoint" />
            <mxPoint x="-1232" y="1779" as="targetPoint" />
          </mxGeometry>
        </mxCell>
        <mxCell id="bFW7XB5v9sW4Uqi8YyjJ-48" style="rounded=0;orthogonalLoop=1;jettySize=auto;html=1;endArrow=none;endFill=0;" parent="1" source="bFW7XB5v9sW4Uqi8YyjJ-49" target="bFW7XB5v9sW4Uqi8YyjJ-45" edge="1">
          <mxGeometry relative="1" as="geometry">
            <mxPoint x="-1218" y="1806" as="sourcePoint" />
            <mxPoint x="-1222" y="1789" as="targetPoint" />
          </mxGeometry>
        </mxCell>
        <mxCell id="x2HAkG1FpfWmCbXRU_R8-79" style="edgeStyle=none;shape=connector;rounded=0;orthogonalLoop=1;jettySize=auto;html=1;labelBackgroundColor=default;strokeColor=default;fontFamily=Helvetica;fontSize=12;fontColor=default;endArrow=none;endFill=0;" parent="1" source="bFW7XB5v9sW4Uqi8YyjJ-49" target="x2HAkG1FpfWmCbXRU_R8-77" edge="1">
          <mxGeometry relative="1" as="geometry" />
        </mxCell>
        <mxCell id="x2HAkG1FpfWmCbXRU_R8-80" style="edgeStyle=none;shape=connector;rounded=0;orthogonalLoop=1;jettySize=auto;html=1;labelBackgroundColor=default;strokeColor=default;fontFamily=Helvetica;fontSize=12;fontColor=default;endArrow=none;endFill=0;" parent="1" source="bFW7XB5v9sW4Uqi8YyjJ-49" target="x2HAkG1FpfWmCbXRU_R8-78" edge="1">
          <mxGeometry relative="1" as="geometry" />
        </mxCell>
        <mxCell id="x2HAkG1FpfWmCbXRU_R8-82" style="edgeStyle=none;shape=connector;rounded=0;orthogonalLoop=1;jettySize=auto;html=1;labelBackgroundColor=default;strokeColor=default;fontFamily=Helvetica;fontSize=12;fontColor=default;endArrow=none;endFill=0;" parent="1" source="bFW7XB5v9sW4Uqi8YyjJ-49" target="x2HAkG1FpfWmCbXRU_R8-81" edge="1">
          <mxGeometry relative="1" as="geometry" />
        </mxCell>
        <mxCell id="hV6xTBGtTwOXngfLoMFE-17" style="edgeStyle=none;shape=connector;rounded=0;orthogonalLoop=1;jettySize=auto;html=1;labelBackgroundColor=default;strokeColor=default;fontFamily=Helvetica;fontSize=11;fontColor=default;endArrow=none;endFill=0;" parent="1" source="bFW7XB5v9sW4Uqi8YyjJ-49" target="hV6xTBGtTwOXngfLoMFE-1" edge="1">
          <mxGeometry relative="1" as="geometry" />
        </mxCell>
        <mxCell id="bFW7XB5v9sW4Uqi8YyjJ-49" value="D" style="ellipse;whiteSpace=wrap;html=1;aspect=fixed;" parent="1" vertex="1">
          <mxGeometry x="-1172" y="1767" width="20" height="20" as="geometry" />
        </mxCell>
        <mxCell id="x2HAkG1FpfWmCbXRU_R8-63" style="edgeStyle=none;shape=connector;rounded=0;orthogonalLoop=1;jettySize=auto;html=1;labelBackgroundColor=default;strokeColor=default;fontFamily=Helvetica;fontSize=12;fontColor=default;endArrow=none;endFill=0;" parent="1" source="x2HAkG1FpfWmCbXRU_R8-44" target="x2HAkG1FpfWmCbXRU_R8-62" edge="1">
          <mxGeometry relative="1" as="geometry" />
        </mxCell>
        <mxCell id="x2HAkG1FpfWmCbXRU_R8-49" value="" style="shape=link;html=1;rounded=0;entryX=0.039;entryY=0.5;entryDx=0;entryDy=0;entryPerimeter=0;" parent="1" source="x2HAkG1FpfWmCbXRU_R8-2" target="x2HAkG1FpfWmCbXRU_R8-51" edge="1">
          <mxGeometry relative="1" as="geometry">
            <mxPoint x="-1152" y="1383" as="sourcePoint" />
            <mxPoint x="-1014.6000000000004" y="1361.8" as="targetPoint" />
          </mxGeometry>
        </mxCell>
        <mxCell id="x2HAkG1FpfWmCbXRU_R8-50" value="1" style="resizable=0;html=1;whiteSpace=wrap;align=right;verticalAlign=bottom;" parent="x2HAkG1FpfWmCbXRU_R8-49" connectable="0" vertex="1">
          <mxGeometry x="1" relative="1" as="geometry">
            <mxPoint x="-2" as="offset" />
          </mxGeometry>
        </mxCell>
        <mxCell id="x2HAkG1FpfWmCbXRU_R8-51" value="Finalizado por" style="shape=rhombus;perimeter=rhombusPerimeter;whiteSpace=wrap;html=1;align=center;fillColor=#FFFF99;" parent="1" vertex="1">
          <mxGeometry x="-1019" y="1262" width="120" height="60" as="geometry" />
        </mxCell>
        <mxCell id="x2HAkG1FpfWmCbXRU_R8-59" style="edgeStyle=none;shape=connector;rounded=0;orthogonalLoop=1;jettySize=auto;html=1;labelBackgroundColor=default;strokeColor=default;fontFamily=Helvetica;fontSize=12;fontColor=default;endArrow=none;endFill=0;" parent="1" source="EwDSnlVrmYeqQzUvhRLh-18" target="x2HAkG1FpfWmCbXRU_R8-6" edge="1">
          <mxGeometry relative="1" as="geometry">
            <mxPoint x="-1396" y="1322" as="sourcePoint" />
          </mxGeometry>
        </mxCell>
        <mxCell id="bFW7XB5v9sW4Uqi8YyjJ-58" style="edgeStyle=none;shape=connector;rounded=0;orthogonalLoop=1;jettySize=auto;html=1;labelBackgroundColor=default;strokeColor=default;fontFamily=Helvetica;fontSize=12;fontColor=default;endArrow=none;endFill=0;" parent="1" source="x2HAkG1FpfWmCbXRU_R8-60" target="EwDSnlVrmYeqQzUvhRLh-19" edge="1">
          <mxGeometry relative="1" as="geometry">
            <mxPoint x="-784" y="1363" as="sourcePoint" />
            <mxPoint x="-1092" y="1194" as="targetPoint" />
          </mxGeometry>
        </mxCell>
        <mxCell id="x2HAkG1FpfWmCbXRU_R8-60" value="Publicado em" style="ellipse;whiteSpace=wrap;html=1;align=center;fillColor=#99CCFF;" parent="1" vertex="1">
          <mxGeometry x="-1212" y="961" width="100" height="40" as="geometry" />
        </mxCell>
        <mxCell id="x2HAkG1FpfWmCbXRU_R8-62" value="Conteúdo" style="ellipse;whiteSpace=wrap;html=1;align=center;fillColor=#99CCFF;" parent="1" vertex="1">
          <mxGeometry x="-635" y="1272" width="100" height="40" as="geometry" />
        </mxCell>
        <mxCell id="x2HAkG1FpfWmCbXRU_R8-65" value="Aprovado por" style="shape=rhombus;perimeter=rhombusPerimeter;whiteSpace=wrap;html=1;align=center;fillColor=#FFFF99;" parent="1" vertex="1">
          <mxGeometry x="-1019" y="1412" width="120" height="60" as="geometry" />
        </mxCell>
        <mxCell id="x2HAkG1FpfWmCbXRU_R8-9" value="Conteúdo" style="ellipse;whiteSpace=wrap;html=1;align=center;fillColor=#99CCFF;" parent="1" vertex="1">
          <mxGeometry x="-1192" y="1200" width="100" height="40" as="geometry" />
        </mxCell>
        <mxCell id="x2HAkG1FpfWmCbXRU_R8-69" value="&lt;u&gt;Data&lt;/u&gt;" style="ellipse;whiteSpace=wrap;html=1;align=center;fillColor=#99CCFF;" parent="1" vertex="1">
          <mxGeometry x="-1276" y="1186" width="100" height="40" as="geometry" />
        </mxCell>
        <mxCell id="x2HAkG1FpfWmCbXRU_R8-71" value="Ano" style="ellipse;whiteSpace=wrap;html=1;align=center;dashed=1;fillColor=#99CCFF;" parent="1" vertex="1">
          <mxGeometry x="-1196" y="1155" width="100" height="40" as="geometry" />
        </mxCell>
        <mxCell id="x2HAkG1FpfWmCbXRU_R8-72" value="Semestre" style="ellipse;whiteSpace=wrap;html=1;align=center;dashed=1;fillColor=#99CCFF;" parent="1" vertex="1">
          <mxGeometry x="-1132" y="1173" width="100" height="40" as="geometry" />
        </mxCell>
        <mxCell id="x2HAkG1FpfWmCbXRU_R8-77" value="Formulário de Adesão à Rede Andifes" style="whiteSpace=wrap;html=1;align=center;fillColor=#B3FF66;" parent="1" vertex="1">
          <mxGeometry x="-2750" y="1879" width="129" height="40" as="geometry" />
        </mxCell>
        <mxCell id="x2HAkG1FpfWmCbXRU_R8-78" value="Credenciamento de Professores ISF" style="whiteSpace=wrap;html=1;align=center;fillColor=#B3FF66;" parent="1" vertex="1">
          <mxGeometry x="-1107" y="1879" width="129" height="40" as="geometry" />
        </mxCell>
        <mxCell id="x2HAkG1FpfWmCbXRU_R8-81" value="Adesão do Docente à Oferta Coletiva " style="whiteSpace=wrap;html=1;align=center;fillColor=#B3FF66;" parent="1" vertex="1">
          <mxGeometry x="-654" y="1879" width="129" height="40" as="geometry" />
        </mxCell>
        <mxCell id="x2HAkG1FpfWmCbXRU_R8-84" value="Coordenador Pedagógico" style="whiteSpace=wrap;html=1;align=center;fillColor=#B3FF66;" parent="1" vertex="1">
          <mxGeometry x="-3349.5" y="2438.75" width="129" height="40" as="geometry" />
        </mxCell>
        <mxCell id="x2HAkG1FpfWmCbXRU_R8-131" style="edgeStyle=none;shape=connector;rounded=0;orthogonalLoop=1;jettySize=auto;html=1;labelBackgroundColor=default;strokeColor=default;fontFamily=Helvetica;fontSize=12;fontColor=default;endArrow=none;endFill=0;" parent="1" source="x2HAkG1FpfWmCbXRU_R8-85" target="x2HAkG1FpfWmCbXRU_R8-128" edge="1">
          <mxGeometry relative="1" as="geometry" />
        </mxCell>
        <mxCell id="-rI8hnywURZdHphwKEdb-93" value="Código de País" style="ellipse;whiteSpace=wrap;html=1;align=center;fillColor=#99CCFF;" parent="1" vertex="1">
          <mxGeometry x="371" y="2177" width="100" height="40" as="geometry" />
        </mxCell>
        <mxCell id="x2HAkG1FpfWmCbXRU_R8-85" value="Usuário 2&lt;br&gt;Coordenador Administrativo" style="whiteSpace=wrap;html=1;align=center;fillColor=#B3FF66;" parent="1" vertex="1">
          <mxGeometry x="-2931.25" y="2628.75" width="129" height="52.25" as="geometry" />
        </mxCell>
        <mxCell id="x2HAkG1FpfWmCbXRU_R8-44" value="Deferimento Edital" style="whiteSpace=wrap;html=1;align=center;fillColor=#B3FF66;" parent="1" vertex="1">
          <mxGeometry x="-807" y="1272" width="100" height="40" as="geometry" />
        </mxCell>
        <mxCell id="x2HAkG1FpfWmCbXRU_R8-89" value="Credencia" style="shape=rhombus;perimeter=rhombusPerimeter;whiteSpace=wrap;html=1;align=center;strokeColor=default;fontFamily=Helvetica;fontSize=12;fontColor=default;fillColor=#FFFF99;" parent="1" vertex="1">
          <mxGeometry x="-1909.5" y="1977" width="120" height="60" as="geometry" />
        </mxCell>
        <mxCell id="bFW7XB5v9sW4Uqi8YyjJ-69" value="Respondido por" style="shape=rhombus;perimeter=rhombusPerimeter;whiteSpace=wrap;html=1;align=center;strokeColor=default;fontFamily=Helvetica;fontSize=12;fontColor=default;fillColor=#FFFF99;" parent="1" vertex="1">
          <mxGeometry x="-942.5" y="1977" width="120" height="60" as="geometry" />
        </mxCell>
        <mxCell id="bFW7XB5v9sW4Uqi8YyjJ-71" value="Emitido por" style="shape=rhombus;perimeter=rhombusPerimeter;whiteSpace=wrap;html=1;align=center;strokeColor=default;fontFamily=Helvetica;fontSize=12;fontColor=default;fillColor=#FFFF99;" parent="1" vertex="1">
          <mxGeometry x="-749.5" y="1977" width="120" height="60" as="geometry" />
        </mxCell>
        <mxCell id="bFW7XB5v9sW4Uqi8YyjJ-73" value="Oferece" style="shape=rhombus;perimeter=rhombusPerimeter;whiteSpace=wrap;html=1;align=center;strokeColor=default;fontFamily=Helvetica;fontSize=12;fontColor=default;fillColor=#FFFF99;" parent="1" vertex="1">
          <mxGeometry x="118" y="1741" width="120" height="60" as="geometry" />
        </mxCell>
        <mxCell id="bFW7XB5v9sW4Uqi8YyjJ-82" value="" style="endArrow=none;html=1;rounded=0;" parent="1" source="EwDSnlVrmYeqQzUvhRLh-16" target="x2HAkG1FpfWmCbXRU_R8-83" edge="1">
          <mxGeometry relative="1" as="geometry">
            <mxPoint x="-2554" y="1950" as="sourcePoint" />
            <mxPoint x="-2394" y="1950" as="targetPoint" />
          </mxGeometry>
        </mxCell>
        <mxCell id="bFW7XB5v9sW4Uqi8YyjJ-83" value="" style="endArrow=none;html=1;rounded=0;" parent="1" source="bFW7XB5v9sW4Uqi8YyjJ-78" target="x2HAkG1FpfWmCbXRU_R8-83" edge="1">
          <mxGeometry relative="1" as="geometry">
            <mxPoint x="-3155" y="2212" as="sourcePoint" />
            <mxPoint x="-3060" y="2226" as="targetPoint" />
          </mxGeometry>
        </mxCell>
        <mxCell id="bFW7XB5v9sW4Uqi8YyjJ-85" value="" style="endArrow=none;html=1;rounded=0;" parent="1" source="bFW7XB5v9sW4Uqi8YyjJ-80" target="x2HAkG1FpfWmCbXRU_R8-83" edge="1">
          <mxGeometry relative="1" as="geometry">
            <mxPoint x="-3142" y="2281" as="sourcePoint" />
            <mxPoint x="-3060" y="2256" as="targetPoint" />
          </mxGeometry>
        </mxCell>
        <mxCell id="bFW7XB5v9sW4Uqi8YyjJ-84" value="" style="endArrow=none;html=1;rounded=0;" parent="1" source="bFW7XB5v9sW4Uqi8YyjJ-79" target="x2HAkG1FpfWmCbXRU_R8-83" edge="1">
          <mxGeometry relative="1" as="geometry">
            <mxPoint x="-3140" y="2255" as="sourcePoint" />
            <mxPoint x="-3060" y="2244" as="targetPoint" />
          </mxGeometry>
        </mxCell>
        <mxCell id="x2HAkG1FpfWmCbXRU_R8-104" style="edgeStyle=none;shape=connector;rounded=0;orthogonalLoop=1;jettySize=auto;html=1;labelBackgroundColor=default;strokeColor=default;fontFamily=Helvetica;fontSize=12;fontColor=default;endArrow=none;endFill=0;" parent="1" source="x2HAkG1FpfWmCbXRU_R8-100" target="x2HAkG1FpfWmCbXRU_R8-101" edge="1">
          <mxGeometry relative="1" as="geometry" />
        </mxCell>
        <mxCell id="x2HAkG1FpfWmCbXRU_R8-105" style="edgeStyle=none;shape=connector;rounded=0;orthogonalLoop=1;jettySize=auto;html=1;labelBackgroundColor=default;strokeColor=default;fontFamily=Helvetica;fontSize=12;fontColor=default;endArrow=none;endFill=0;" parent="1" source="x2HAkG1FpfWmCbXRU_R8-100" target="x2HAkG1FpfWmCbXRU_R8-102" edge="1">
          <mxGeometry relative="1" as="geometry" />
        </mxCell>
        <mxCell id="x2HAkG1FpfWmCbXRU_R8-106" style="edgeStyle=none;shape=connector;rounded=0;orthogonalLoop=1;jettySize=auto;html=1;labelBackgroundColor=default;strokeColor=default;fontFamily=Helvetica;fontSize=12;fontColor=default;endArrow=none;endFill=0;" parent="1" source="x2HAkG1FpfWmCbXRU_R8-100" target="x2HAkG1FpfWmCbXRU_R8-103" edge="1">
          <mxGeometry relative="1" as="geometry" />
        </mxCell>
        <mxCell id="x2HAkG1FpfWmCbXRU_R8-100" value="Campo" style="whiteSpace=wrap;html=1;align=center;fillColor=#B3FF66;" parent="1" vertex="1">
          <mxGeometry x="-1694.5" y="1640" width="129" height="40" as="geometry" />
        </mxCell>
        <mxCell id="x2HAkG1FpfWmCbXRU_R8-101" value="&lt;b&gt;&lt;u&gt;Nome&lt;/u&gt;&lt;/b&gt;" style="ellipse;whiteSpace=wrap;html=1;align=center;fillColor=#99CCFF;" parent="1" vertex="1">
          <mxGeometry x="-1842.25" y="1601" width="100" height="40" as="geometry" />
        </mxCell>
        <mxCell id="x2HAkG1FpfWmCbXRU_R8-102" value="&lt;b&gt;&lt;u&gt;Tipo&lt;/u&gt;&lt;/b&gt;" style="ellipse;whiteSpace=wrap;html=1;align=center;fillColor=#99CCFF;" parent="1" vertex="1">
          <mxGeometry x="-1885" y="1628" width="100" height="40" as="geometry" />
        </mxCell>
        <mxCell id="x2HAkG1FpfWmCbXRU_R8-103" value="Opcional" style="ellipse;whiteSpace=wrap;html=1;align=center;fillColor=#99CCFF;" parent="1" vertex="1">
          <mxGeometry x="-1920" y="1655" width="100" height="40" as="geometry" />
        </mxCell>
        <mxCell id="bFW7XB5v9sW4Uqi8YyjJ-120" value="" style="shape=link;html=1;rounded=0;" parent="1" source="x2HAkG1FpfWmCbXRU_R8-100" target="x2HAkG1FpfWmCbXRU_R8-107" edge="1">
          <mxGeometry relative="1" as="geometry">
            <mxPoint x="-1432" y="1677" as="sourcePoint" />
            <mxPoint x="-1272" y="1677" as="targetPoint" />
          </mxGeometry>
        </mxCell>
        <mxCell id="bFW7XB5v9sW4Uqi8YyjJ-121" value="N" style="resizable=0;html=1;whiteSpace=wrap;align=right;verticalAlign=bottom;" parent="bFW7XB5v9sW4Uqi8YyjJ-120" connectable="0" vertex="1">
          <mxGeometry x="1" relative="1" as="geometry">
            <mxPoint y="30" as="offset" />
          </mxGeometry>
        </mxCell>
        <mxCell id="x2HAkG1FpfWmCbXRU_R8-111" style="edgeStyle=none;shape=connector;rounded=0;orthogonalLoop=1;jettySize=auto;html=1;labelBackgroundColor=default;strokeColor=default;fontFamily=Helvetica;fontSize=12;fontColor=default;endArrow=none;endFill=0;" parent="1" source="x2HAkG1FpfWmCbXRU_R8-110" target="x2HAkG1FpfWmCbXRU_R8-100" edge="1">
          <mxGeometry relative="1" as="geometry" />
        </mxCell>
        <mxCell id="x2HAkG1FpfWmCbXRU_R8-107" value="Compõe" style="shape=rhombus;perimeter=rhombusPerimeter;whiteSpace=wrap;html=1;align=center;strokeColor=default;fontFamily=Helvetica;fontSize=12;fontColor=default;fillColor=#FFFF99;" parent="1" vertex="1">
          <mxGeometry x="-1460" y="1630" width="120" height="60" as="geometry" />
        </mxCell>
        <mxCell id="x2HAkG1FpfWmCbXRU_R8-110" value="Arquivo" style="ellipse;whiteSpace=wrap;html=1;align=center;fillColor=#99CCFF;" parent="1" vertex="1">
          <mxGeometry x="-1848" y="1672" width="100" height="40" as="geometry" />
        </mxCell>
        <mxCell id="bFW7XB5v9sW4Uqi8YyjJ-124" value="possui" style="shape=rhombus;perimeter=rhombusPerimeter;whiteSpace=wrap;html=1;align=center;strokeColor=default;fontFamily=Helvetica;fontSize=12;fontColor=default;fillColor=#FFFF99;" parent="1" vertex="1">
          <mxGeometry x="-3316" y="2299" width="120" height="60" as="geometry" />
        </mxCell>
        <mxCell id="bFW7XB5v9sW4Uqi8YyjJ-125" value="possui" style="shape=rhombus;perimeter=rhombusPerimeter;whiteSpace=wrap;html=1;align=center;strokeColor=default;fontFamily=Helvetica;fontSize=12;fontColor=default;fillColor=#FFFF99;" parent="1" vertex="1">
          <mxGeometry x="-2957" y="2465.5" width="120" height="60" as="geometry" />
        </mxCell>
        <mxCell id="bFW7XB5v9sW4Uqi8YyjJ-126" value="" style="shape=link;html=1;rounded=0;" parent="1" source="x2HAkG1FpfWmCbXRU_R8-83" target="bFW7XB5v9sW4Uqi8YyjJ-125" edge="1">
          <mxGeometry relative="1" as="geometry">
            <mxPoint x="-3005" y="2161" as="sourcePoint" />
            <mxPoint x="-2964" y="2233" as="targetPoint" />
          </mxGeometry>
        </mxCell>
        <mxCell id="bFW7XB5v9sW4Uqi8YyjJ-127" value="1" style="resizable=0;html=1;whiteSpace=wrap;align=right;verticalAlign=bottom;" parent="bFW7XB5v9sW4Uqi8YyjJ-126" connectable="0" vertex="1">
          <mxGeometry x="1" relative="1" as="geometry">
            <mxPoint x="-22" as="offset" />
          </mxGeometry>
        </mxCell>
        <mxCell id="bFW7XB5v9sW4Uqi8YyjJ-128" value="nome" style="ellipse;whiteSpace=wrap;html=1;align=center;fillColor=#99CCFF;" parent="1" vertex="1">
          <mxGeometry x="-3132" y="1904.5" width="100" height="40" as="geometry" />
        </mxCell>
        <mxCell id="bFW7XB5v9sW4Uqi8YyjJ-129" value="CPF" style="ellipse;whiteSpace=wrap;html=1;align=center;fillColor=#99CCFF;" parent="1" vertex="1">
          <mxGeometry x="-3108" y="1873.5" width="100" height="40" as="geometry" />
        </mxCell>
        <mxCell id="bFW7XB5v9sW4Uqi8YyjJ-130" value="" style="endArrow=none;html=1;rounded=0;" parent="1" source="bFW7XB5v9sW4Uqi8YyjJ-129" target="bFW7XB5v9sW4Uqi8YyjJ-145" edge="1">
          <mxGeometry relative="1" as="geometry">
            <mxPoint x="-2950" y="1979.5" as="sourcePoint" />
            <mxPoint x="-3003.3702247216897" y="1920.426129570792" as="targetPoint" />
          </mxGeometry>
        </mxCell>
        <mxCell id="bFW7XB5v9sW4Uqi8YyjJ-131" value="" style="endArrow=none;html=1;rounded=0;" parent="1" source="bFW7XB5v9sW4Uqi8YyjJ-128" target="bFW7XB5v9sW4Uqi8YyjJ-145" edge="1">
          <mxGeometry relative="1" as="geometry">
            <mxPoint x="-3036" y="1791.5" as="sourcePoint" />
            <mxPoint x="-3020.5228535273545" y="1931.1745228536333" as="targetPoint" />
          </mxGeometry>
        </mxCell>
        <mxCell id="bFW7XB5v9sW4Uqi8YyjJ-134" value="" style="endArrow=none;html=1;rounded=0;" parent="1" source="x2HAkG1FpfWmCbXRU_R8-77" target="EwDSnlVrmYeqQzUvhRLh-17" edge="1">
          <mxGeometry relative="1" as="geometry">
            <mxPoint x="-2959" y="2063" as="sourcePoint" />
            <mxPoint x="-2794.9166666666665" y="1977" as="targetPoint" />
          </mxGeometry>
        </mxCell>
        <mxCell id="bFW7XB5v9sW4Uqi8YyjJ-135" value="1" style="resizable=0;html=1;whiteSpace=wrap;align=right;verticalAlign=bottom;" parent="bFW7XB5v9sW4Uqi8YyjJ-134" connectable="0" vertex="1">
          <mxGeometry x="1" relative="1" as="geometry">
            <mxPoint x="1" y="-9" as="offset" />
          </mxGeometry>
        </mxCell>
        <mxCell id="bFW7XB5v9sW4Uqi8YyjJ-137" value="" style="endArrow=none;html=1;rounded=0;" parent="1" source="bFW7XB5v9sW4Uqi8YyjJ-145" target="EwDSnlVrmYeqQzUvhRLh-17" edge="1">
          <mxGeometry relative="1" as="geometry">
            <mxPoint x="-2936.361454322746" y="1950.027938192111" as="sourcePoint" />
            <mxPoint x="-2886.746835443038" y="1977" as="targetPoint" />
          </mxGeometry>
        </mxCell>
        <mxCell id="x2HAkG1FpfWmCbXRU_R8-83" value="Instituição de Ensino Superior" style="whiteSpace=wrap;html=1;align=center;fillColor=#B3FF66;" parent="1" vertex="1">
          <mxGeometry x="-3057" y="2111" width="129" height="40" as="geometry" />
        </mxCell>
        <mxCell id="bFW7XB5v9sW4Uqi8YyjJ-139" value="" style="endArrow=none;html=1;rounded=0;" parent="1" source="bFW7XB5v9sW4Uqi8YyjJ-138" target="x2HAkG1FpfWmCbXRU_R8-83" edge="1">
          <mxGeometry relative="1" as="geometry">
            <mxPoint x="-3224" y="2166" as="sourcePoint" />
            <mxPoint x="-3047" y="2148" as="targetPoint" />
          </mxGeometry>
        </mxCell>
        <mxCell id="bFW7XB5v9sW4Uqi8YyjJ-142" value="função" style="ellipse;whiteSpace=wrap;html=1;align=center;fillColor=#99CCFF;" parent="1" vertex="1">
          <mxGeometry x="-3015" y="1827" width="100" height="40" as="geometry" />
        </mxCell>
        <mxCell id="bFW7XB5v9sW4Uqi8YyjJ-143" value="" style="endArrow=none;html=1;rounded=0;" parent="1" source="THlvHC6nMn96xe4pw3AP-8" target="bFW7XB5v9sW4Uqi8YyjJ-145" edge="1">
          <mxGeometry relative="1" as="geometry">
            <mxPoint x="-3003.4824787635853" y="1887.8771671273312" as="sourcePoint" />
            <mxPoint x="-2985.8052828796976" y="1916.7774542181423" as="targetPoint" />
          </mxGeometry>
        </mxCell>
        <mxCell id="bFW7XB5v9sW4Uqi8YyjJ-144" value="" style="endArrow=none;html=1;rounded=0;" parent="1" source="bFW7XB5v9sW4Uqi8YyjJ-142" target="bFW7XB5v9sW4Uqi8YyjJ-145" edge="1">
          <mxGeometry relative="1" as="geometry">
            <mxPoint x="-2996" y="1898" as="sourcePoint" />
            <mxPoint x="-2970.493834507934" y="1916.009076196212" as="targetPoint" />
          </mxGeometry>
        </mxCell>
        <mxCell id="bFW7XB5v9sW4Uqi8YyjJ-145" value="requisitante" style="ellipse;shape=doubleEllipse;margin=3;whiteSpace=wrap;html=1;align=center;fillColor=#99CCFF;" parent="1" vertex="1">
          <mxGeometry x="-3018" y="1908" width="100" height="40" as="geometry" />
        </mxCell>
        <mxCell id="-rI8hnywURZdHphwKEdb-70" style="edgeStyle=none;shape=connector;rounded=0;orthogonalLoop=1;jettySize=auto;html=1;exitX=0;exitY=0.5;exitDx=0;exitDy=0;labelBackgroundColor=default;strokeColor=default;fontFamily=Helvetica;fontSize=12;fontColor=default;endArrow=none;endFill=0;" parent="1" source="x2HAkG1FpfWmCbXRU_R8-115" target="-rI8hnywURZdHphwKEdb-59" edge="1">
          <mxGeometry relative="1" as="geometry" />
        </mxCell>
        <mxCell id="x2HAkG1FpfWmCbXRU_R8-115" value="Núcleo Linguístico" style="whiteSpace=wrap;html=1;align=center;fillColor=#B3FF66;" parent="1" vertex="1">
          <mxGeometry x="-3540" y="2031.75" width="129" height="40" as="geometry" />
        </mxCell>
        <mxCell id="x2HAkG1FpfWmCbXRU_R8-117" value="possui" style="shape=rhombus;perimeter=rhombusPerimeter;whiteSpace=wrap;html=1;align=center;strokeColor=default;fontFamily=Helvetica;fontSize=12;fontColor=default;fillColor=#FFFF99;" parent="1" vertex="1">
          <mxGeometry x="-3323" y="2021.75" width="120" height="60" as="geometry" />
        </mxCell>
        <mxCell id="-rI8hnywURZdHphwKEdb-58" style="edgeStyle=none;shape=connector;rounded=0;orthogonalLoop=1;jettySize=auto;html=1;labelBackgroundColor=default;strokeColor=default;fontFamily=Helvetica;fontSize=12;fontColor=default;endArrow=none;endFill=0;" parent="1" source="x2HAkG1FpfWmCbXRU_R8-118" target="-rI8hnywURZdHphwKEdb-47" edge="1">
          <mxGeometry relative="1" as="geometry" />
        </mxCell>
        <mxCell id="x2HAkG1FpfWmCbXRU_R8-118" value="Laboratório ISF" style="whiteSpace=wrap;html=1;align=center;fillColor=#B3FF66;" parent="1" vertex="1">
          <mxGeometry x="-3540" y="2149" width="129" height="40" as="geometry" />
        </mxCell>
        <mxCell id="x2HAkG1FpfWmCbXRU_R8-119" value="possui" style="shape=rhombus;perimeter=rhombusPerimeter;whiteSpace=wrap;html=1;align=center;strokeColor=default;fontFamily=Helvetica;fontSize=12;fontColor=default;fillColor=#FFFF99;" parent="1" vertex="1">
          <mxGeometry x="-3323" y="2139" width="120" height="60" as="geometry" />
        </mxCell>
        <mxCell id="bFW7XB5v9sW4Uqi8YyjJ-162" value="" style="endArrow=none;html=1;rounded=0;exitX=0;exitY=0.25;exitDx=0;exitDy=0;" parent="1" source="x2HAkG1FpfWmCbXRU_R8-83" target="x2HAkG1FpfWmCbXRU_R8-117" edge="1">
          <mxGeometry relative="1" as="geometry">
            <mxPoint x="-3381" y="1988" as="sourcePoint" />
            <mxPoint x="-3221" y="1988" as="targetPoint" />
          </mxGeometry>
        </mxCell>
        <mxCell id="bFW7XB5v9sW4Uqi8YyjJ-163" value="1" style="resizable=0;html=1;whiteSpace=wrap;align=right;verticalAlign=bottom;" parent="bFW7XB5v9sW4Uqi8YyjJ-162" connectable="0" vertex="1">
          <mxGeometry x="1" relative="1" as="geometry">
            <mxPoint x="40" y="6" as="offset" />
          </mxGeometry>
        </mxCell>
        <mxCell id="bFW7XB5v9sW4Uqi8YyjJ-170" value="" style="shape=link;html=1;rounded=0;" parent="1" source="x2HAkG1FpfWmCbXRU_R8-115" target="x2HAkG1FpfWmCbXRU_R8-117" edge="1">
          <mxGeometry relative="1" as="geometry">
            <mxPoint x="-3000" y="2161" as="sourcePoint" />
            <mxPoint x="-3067" y="2236" as="targetPoint" />
          </mxGeometry>
        </mxCell>
        <mxCell id="bFW7XB5v9sW4Uqi8YyjJ-171" value="N" style="resizable=0;html=1;whiteSpace=wrap;align=right;verticalAlign=bottom;" parent="bFW7XB5v9sW4Uqi8YyjJ-170" connectable="0" vertex="1">
          <mxGeometry x="1" relative="1" as="geometry">
            <mxPoint x="-2" y="-10" as="offset" />
          </mxGeometry>
        </mxCell>
        <mxCell id="bFW7XB5v9sW4Uqi8YyjJ-132" value="" style="shape=link;html=1;rounded=0;" parent="1" source="x2HAkG1FpfWmCbXRU_R8-83" target="EwDSnlVrmYeqQzUvhRLh-17" edge="1">
          <mxGeometry relative="1" as="geometry">
            <mxPoint x="-3000" y="2161" as="sourcePoint" />
            <mxPoint x="-2874.6209677419356" y="2037" as="targetPoint" />
          </mxGeometry>
        </mxCell>
        <mxCell id="bFW7XB5v9sW4Uqi8YyjJ-133" value="N" style="resizable=0;html=1;whiteSpace=wrap;align=right;verticalAlign=bottom;" parent="bFW7XB5v9sW4Uqi8YyjJ-132" connectable="0" vertex="1">
          <mxGeometry x="1" relative="1" as="geometry">
            <mxPoint x="-32" y="20" as="offset" />
          </mxGeometry>
        </mxCell>
        <mxCell id="bFW7XB5v9sW4Uqi8YyjJ-172" value="" style="shape=link;html=1;rounded=0;" parent="1" source="x2HAkG1FpfWmCbXRU_R8-118" target="x2HAkG1FpfWmCbXRU_R8-119" edge="1">
          <mxGeometry relative="1" as="geometry">
            <mxPoint x="-3401" y="2062" as="sourcePoint" />
            <mxPoint x="-3313" y="2062" as="targetPoint" />
          </mxGeometry>
        </mxCell>
        <mxCell id="bFW7XB5v9sW4Uqi8YyjJ-173" value="N" style="resizable=0;html=1;whiteSpace=wrap;align=right;verticalAlign=bottom;" parent="bFW7XB5v9sW4Uqi8YyjJ-172" connectable="0" vertex="1">
          <mxGeometry x="1" relative="1" as="geometry">
            <mxPoint x="-2" y="-10" as="offset" />
          </mxGeometry>
        </mxCell>
        <mxCell id="x2HAkG1FpfWmCbXRU_R8-128" value="Lattes" style="ellipse;whiteSpace=wrap;html=1;align=center;fillColor=#99CCFF;" parent="1" vertex="1">
          <mxGeometry x="-2950" y="2742.25" width="100" height="40" as="geometry" />
        </mxCell>
        <mxCell id="x2HAkG1FpfWmCbXRU_R8-146" style="edgeStyle=none;shape=connector;rounded=0;orthogonalLoop=1;jettySize=auto;html=1;labelBackgroundColor=default;strokeColor=default;fontFamily=Helvetica;fontSize=12;fontColor=default;endArrow=none;endFill=0;" parent="1" source="x2HAkG1FpfWmCbXRU_R8-136" target="x2HAkG1FpfWmCbXRU_R8-144" edge="1">
          <mxGeometry relative="1" as="geometry" />
        </mxCell>
        <mxCell id="x2HAkG1FpfWmCbXRU_R8-147" style="edgeStyle=none;shape=connector;rounded=0;orthogonalLoop=1;jettySize=auto;html=1;labelBackgroundColor=default;strokeColor=default;fontFamily=Helvetica;fontSize=12;fontColor=default;endArrow=none;endFill=0;" parent="1" source="MONinfcuOaBZ7uyU44ot-7" target="x2HAkG1FpfWmCbXRU_R8-145" edge="1">
          <mxGeometry relative="1" as="geometry" />
        </mxCell>
        <mxCell id="x2HAkG1FpfWmCbXRU_R8-167" style="edgeStyle=none;shape=connector;rounded=0;orthogonalLoop=1;jettySize=auto;html=1;labelBackgroundColor=default;strokeColor=default;fontFamily=Helvetica;fontSize=12;fontColor=default;endArrow=none;endFill=0;" parent="1" source="x2HAkG1FpfWmCbXRU_R8-136" target="x2HAkG1FpfWmCbXRU_R8-166" edge="1">
          <mxGeometry relative="1" as="geometry" />
        </mxCell>
        <mxCell id="x2HAkG1FpfWmCbXRU_R8-173" style="edgeStyle=none;shape=connector;rounded=0;orthogonalLoop=1;jettySize=auto;html=1;labelBackgroundColor=default;strokeColor=default;fontFamily=Helvetica;fontSize=12;fontColor=default;endArrow=none;endFill=0;" parent="1" source="x2HAkG1FpfWmCbXRU_R8-136" target="bFW7XB5v9sW4Uqi8YyjJ-188" edge="1">
          <mxGeometry relative="1" as="geometry">
            <mxPoint x="-1933.454776451193" y="2285.1998664544585" as="targetPoint" />
          </mxGeometry>
        </mxCell>
        <mxCell id="x2HAkG1FpfWmCbXRU_R8-185" style="edgeStyle=none;shape=connector;rounded=0;orthogonalLoop=1;jettySize=auto;html=1;labelBackgroundColor=default;strokeColor=default;fontFamily=Helvetica;fontSize=12;fontColor=default;endArrow=none;endFill=0;" parent="1" source="x2HAkG1FpfWmCbXRU_R8-136" target="x2HAkG1FpfWmCbXRU_R8-184" edge="1">
          <mxGeometry relative="1" as="geometry" />
        </mxCell>
        <mxCell id="x2HAkG1FpfWmCbXRU_R8-187" style="edgeStyle=none;shape=connector;rounded=0;orthogonalLoop=1;jettySize=auto;html=1;labelBackgroundColor=default;strokeColor=default;fontFamily=Helvetica;fontSize=12;fontColor=default;endArrow=none;endFill=0;" parent="1" source="x2HAkG1FpfWmCbXRU_R8-136" target="x2HAkG1FpfWmCbXRU_R8-186" edge="1">
          <mxGeometry relative="1" as="geometry" />
        </mxCell>
        <mxCell id="x2HAkG1FpfWmCbXRU_R8-136" value="Especialista" style="whiteSpace=wrap;html=1;align=center;fillColor=#B3FF66;" parent="1" vertex="1">
          <mxGeometry x="-1914" y="2111" width="129" height="40" as="geometry" />
        </mxCell>
        <mxCell id="bFW7XB5v9sW4Uqi8YyjJ-179" value="" style="endArrow=none;html=1;rounded=0;" parent="1" source="x2HAkG1FpfWmCbXRU_R8-4" target="x2HAkG1FpfWmCbXRU_R8-89" edge="1">
          <mxGeometry relative="1" as="geometry">
            <mxPoint x="-2224" y="1929" as="sourcePoint" />
            <mxPoint x="-2305" y="1987" as="targetPoint" />
          </mxGeometry>
        </mxCell>
        <mxCell id="bFW7XB5v9sW4Uqi8YyjJ-180" value="1" style="resizable=0;html=1;whiteSpace=wrap;align=right;verticalAlign=bottom;" parent="bFW7XB5v9sW4Uqi8YyjJ-179" connectable="0" vertex="1">
          <mxGeometry x="1" relative="1" as="geometry">
            <mxPoint x="-9" y="1" as="offset" />
          </mxGeometry>
        </mxCell>
        <mxCell id="bFW7XB5v9sW4Uqi8YyjJ-183" style="edgeStyle=none;shape=connector;rounded=0;orthogonalLoop=1;jettySize=auto;html=1;labelBackgroundColor=default;strokeColor=default;fontFamily=Helvetica;fontSize=12;fontColor=default;endArrow=none;endFill=0;" parent="1" source="x2HAkG1FpfWmCbXRU_R8-136" target="x2HAkG1FpfWmCbXRU_R8-150" edge="1">
          <mxGeometry relative="1" as="geometry">
            <mxPoint x="-1799" y="2159" as="sourcePoint" />
            <mxPoint x="-1699" y="2198" as="targetPoint" />
          </mxGeometry>
        </mxCell>
        <mxCell id="x2HAkG1FpfWmCbXRU_R8-161" value="Atua em" style="shape=rhombus;perimeter=rhombusPerimeter;whiteSpace=wrap;html=1;align=center;strokeColor=default;fontFamily=Helvetica;fontSize=12;fontColor=default;fillColor=#FFFF99;" parent="1" vertex="1">
          <mxGeometry x="-2598" y="2101" width="120" height="60" as="geometry" />
        </mxCell>
        <mxCell id="x2HAkG1FpfWmCbXRU_R8-160" style="edgeStyle=none;shape=connector;rounded=0;orthogonalLoop=1;jettySize=auto;html=1;labelBackgroundColor=default;strokeColor=default;fontFamily=Helvetica;fontSize=12;fontColor=default;endArrow=none;endFill=0;" parent="1" source="x2HAkG1FpfWmCbXRU_R8-159" target="x2HAkG1FpfWmCbXRU_R8-136" edge="1">
          <mxGeometry relative="1" as="geometry" />
        </mxCell>
        <mxCell id="x2HAkG1FpfWmCbXRU_R8-120" value="é polo" style="ellipse;whiteSpace=wrap;html=1;align=center;fillColor=#99CCFF;" parent="1" vertex="1">
          <mxGeometry x="-2915" y="2189.75" width="100" height="40" as="geometry" />
        </mxCell>
        <mxCell id="bFW7XB5v9sW4Uqi8YyjJ-78" value="contato reitoria" style="ellipse;whiteSpace=wrap;html=1;align=center;fillColor=#99CCFF;" parent="1" vertex="1">
          <mxGeometry x="-2904" y="2221.75" width="100" height="40" as="geometry" />
        </mxCell>
        <mxCell id="bFW7XB5v9sW4Uqi8YyjJ-80" value="&lt;u&gt;&lt;b&gt;nome completo&lt;/b&gt;&lt;/u&gt;" style="ellipse;whiteSpace=wrap;html=1;align=center;fillColor=#99CCFF;" parent="1" vertex="1">
          <mxGeometry x="-2886" y="2253.75" width="100" height="40" as="geometry" />
        </mxCell>
        <mxCell id="bFW7XB5v9sW4Uqi8YyjJ-79" value="IES-sigla" style="ellipse;whiteSpace=wrap;html=1;align=center;fillColor=#99CCFF;" parent="1" vertex="1">
          <mxGeometry x="-2817" y="2233" width="100" height="40" as="geometry" />
        </mxCell>
        <mxCell id="bFW7XB5v9sW4Uqi8YyjJ-138" value="&lt;b&gt;&lt;u&gt;campus&lt;/u&gt;&lt;/b&gt;" style="ellipse;whiteSpace=wrap;html=1;align=center;fillColor=#99CCFF;" parent="1" vertex="1">
          <mxGeometry x="-2873" y="2282" width="100" height="40" as="geometry" />
        </mxCell>
        <mxCell id="bFW7XB5v9sW4Uqi8YyjJ-184" value="" style="endArrow=none;html=1;rounded=0;" parent="1" source="x2HAkG1FpfWmCbXRU_R8-83" target="x2HAkG1FpfWmCbXRU_R8-161" edge="1">
          <mxGeometry relative="1" as="geometry">
            <mxPoint x="-2704" y="1929" as="sourcePoint" />
            <mxPoint x="-2584" y="2065" as="targetPoint" />
          </mxGeometry>
        </mxCell>
        <mxCell id="bFW7XB5v9sW4Uqi8YyjJ-185" value="N" style="resizable=0;html=1;whiteSpace=wrap;align=right;verticalAlign=bottom;" parent="bFW7XB5v9sW4Uqi8YyjJ-184" connectable="0" vertex="1">
          <mxGeometry x="1" relative="1" as="geometry">
            <mxPoint x="1" y="-9" as="offset" />
          </mxGeometry>
        </mxCell>
        <mxCell id="bFW7XB5v9sW4Uqi8YyjJ-181" value="" style="shape=link;html=1;rounded=0;" parent="1" source="x2HAkG1FpfWmCbXRU_R8-136" target="x2HAkG1FpfWmCbXRU_R8-89" edge="1">
          <mxGeometry relative="1" as="geometry">
            <mxPoint x="-2477" y="2121" as="sourcePoint" />
            <mxPoint x="-2385" y="2047" as="targetPoint" />
          </mxGeometry>
        </mxCell>
        <mxCell id="bFW7XB5v9sW4Uqi8YyjJ-182" value="N" style="resizable=0;html=1;whiteSpace=wrap;align=right;verticalAlign=bottom;" parent="bFW7XB5v9sW4Uqi8YyjJ-181" connectable="0" vertex="1">
          <mxGeometry x="1" relative="1" as="geometry">
            <mxPoint x="-12" y="20" as="offset" />
          </mxGeometry>
        </mxCell>
        <mxCell id="x2HAkG1FpfWmCbXRU_R8-165" style="edgeStyle=none;shape=connector;rounded=0;orthogonalLoop=1;jettySize=auto;html=1;labelBackgroundColor=default;strokeColor=default;fontFamily=Helvetica;fontSize=12;fontColor=default;endArrow=none;endFill=0;" parent="1" source="x2HAkG1FpfWmCbXRU_R8-164" target="x2HAkG1FpfWmCbXRU_R8-136" edge="1">
          <mxGeometry relative="1" as="geometry" />
        </mxCell>
        <mxCell id="x2HAkG1FpfWmCbXRU_R8-169" style="edgeStyle=none;shape=connector;rounded=0;orthogonalLoop=1;jettySize=auto;html=1;labelBackgroundColor=default;strokeColor=default;fontFamily=Helvetica;fontSize=12;fontColor=default;endArrow=none;endFill=0;" parent="1" source="x2HAkG1FpfWmCbXRU_R8-168" target="x2HAkG1FpfWmCbXRU_R8-136" edge="1">
          <mxGeometry relative="1" as="geometry" />
        </mxCell>
        <mxCell id="x2HAkG1FpfWmCbXRU_R8-171" style="edgeStyle=none;shape=connector;rounded=0;orthogonalLoop=1;jettySize=auto;html=1;labelBackgroundColor=default;strokeColor=default;fontFamily=Helvetica;fontSize=12;fontColor=default;endArrow=none;endFill=0;" parent="1" source="x2HAkG1FpfWmCbXRU_R8-170" target="x2HAkG1FpfWmCbXRU_R8-136" edge="1">
          <mxGeometry relative="1" as="geometry" />
        </mxCell>
        <mxCell id="x2HAkG1FpfWmCbXRU_R8-189" style="edgeStyle=none;shape=connector;rounded=0;orthogonalLoop=1;jettySize=auto;html=1;labelBackgroundColor=default;strokeColor=default;fontFamily=Helvetica;fontSize=12;fontColor=default;endArrow=none;endFill=0;" parent="1" source="x2HAkG1FpfWmCbXRU_R8-188" target="x2HAkG1FpfWmCbXRU_R8-136" edge="1">
          <mxGeometry relative="1" as="geometry" />
        </mxCell>
        <mxCell id="x2HAkG1FpfWmCbXRU_R8-144" value="Gênero" style="ellipse;whiteSpace=wrap;html=1;align=center;fillColor=#99CCFF;" parent="1" vertex="1">
          <mxGeometry x="-1962" y="2220" width="100" height="40" as="geometry" />
        </mxCell>
        <mxCell id="x2HAkG1FpfWmCbXRU_R8-145" value="Data de nascimento" style="ellipse;whiteSpace=wrap;html=1;align=center;fillColor=#99CCFF;" parent="1" vertex="1">
          <mxGeometry x="-1621" y="1893" width="100" height="40" as="geometry" />
        </mxCell>
        <mxCell id="x2HAkG1FpfWmCbXRU_R8-150" value="Nome da mãe" style="ellipse;whiteSpace=wrap;html=1;align=center;fillColor=#99CCFF;" parent="1" vertex="1">
          <mxGeometry x="-1930" y="2301.75" width="100" height="40" as="geometry" />
        </mxCell>
        <mxCell id="x2HAkG1FpfWmCbXRU_R8-164" value="Setor onde atua" style="ellipse;whiteSpace=wrap;html=1;align=center;fillColor=#99CCFF;" parent="1" vertex="1">
          <mxGeometry x="-2019" y="2303.75" width="100" height="40" as="geometry" />
        </mxCell>
        <mxCell id="x2HAkG1FpfWmCbXRU_R8-166" value="Tipo de vínculo" style="ellipse;whiteSpace=wrap;html=1;align=center;fillColor=#99CCFF;" parent="1" vertex="1">
          <mxGeometry x="-1843" y="2303.75" width="100" height="40" as="geometry" />
        </mxCell>
        <mxCell id="x2HAkG1FpfWmCbXRU_R8-176" style="edgeStyle=none;shape=connector;rounded=0;orthogonalLoop=1;jettySize=auto;html=1;labelBackgroundColor=default;strokeColor=default;fontFamily=Helvetica;fontSize=12;fontColor=default;endArrow=none;endFill=0;" parent="1" source="bFW7XB5v9sW4Uqi8YyjJ-188" target="x2HAkG1FpfWmCbXRU_R8-174" edge="1">
          <mxGeometry relative="1" as="geometry" />
        </mxCell>
        <mxCell id="x2HAkG1FpfWmCbXRU_R8-179" style="edgeStyle=none;shape=connector;rounded=0;orthogonalLoop=1;jettySize=auto;html=1;labelBackgroundColor=default;strokeColor=default;fontFamily=Helvetica;fontSize=12;fontColor=default;endArrow=none;endFill=0;" parent="1" source="x2HAkG1FpfWmCbXRU_R8-178" target="bFW7XB5v9sW4Uqi8YyjJ-188" edge="1">
          <mxGeometry relative="1" as="geometry" />
        </mxCell>
        <mxCell id="x2HAkG1FpfWmCbXRU_R8-181" style="edgeStyle=none;shape=connector;rounded=0;orthogonalLoop=1;jettySize=auto;html=1;labelBackgroundColor=default;strokeColor=default;fontFamily=Helvetica;fontSize=12;fontColor=default;endArrow=none;endFill=0;" parent="1" source="x2HAkG1FpfWmCbXRU_R8-180" target="bFW7XB5v9sW4Uqi8YyjJ-188" edge="1">
          <mxGeometry relative="1" as="geometry" />
        </mxCell>
        <mxCell id="bFW7XB5v9sW4Uqi8YyjJ-188" value="Experiência" style="ellipse;shape=doubleEllipse;margin=3;whiteSpace=wrap;html=1;align=center;fillColor=#99CCFF;" parent="1" vertex="1">
          <mxGeometry x="-1984" y="2355" width="100" height="40" as="geometry" />
        </mxCell>
        <mxCell id="x2HAkG1FpfWmCbXRU_R8-184" value="Link do grupo de pesquisa CNPq" style="ellipse;shape=doubleEllipse;margin=3;whiteSpace=wrap;html=1;align=center;fillColor=#99CCFF;" parent="1" vertex="1">
          <mxGeometry x="-1850.5" y="2417.5" width="100" height="49" as="geometry" />
        </mxCell>
        <mxCell id="x2HAkG1FpfWmCbXRU_R8-186" value="Idioma de Preferência" style="ellipse;whiteSpace=wrap;html=1;align=center;fillColor=#99CCFF;" parent="1" vertex="1">
          <mxGeometry x="-1806" y="2271.75" width="100" height="40" as="geometry" />
        </mxCell>
        <mxCell id="x2HAkG1FpfWmCbXRU_R8-188" value="Certificado POCA" style="ellipse;whiteSpace=wrap;html=1;align=center;fillColor=#99CCFF;" parent="1" vertex="1">
          <mxGeometry x="-2055" y="2275" width="100" height="40" as="geometry" />
        </mxCell>
        <mxCell id="bFW7XB5v9sW4Uqi8YyjJ-189" value="" style="edgeStyle=none;shape=connector;rounded=0;orthogonalLoop=1;jettySize=auto;html=1;labelBackgroundColor=default;strokeColor=default;fontFamily=Helvetica;fontSize=12;fontColor=default;endArrow=none;endFill=0;" parent="1" source="bFW7XB5v9sW4Uqi8YyjJ-188" target="x2HAkG1FpfWmCbXRU_R8-174" edge="1">
          <mxGeometry relative="1" as="geometry">
            <mxPoint x="-1935" y="2392.25" as="sourcePoint" />
            <mxPoint x="-1939" y="2453.25" as="targetPoint" />
          </mxGeometry>
        </mxCell>
        <mxCell id="x2HAkG1FpfWmCbXRU_R8-177" style="edgeStyle=none;shape=connector;rounded=0;orthogonalLoop=1;jettySize=auto;html=1;labelBackgroundColor=default;strokeColor=default;fontFamily=Helvetica;fontSize=12;fontColor=default;endArrow=none;endFill=0;" parent="1" source="bFW7XB5v9sW4Uqi8YyjJ-188" target="x2HAkG1FpfWmCbXRU_R8-175" edge="1">
          <mxGeometry relative="1" as="geometry" />
        </mxCell>
        <mxCell id="x2HAkG1FpfWmCbXRU_R8-180" value="Pesquisa" style="ellipse;whiteSpace=wrap;html=1;align=center;fillColor=#99CCFF;" parent="1" vertex="1">
          <mxGeometry x="-2078" y="2454" width="100" height="40" as="geometry" />
        </mxCell>
        <mxCell id="x2HAkG1FpfWmCbXRU_R8-174" value="Área " style="ellipse;whiteSpace=wrap;html=1;align=center;fillColor=#99CCFF;" parent="1" vertex="1">
          <mxGeometry x="-2009.5" y="2432.5" width="100" height="40" as="geometry" />
        </mxCell>
        <mxCell id="x2HAkG1FpfWmCbXRU_R8-207" style="edgeStyle=none;shape=connector;rounded=0;orthogonalLoop=1;jettySize=auto;html=1;labelBackgroundColor=default;strokeColor=default;fontFamily=Helvetica;fontSize=12;fontColor=default;endArrow=none;endFill=0;" parent="1" source="x2HAkG1FpfWmCbXRU_R8-192" target="x2HAkG1FpfWmCbXRU_R8-206" edge="1">
          <mxGeometry relative="1" as="geometry" />
        </mxCell>
        <mxCell id="-rI8hnywURZdHphwKEdb-66" value="Logradouro" style="ellipse;whiteSpace=wrap;html=1;align=center;fillColor=#99CCFF;" parent="1" vertex="1">
          <mxGeometry x="-3901" y="1913.5" width="100" height="40" as="geometry" />
        </mxCell>
        <mxCell id="-rI8hnywURZdHphwKEdb-68" value="País" style="ellipse;whiteSpace=wrap;html=1;align=center;fillColor=#99CCFF;" parent="1" vertex="1">
          <mxGeometry x="-3839" y="1860" width="100" height="40" as="geometry" />
        </mxCell>
        <mxCell id="x2HAkG1FpfWmCbXRU_R8-204" value="Sigla Instituição de Ensino" style="ellipse;whiteSpace=wrap;html=1;align=center;fillColor=#99CCFF;" parent="1" vertex="1">
          <mxGeometry x="-775" y="2214" width="100" height="40" as="geometry" />
        </mxCell>
        <mxCell id="x2HAkG1FpfWmCbXRU_R8-208" value="&lt;i&gt;et al&lt;/i&gt;" style="ellipse;whiteSpace=wrap;html=1;align=center;fillColor=#99CCFF;" parent="1" vertex="1">
          <mxGeometry x="-866" y="2275" width="100" height="40" as="geometry" />
        </mxCell>
        <mxCell id="-rI8hnywURZdHphwKEdb-80" style="edgeStyle=none;shape=connector;rounded=0;orthogonalLoop=1;jettySize=auto;html=1;labelBackgroundColor=default;strokeColor=default;fontFamily=Helvetica;fontSize=12;fontColor=default;endArrow=none;endFill=0;" parent="1" source="-rI8hnywURZdHphwKEdb-66" target="-rI8hnywURZdHphwKEdb-59" edge="1">
          <mxGeometry relative="1" as="geometry" />
        </mxCell>
        <mxCell id="x2HAkG1FpfWmCbXRU_R8-209" style="edgeStyle=none;shape=connector;rounded=0;orthogonalLoop=1;jettySize=auto;html=1;labelBackgroundColor=default;strokeColor=default;fontFamily=Helvetica;fontSize=12;fontColor=default;endArrow=none;endFill=0;" parent="1" source="x2HAkG1FpfWmCbXRU_R8-190" target="x2HAkG1FpfWmCbXRU_R8-208" edge="1">
          <mxGeometry relative="1" as="geometry" />
        </mxCell>
        <mxCell id="x2HAkG1FpfWmCbXRU_R8-190" value="Usuário 6&lt;br&gt;Docente Orientador" style="whiteSpace=wrap;html=1;align=center;fillColor=#B3FF66;" parent="1" vertex="1">
          <mxGeometry x="-847" y="2111" width="129" height="40" as="geometry" />
        </mxCell>
        <mxCell id="-rI8hnywURZdHphwKEdb-64" value="Cidade" style="ellipse;whiteSpace=wrap;html=1;align=center;fillColor=#99CCFF;" parent="1" vertex="1">
          <mxGeometry x="-3905" y="1948" width="100" height="40" as="geometry" />
        </mxCell>
        <mxCell id="x2HAkG1FpfWmCbXRU_R8-193" value="Credencia" style="shape=rhombus;perimeter=rhombusPerimeter;whiteSpace=wrap;html=1;align=center;strokeColor=default;fontFamily=Helvetica;fontSize=12;fontColor=default;fillColor=#FFFF99;" parent="1" vertex="1">
          <mxGeometry x="-1204" y="1977" width="120" height="60" as="geometry" />
        </mxCell>
        <mxCell id="-rI8hnywURZdHphwKEdb-77" style="edgeStyle=none;shape=connector;rounded=0;orthogonalLoop=1;jettySize=auto;html=1;labelBackgroundColor=default;strokeColor=default;fontFamily=Helvetica;fontSize=12;fontColor=default;endArrow=none;endFill=0;" parent="1" source="-rI8hnywURZdHphwKEdb-68" target="-rI8hnywURZdHphwKEdb-59" edge="1">
          <mxGeometry relative="1" as="geometry" />
        </mxCell>
        <mxCell id="-rI8hnywURZdHphwKEdb-79" style="edgeStyle=none;shape=connector;rounded=0;orthogonalLoop=1;jettySize=auto;html=1;labelBackgroundColor=default;strokeColor=default;fontFamily=Helvetica;fontSize=12;fontColor=default;endArrow=none;endFill=0;" parent="1" source="-rI8hnywURZdHphwKEdb-69" target="-rI8hnywURZdHphwKEdb-59" edge="1">
          <mxGeometry relative="1" as="geometry" />
        </mxCell>
        <mxCell id="-rI8hnywURZdHphwKEdb-69" value="Código Postal" style="ellipse;whiteSpace=wrap;html=1;align=center;fillColor=#99CCFF;" parent="1" vertex="1">
          <mxGeometry x="-3784" y="1833.5" width="100" height="40" as="geometry" />
        </mxCell>
        <mxCell id="-rI8hnywURZdHphwKEdb-59" value="Endereço" style="ellipse;whiteSpace=wrap;html=1;align=center;fillColor=#99CCFF;" parent="1" vertex="1">
          <mxGeometry x="-3739" y="1965" width="100" height="40" as="geometry" />
        </mxCell>
        <mxCell id="-rI8hnywURZdHphwKEdb-78" style="edgeStyle=none;shape=connector;rounded=0;orthogonalLoop=1;jettySize=auto;html=1;labelBackgroundColor=default;strokeColor=default;fontFamily=Helvetica;fontSize=12;fontColor=default;endArrow=none;endFill=0;" parent="1" source="-rI8hnywURZdHphwKEdb-62" target="-rI8hnywURZdHphwKEdb-59" edge="1">
          <mxGeometry relative="1" as="geometry" />
        </mxCell>
        <mxCell id="dzElMeFzcnh--6nZ8-IU-5" style="edgeStyle=none;shape=connector;rounded=0;orthogonalLoop=1;jettySize=auto;html=1;labelBackgroundColor=default;strokeColor=default;fontFamily=Helvetica;fontSize=12;fontColor=default;endArrow=none;endFill=0;" parent="1" source="-rI8hnywURZdHphwKEdb-64" target="-rI8hnywURZdHphwKEdb-59" edge="1">
          <mxGeometry relative="1" as="geometry">
            <mxPoint x="-3843" y="1886" as="sourcePoint" />
            <mxPoint x="-3705" y="1978" as="targetPoint" />
          </mxGeometry>
        </mxCell>
        <mxCell id="x2HAkG1FpfWmCbXRU_R8-205" style="edgeStyle=none;shape=connector;rounded=0;orthogonalLoop=1;jettySize=auto;html=1;labelBackgroundColor=default;strokeColor=default;fontFamily=Helvetica;fontSize=12;fontColor=default;endArrow=none;endFill=0;" parent="1" source="x2HAkG1FpfWmCbXRU_R8-190" target="x2HAkG1FpfWmCbXRU_R8-204" edge="1">
          <mxGeometry relative="1" as="geometry" />
        </mxCell>
        <mxCell id="-rI8hnywURZdHphwKEdb-62" value="Estado" style="ellipse;whiteSpace=wrap;html=1;align=center;fillColor=#99CCFF;" parent="1" vertex="1">
          <mxGeometry x="-3889" y="1883" width="100" height="40" as="geometry" />
        </mxCell>
        <mxCell id="x2HAkG1FpfWmCbXRU_R8-199" style="edgeStyle=none;shape=connector;rounded=0;orthogonalLoop=1;jettySize=auto;html=1;labelBackgroundColor=default;strokeColor=default;fontFamily=Helvetica;fontSize=12;fontColor=default;endArrow=none;endFill=0;" parent="1" source="x2HAkG1FpfWmCbXRU_R8-197" target="x2HAkG1FpfWmCbXRU_R8-192" edge="1">
          <mxGeometry relative="1" as="geometry" />
        </mxCell>
        <mxCell id="x2HAkG1FpfWmCbXRU_R8-170" value="Maior titulação" style="ellipse;whiteSpace=wrap;html=1;align=center;fillColor=#99CCFF;" parent="1" vertex="1">
          <mxGeometry x="-2090" y="2245" width="100" height="40" as="geometry" />
        </mxCell>
        <mxCell id="x2HAkG1FpfWmCbXRU_R8-175" value="Nome da Instituição" style="ellipse;whiteSpace=wrap;html=1;align=center;fillColor=#99CCFF;" parent="1" vertex="1">
          <mxGeometry x="-1996.5" y="2465.5" width="100" height="40" as="geometry" />
        </mxCell>
        <mxCell id="-rI8hnywURZdHphwKEdb-47" value="Endereço" style="ellipse;whiteSpace=wrap;html=1;align=center;fillColor=#99CCFF;" parent="1" vertex="1">
          <mxGeometry x="-3692.79" y="2165" width="100" height="40" as="geometry" />
        </mxCell>
        <mxCell id="-rI8hnywURZdHphwKEdb-48" style="edgeStyle=none;shape=connector;rounded=0;orthogonalLoop=1;jettySize=auto;html=1;labelBackgroundColor=default;strokeColor=default;fontFamily=Helvetica;fontSize=12;fontColor=default;endArrow=none;endFill=0;" parent="1" source="-rI8hnywURZdHphwKEdb-57" target="-rI8hnywURZdHphwKEdb-47" edge="1">
          <mxGeometry relative="1" as="geometry" />
        </mxCell>
        <mxCell id="-rI8hnywURZdHphwKEdb-49" style="edgeStyle=none;shape=connector;rounded=0;orthogonalLoop=1;jettySize=auto;html=1;labelBackgroundColor=default;strokeColor=default;fontFamily=Helvetica;fontSize=12;fontColor=default;endArrow=none;endFill=0;" parent="1" source="-rI8hnywURZdHphwKEdb-50" target="-rI8hnywURZdHphwKEdb-47" edge="1">
          <mxGeometry relative="1" as="geometry" />
        </mxCell>
        <mxCell id="-rI8hnywURZdHphwKEdb-50" value="Estado" style="ellipse;whiteSpace=wrap;html=1;align=center;fillColor=#99CCFF;" parent="1" vertex="1">
          <mxGeometry x="-3763" y="2237" width="100" height="40" as="geometry" />
        </mxCell>
        <mxCell id="-rI8hnywURZdHphwKEdb-51" style="edgeStyle=none;shape=connector;rounded=0;orthogonalLoop=1;jettySize=auto;html=1;labelBackgroundColor=default;strokeColor=default;fontFamily=Helvetica;fontSize=12;fontColor=default;endArrow=none;endFill=0;" parent="1" source="-rI8hnywURZdHphwKEdb-52" target="-rI8hnywURZdHphwKEdb-47" edge="1">
          <mxGeometry relative="1" as="geometry" />
        </mxCell>
        <mxCell id="-rI8hnywURZdHphwKEdb-52" value="Cidade" style="ellipse;whiteSpace=wrap;html=1;align=center;fillColor=#99CCFF;" parent="1" vertex="1">
          <mxGeometry x="-3839" y="2235" width="100" height="40" as="geometry" />
        </mxCell>
        <mxCell id="-rI8hnywURZdHphwKEdb-53" style="edgeStyle=none;shape=connector;rounded=0;orthogonalLoop=1;jettySize=auto;html=1;labelBackgroundColor=default;strokeColor=default;fontFamily=Helvetica;fontSize=12;fontColor=default;endArrow=none;endFill=0;" parent="1" source="-rI8hnywURZdHphwKEdb-54" target="-rI8hnywURZdHphwKEdb-47" edge="1">
          <mxGeometry relative="1" as="geometry" />
        </mxCell>
        <mxCell id="-rI8hnywURZdHphwKEdb-54" value="Logradouro" style="ellipse;whiteSpace=wrap;html=1;align=center;fillColor=#99CCFF;" parent="1" vertex="1">
          <mxGeometry x="-3805" y="2206.75" width="100" height="40" as="geometry" />
        </mxCell>
        <mxCell id="-rI8hnywURZdHphwKEdb-56" value="País" style="ellipse;whiteSpace=wrap;html=1;align=center;fillColor=#99CCFF;" parent="1" vertex="1">
          <mxGeometry x="-3726" y="2269" width="100" height="40" as="geometry" />
        </mxCell>
        <mxCell id="-rI8hnywURZdHphwKEdb-57" value="Código Postal" style="ellipse;whiteSpace=wrap;html=1;align=center;fillColor=#99CCFF;" parent="1" vertex="1">
          <mxGeometry x="-3809" y="2266.5" width="100" height="40" as="geometry" />
        </mxCell>
        <mxCell id="bFW7XB5v9sW4Uqi8YyjJ-192" value="" style="shape=link;html=1;rounded=0;" parent="1" source="x2HAkG1FpfWmCbXRU_R8-190" target="bFW7XB5v9sW4Uqi8YyjJ-69" edge="1">
          <mxGeometry relative="1" as="geometry">
            <mxPoint x="-1609" y="2121" as="sourcePoint" />
            <mxPoint x="-1609" y="2047" as="targetPoint" />
          </mxGeometry>
        </mxCell>
        <mxCell id="bFW7XB5v9sW4Uqi8YyjJ-193" value="N" style="resizable=0;html=1;whiteSpace=wrap;align=right;verticalAlign=bottom;" parent="bFW7XB5v9sW4Uqi8YyjJ-192" connectable="0" vertex="1">
          <mxGeometry x="1" relative="1" as="geometry">
            <mxPoint x="-2" y="30" as="offset" />
          </mxGeometry>
        </mxCell>
        <mxCell id="bFW7XB5v9sW4Uqi8YyjJ-194" value="" style="shape=link;html=1;rounded=0;exitX=0.541;exitY=0.014;exitDx=0;exitDy=0;exitPerimeter=0;" parent="1" source="x2HAkG1FpfWmCbXRU_R8-253" target="x2HAkG1FpfWmCbXRU_R8-193" edge="1">
          <mxGeometry relative="1" as="geometry">
            <mxPoint x="-1264" y="2097" as="sourcePoint" />
            <mxPoint x="-1062" y="2047" as="targetPoint" />
          </mxGeometry>
        </mxCell>
        <mxCell id="bFW7XB5v9sW4Uqi8YyjJ-195" value="N" style="resizable=0;html=1;whiteSpace=wrap;align=right;verticalAlign=bottom;" parent="bFW7XB5v9sW4Uqi8YyjJ-194" connectable="0" vertex="1">
          <mxGeometry x="1" relative="1" as="geometry">
            <mxPoint x="-12" y="20" as="offset" />
          </mxGeometry>
        </mxCell>
        <mxCell id="bFW7XB5v9sW4Uqi8YyjJ-196" value="" style="endArrow=none;html=1;rounded=0;" parent="1" source="x2HAkG1FpfWmCbXRU_R8-78" target="x2HAkG1FpfWmCbXRU_R8-193" edge="1">
          <mxGeometry relative="1" as="geometry">
            <mxPoint x="-1809" y="1938" as="sourcePoint" />
            <mxPoint x="-1809" y="1987" as="targetPoint" />
          </mxGeometry>
        </mxCell>
        <mxCell id="bFW7XB5v9sW4Uqi8YyjJ-197" value="1" style="resizable=0;html=1;whiteSpace=wrap;align=right;verticalAlign=bottom;" parent="bFW7XB5v9sW4Uqi8YyjJ-196" connectable="0" vertex="1">
          <mxGeometry x="1" relative="1" as="geometry">
            <mxPoint x="1" y="-9" as="offset" />
          </mxGeometry>
        </mxCell>
        <mxCell id="bFW7XB5v9sW4Uqi8YyjJ-198" value="" style="endArrow=none;html=1;rounded=0;" parent="1" source="x2HAkG1FpfWmCbXRU_R8-78" target="bFW7XB5v9sW4Uqi8YyjJ-69" edge="1">
          <mxGeometry relative="1" as="geometry">
            <mxPoint x="-1211" y="1929" as="sourcePoint" />
            <mxPoint x="-1275" y="1997" as="targetPoint" />
          </mxGeometry>
        </mxCell>
        <mxCell id="bFW7XB5v9sW4Uqi8YyjJ-199" value="1" style="resizable=0;html=1;whiteSpace=wrap;align=right;verticalAlign=bottom;" parent="bFW7XB5v9sW4Uqi8YyjJ-198" connectable="0" vertex="1">
          <mxGeometry x="1" relative="1" as="geometry">
            <mxPoint x="1" y="-9" as="offset" />
          </mxGeometry>
        </mxCell>
        <mxCell id="x2HAkG1FpfWmCbXRU_R8-220" style="edgeStyle=none;shape=connector;rounded=0;orthogonalLoop=1;jettySize=auto;html=1;labelBackgroundColor=default;strokeColor=default;fontFamily=Helvetica;fontSize=12;fontColor=default;endArrow=none;endFill=0;" parent="1" source="x2HAkG1FpfWmCbXRU_R8-215" target="x2HAkG1FpfWmCbXRU_R8-219" edge="1">
          <mxGeometry relative="1" as="geometry" />
        </mxCell>
        <mxCell id="x2HAkG1FpfWmCbXRU_R8-222" style="edgeStyle=none;shape=connector;rounded=0;orthogonalLoop=1;jettySize=auto;html=1;labelBackgroundColor=default;strokeColor=default;fontFamily=Helvetica;fontSize=12;fontColor=default;endArrow=none;endFill=0;" parent="1" source="x2HAkG1FpfWmCbXRU_R8-215" target="x2HAkG1FpfWmCbXRU_R8-221" edge="1">
          <mxGeometry relative="1" as="geometry" />
        </mxCell>
        <mxCell id="x2HAkG1FpfWmCbXRU_R8-224" style="edgeStyle=none;shape=connector;rounded=0;orthogonalLoop=1;jettySize=auto;html=1;labelBackgroundColor=default;strokeColor=default;fontFamily=Helvetica;fontSize=12;fontColor=default;endArrow=none;endFill=0;" parent="1" source="x2HAkG1FpfWmCbXRU_R8-215" target="x2HAkG1FpfWmCbXRU_R8-223" edge="1">
          <mxGeometry relative="1" as="geometry" />
        </mxCell>
        <mxCell id="x2HAkG1FpfWmCbXRU_R8-226" style="edgeStyle=none;shape=connector;rounded=0;orthogonalLoop=1;jettySize=auto;html=1;labelBackgroundColor=default;strokeColor=default;fontFamily=Helvetica;fontSize=12;fontColor=default;endArrow=none;endFill=0;" parent="1" source="x2HAkG1FpfWmCbXRU_R8-215" target="dzElMeFzcnh--6nZ8-IU-6" edge="1">
          <mxGeometry relative="1" as="geometry" />
        </mxCell>
        <mxCell id="x2HAkG1FpfWmCbXRU_R8-230" style="edgeStyle=none;shape=connector;rounded=0;orthogonalLoop=1;jettySize=auto;html=1;labelBackgroundColor=default;strokeColor=default;fontFamily=Helvetica;fontSize=12;fontColor=default;endArrow=none;endFill=0;" parent="1" source="x2HAkG1FpfWmCbXRU_R8-215" target="x2HAkG1FpfWmCbXRU_R8-229" edge="1">
          <mxGeometry relative="1" as="geometry" />
        </mxCell>
        <mxCell id="x2HAkG1FpfWmCbXRU_R8-215" value="Usuário 4&lt;br&gt;Cursistas da Especialização" style="rounded=0;whiteSpace=wrap;html=1;shadow=1;comic=0;labelBackgroundColor=none;strokeWidth=1;fontFamily=Helvetica;fontSize=12;align=center;spacingLeft=0;spacing=6;fillStyle=solid;hachureGap=4;fontSource=https%3A%2F%2Ffonts.googleapis.com%2Fcss%3Ffamily%3DArchitects%2BDaughter;fillColor=#B3FF66;" parent="1" vertex="1">
          <mxGeometry x="-327" y="2104" width="120" height="54" as="geometry" />
        </mxCell>
        <mxCell id="bFW7XB5v9sW4Uqi8YyjJ-200" value="" style="shape=link;html=1;rounded=0;" parent="1" source="x2HAkG1FpfWmCbXRU_R8-190" target="bFW7XB5v9sW4Uqi8YyjJ-71" edge="1">
          <mxGeometry relative="1" as="geometry">
            <mxPoint x="-789" y="2121" as="sourcePoint" />
            <mxPoint x="-855" y="2038" as="targetPoint" />
          </mxGeometry>
        </mxCell>
        <mxCell id="bFW7XB5v9sW4Uqi8YyjJ-201" value="N" style="resizable=0;html=1;whiteSpace=wrap;align=right;verticalAlign=bottom;" parent="bFW7XB5v9sW4Uqi8YyjJ-200" connectable="0" vertex="1">
          <mxGeometry x="1" relative="1" as="geometry">
            <mxPoint x="-22" y="16" as="offset" />
          </mxGeometry>
        </mxCell>
        <mxCell id="x2HAkG1FpfWmCbXRU_R8-216" value="Adere" style="shape=rhombus;perimeter=rhombusPerimeter;whiteSpace=wrap;html=1;align=center;strokeColor=default;fontFamily=Helvetica;fontSize=12;fontColor=default;fillColor=#FFFF99;" parent="1" vertex="1">
          <mxGeometry x="-327" y="1977" width="120" height="60" as="geometry" />
        </mxCell>
        <mxCell id="x2HAkG1FpfWmCbXRU_R8-219" value="Nome completo" style="ellipse;whiteSpace=wrap;html=1;align=center;fillColor=#99CCFF;" parent="1" vertex="1">
          <mxGeometry x="-310" y="2250" width="100" height="40" as="geometry" />
        </mxCell>
        <mxCell id="bFW7XB5v9sW4Uqi8YyjJ-202" value="" style="shape=link;html=1;rounded=0;" parent="1" source="x2HAkG1FpfWmCbXRU_R8-215" target="x2HAkG1FpfWmCbXRU_R8-216" edge="1">
          <mxGeometry relative="1" as="geometry">
            <mxPoint x="-547" y="2121" as="sourcePoint" />
            <mxPoint x="-486" y="2039" as="targetPoint" />
          </mxGeometry>
        </mxCell>
        <mxCell id="bFW7XB5v9sW4Uqi8YyjJ-203" value="N" style="resizable=0;html=1;whiteSpace=wrap;align=right;verticalAlign=bottom;" parent="bFW7XB5v9sW4Uqi8YyjJ-202" connectable="0" vertex="1">
          <mxGeometry x="1" relative="1" as="geometry">
            <mxPoint x="-12" y="16" as="offset" />
          </mxGeometry>
        </mxCell>
        <mxCell id="x2HAkG1FpfWmCbXRU_R8-221" value="&lt;b&gt;&lt;u&gt;CPF&lt;/u&gt;&lt;/b&gt;" style="ellipse;whiteSpace=wrap;html=1;align=center;fillColor=#99CCFF;" parent="1" vertex="1">
          <mxGeometry x="-232" y="2264.75" width="100" height="40" as="geometry" />
        </mxCell>
        <mxCell id="bFW7XB5v9sW4Uqi8YyjJ-204" value="" style="endArrow=none;html=1;rounded=0;" parent="1" source="x2HAkG1FpfWmCbXRU_R8-81" target="bFW7XB5v9sW4Uqi8YyjJ-71" edge="1">
          <mxGeometry relative="1" as="geometry">
            <mxPoint x="-1174" y="1929" as="sourcePoint" />
            <mxPoint x="-1111" y="1996" as="targetPoint" />
          </mxGeometry>
        </mxCell>
        <mxCell id="bFW7XB5v9sW4Uqi8YyjJ-205" value="1" style="resizable=0;html=1;whiteSpace=wrap;align=right;verticalAlign=bottom;" parent="bFW7XB5v9sW4Uqi8YyjJ-204" connectable="0" vertex="1">
          <mxGeometry x="1" relative="1" as="geometry">
            <mxPoint x="1" y="-9" as="offset" />
          </mxGeometry>
        </mxCell>
        <mxCell id="x2HAkG1FpfWmCbXRU_R8-223" value="&lt;i&gt;et al&lt;/i&gt;" style="ellipse;whiteSpace=wrap;html=1;align=center;fillColor=#99CCFF;" parent="1" vertex="1">
          <mxGeometry x="-322" y="2282.75" width="100" height="40" as="geometry" />
        </mxCell>
        <mxCell id="bFW7XB5v9sW4Uqi8YyjJ-206" value="" style="endArrow=none;html=1;rounded=0;" parent="1" source="x2HAkG1FpfWmCbXRU_R8-81" target="x2HAkG1FpfWmCbXRU_R8-216" edge="1">
          <mxGeometry relative="1" as="geometry">
            <mxPoint x="-818" y="1929" as="sourcePoint" />
            <mxPoint x="-881" y="1996" as="targetPoint" />
          </mxGeometry>
        </mxCell>
        <mxCell id="bFW7XB5v9sW4Uqi8YyjJ-207" value="1" style="resizable=0;html=1;whiteSpace=wrap;align=right;verticalAlign=bottom;" parent="bFW7XB5v9sW4Uqi8YyjJ-206" connectable="0" vertex="1">
          <mxGeometry x="1" relative="1" as="geometry">
            <mxPoint x="1" y="-9" as="offset" />
          </mxGeometry>
        </mxCell>
        <mxCell id="x2HAkG1FpfWmCbXRU_R8-227" value="Idioma credenciado" style="ellipse;whiteSpace=wrap;html=1;align=center;fillColor=#99CCFF;" parent="1" vertex="1">
          <mxGeometry x="-406" y="2260" width="100" height="40" as="geometry" />
        </mxCell>
        <mxCell id="x2HAkG1FpfWmCbXRU_R8-228" style="edgeStyle=none;shape=connector;rounded=0;orthogonalLoop=1;jettySize=auto;html=1;labelBackgroundColor=default;strokeColor=default;fontFamily=Helvetica;fontSize=12;fontColor=default;endArrow=none;endFill=0;" parent="1" source="x2HAkG1FpfWmCbXRU_R8-227" target="x2HAkG1FpfWmCbXRU_R8-215" edge="1">
          <mxGeometry relative="1" as="geometry" />
        </mxCell>
        <mxCell id="x2HAkG1FpfWmCbXRU_R8-229" value="Tipo de aluno" style="ellipse;whiteSpace=wrap;html=1;align=center;fillColor=#99CCFF;" parent="1" vertex="1">
          <mxGeometry x="-229" y="2231.75" width="100" height="40" as="geometry" />
        </mxCell>
        <mxCell id="bFW7XB5v9sW4Uqi8YyjJ-210" value="" style="endArrow=none;html=1;rounded=0;" parent="1" source="bFW7XB5v9sW4Uqi8YyjJ-38" target="x2HAkG1FpfWmCbXRU_R8-33" edge="1">
          <mxGeometry relative="1" as="geometry">
            <mxPoint x="-1408" y="1506" as="sourcePoint" />
            <mxPoint x="-1248" y="1506" as="targetPoint" />
          </mxGeometry>
        </mxCell>
        <mxCell id="bFW7XB5v9sW4Uqi8YyjJ-211" value="1" style="resizable=0;html=1;whiteSpace=wrap;align=right;verticalAlign=bottom;" parent="bFW7XB5v9sW4Uqi8YyjJ-210" connectable="0" vertex="1">
          <mxGeometry x="1" relative="1" as="geometry" />
        </mxCell>
        <mxCell id="bFW7XB5v9sW4Uqi8YyjJ-212" value="" style="endArrow=none;html=1;rounded=0;" parent="1" source="bFW7XB5v9sW4Uqi8YyjJ-38" target="EwDSnlVrmYeqQzUvhRLh-19" edge="1">
          <mxGeometry relative="1" as="geometry">
            <mxPoint x="-1408" y="1352" as="sourcePoint" />
            <mxPoint x="-1248" y="1352" as="targetPoint" />
          </mxGeometry>
        </mxCell>
        <mxCell id="bFW7XB5v9sW4Uqi8YyjJ-213" value="1" style="resizable=0;html=1;whiteSpace=wrap;align=right;verticalAlign=bottom;" parent="bFW7XB5v9sW4Uqi8YyjJ-212" connectable="0" vertex="1">
          <mxGeometry x="1" relative="1" as="geometry">
            <mxPoint x="-30" y="3" as="offset" />
          </mxGeometry>
        </mxCell>
        <mxCell id="bFW7XB5v9sW4Uqi8YyjJ-214" value="" style="endArrow=none;html=1;rounded=0;" parent="1" source="x2HAkG1FpfWmCbXRU_R8-44" target="x2HAkG1FpfWmCbXRU_R8-51" edge="1">
          <mxGeometry relative="1" as="geometry">
            <mxPoint x="-1255" y="1352" as="sourcePoint" />
            <mxPoint x="-1095" y="1352" as="targetPoint" />
          </mxGeometry>
        </mxCell>
        <mxCell id="bFW7XB5v9sW4Uqi8YyjJ-215" value="1" style="resizable=0;html=1;whiteSpace=wrap;align=right;verticalAlign=bottom;" parent="bFW7XB5v9sW4Uqi8YyjJ-214" connectable="0" vertex="1">
          <mxGeometry x="1" relative="1" as="geometry">
            <mxPoint x="20" as="offset" />
          </mxGeometry>
        </mxCell>
        <mxCell id="bFW7XB5v9sW4Uqi8YyjJ-216" value="" style="shape=link;html=1;rounded=0;" parent="1" source="x2HAkG1FpfWmCbXRU_R8-2" target="EwDSnlVrmYeqQzUvhRLh-18" edge="1">
          <mxGeometry relative="1" as="geometry">
            <mxPoint x="-1255" y="1352" as="sourcePoint" />
            <mxPoint x="-1326" y="1292" as="targetPoint" />
          </mxGeometry>
        </mxCell>
        <mxCell id="bFW7XB5v9sW4Uqi8YyjJ-217" value="N" style="resizable=0;html=1;whiteSpace=wrap;align=right;verticalAlign=bottom;" parent="bFW7XB5v9sW4Uqi8YyjJ-216" connectable="0" vertex="1">
          <mxGeometry x="1" relative="1" as="geometry">
            <mxPoint x="13" y="-10" as="offset" />
          </mxGeometry>
        </mxCell>
        <mxCell id="bFW7XB5v9sW4Uqi8YyjJ-220" value="" style="endArrow=none;html=1;rounded=0;" parent="1" source="bFW7XB5v9sW4Uqi8YyjJ-38" target="EwDSnlVrmYeqQzUvhRLh-18" edge="1">
          <mxGeometry relative="1" as="geometry">
            <mxPoint x="-1622" y="1414" as="sourcePoint" />
            <mxPoint x="-1466" y="1292" as="targetPoint" />
          </mxGeometry>
        </mxCell>
        <mxCell id="bFW7XB5v9sW4Uqi8YyjJ-221" value="1" style="resizable=0;html=1;whiteSpace=wrap;align=right;verticalAlign=bottom;" parent="bFW7XB5v9sW4Uqi8YyjJ-220" connectable="0" vertex="1">
          <mxGeometry x="1" relative="1" as="geometry">
            <mxPoint x="-10" y="-6" as="offset" />
          </mxGeometry>
        </mxCell>
        <mxCell id="bFW7XB5v9sW4Uqi8YyjJ-224" value="" style="endArrow=none;html=1;rounded=0;" parent="1" source="x2HAkG1FpfWmCbXRU_R8-3" target="x2HAkG1FpfWmCbXRU_R8-65" edge="1">
          <mxGeometry relative="1" as="geometry">
            <mxPoint x="-797" y="1381" as="sourcePoint" />
            <mxPoint x="-892" y="1376" as="targetPoint" />
          </mxGeometry>
        </mxCell>
        <mxCell id="bFW7XB5v9sW4Uqi8YyjJ-225" value="1" style="resizable=0;html=1;whiteSpace=wrap;align=right;verticalAlign=bottom;" parent="bFW7XB5v9sW4Uqi8YyjJ-224" connectable="0" vertex="1">
          <mxGeometry x="1" relative="1" as="geometry">
            <mxPoint x="-30" y="10" as="offset" />
          </mxGeometry>
        </mxCell>
        <mxCell id="x2HAkG1FpfWmCbXRU_R8-232" value="Turma Ofertado" style="whiteSpace=wrap;html=1;align=center;fillColor=#B3FF66;" parent="1" vertex="1">
          <mxGeometry x="128" y="1619" width="100" height="40" as="geometry" />
        </mxCell>
        <mxCell id="x2HAkG1FpfWmCbXRU_R8-234" value="Cadastra" style="shape=rhombus;perimeter=rhombusPerimeter;whiteSpace=wrap;html=1;align=center;strokeColor=default;fontFamily=Helvetica;fontSize=12;fontColor=default;fillColor=#FFFF99;" parent="1" vertex="1">
          <mxGeometry x="118" y="1977" width="120" height="60" as="geometry" />
        </mxCell>
        <mxCell id="x2HAkG1FpfWmCbXRU_R8-243" style="edgeStyle=none;shape=connector;rounded=0;orthogonalLoop=1;jettySize=auto;html=1;labelBackgroundColor=default;strokeColor=default;fontFamily=Helvetica;fontSize=12;fontColor=default;endArrow=none;endFill=0;" parent="1" source="x2HAkG1FpfWmCbXRU_R8-235" edge="1">
          <mxGeometry relative="1" as="geometry">
            <mxPoint x="237.17085076281182" y="2237.724715769312" as="targetPoint" />
          </mxGeometry>
        </mxCell>
        <mxCell id="x2HAkG1FpfWmCbXRU_R8-244" style="edgeStyle=none;shape=connector;rounded=0;orthogonalLoop=1;jettySize=auto;html=1;labelBackgroundColor=default;strokeColor=default;fontFamily=Helvetica;fontSize=12;fontColor=default;endArrow=none;endFill=0;" parent="1" source="x2HAkG1FpfWmCbXRU_R8-235" target="x2HAkG1FpfWmCbXRU_R8-239" edge="1">
          <mxGeometry relative="1" as="geometry" />
        </mxCell>
        <mxCell id="x2HAkG1FpfWmCbXRU_R8-245" style="edgeStyle=none;shape=connector;rounded=0;orthogonalLoop=1;jettySize=auto;html=1;labelBackgroundColor=default;strokeColor=default;fontFamily=Helvetica;fontSize=12;fontColor=default;endArrow=none;endFill=0;" parent="1" source="x2HAkG1FpfWmCbXRU_R8-235" target="x2HAkG1FpfWmCbXRU_R8-237" edge="1">
          <mxGeometry relative="1" as="geometry" />
        </mxCell>
        <mxCell id="x2HAkG1FpfWmCbXRU_R8-246" style="edgeStyle=none;shape=connector;rounded=0;orthogonalLoop=1;jettySize=auto;html=1;labelBackgroundColor=default;strokeColor=default;fontFamily=Helvetica;fontSize=12;fontColor=default;endArrow=none;endFill=0;" parent="1" source="x2HAkG1FpfWmCbXRU_R8-235" target="x2HAkG1FpfWmCbXRU_R8-236" edge="1">
          <mxGeometry relative="1" as="geometry" />
        </mxCell>
        <mxCell id="x2HAkG1FpfWmCbXRU_R8-247" style="edgeStyle=none;shape=connector;rounded=0;orthogonalLoop=1;jettySize=auto;html=1;labelBackgroundColor=default;strokeColor=default;fontFamily=Helvetica;fontSize=12;fontColor=default;endArrow=none;endFill=0;" parent="1" source="x2HAkG1FpfWmCbXRU_R8-235" target="x2HAkG1FpfWmCbXRU_R8-241" edge="1">
          <mxGeometry relative="1" as="geometry" />
        </mxCell>
        <mxCell id="x2HAkG1FpfWmCbXRU_R8-248" style="edgeStyle=none;shape=connector;rounded=0;orthogonalLoop=1;jettySize=auto;html=1;labelBackgroundColor=default;strokeColor=default;fontFamily=Helvetica;fontSize=12;fontColor=default;endArrow=none;endFill=0;" parent="1" edge="1">
          <mxGeometry relative="1" as="geometry">
            <mxPoint x="176.06867353904818" y="2167.0000000000005" as="sourcePoint" />
            <mxPoint x="173.49380308197487" y="2261.000975179978" as="targetPoint" />
          </mxGeometry>
        </mxCell>
        <mxCell id="x2HAkG1FpfWmCbXRU_R8-249" style="edgeStyle=none;shape=connector;rounded=0;orthogonalLoop=1;jettySize=auto;html=1;labelBackgroundColor=default;strokeColor=default;fontFamily=Helvetica;fontSize=12;fontColor=default;endArrow=none;endFill=0;" parent="1" source="x2HAkG1FpfWmCbXRU_R8-235" target="x2HAkG1FpfWmCbXRU_R8-242" edge="1">
          <mxGeometry relative="1" as="geometry" />
        </mxCell>
        <mxCell id="x2HAkG1FpfWmCbXRU_R8-252" style="edgeStyle=none;shape=connector;rounded=0;orthogonalLoop=1;jettySize=auto;html=1;labelBackgroundColor=default;strokeColor=default;fontFamily=Helvetica;fontSize=12;fontColor=default;endArrow=none;endFill=0;" parent="1" source="x2HAkG1FpfWmCbXRU_R8-235" target="x2HAkG1FpfWmCbXRU_R8-251" edge="1">
          <mxGeometry relative="1" as="geometry" />
        </mxCell>
        <mxCell id="x2HAkG1FpfWmCbXRU_R8-235" value="Aluno da comunidade acadêmica" style="whiteSpace=wrap;html=1;align=center;fillColor=#B3FF66;" parent="1" vertex="1">
          <mxGeometry x="128" y="2097" width="100" height="68" as="geometry" />
        </mxCell>
        <mxCell id="x2HAkG1FpfWmCbXRU_R8-236" value="Nome" style="ellipse;whiteSpace=wrap;html=1;align=center;fillColor=#99CCFF;" parent="1" vertex="1">
          <mxGeometry x="63" y="2235" width="100" height="40" as="geometry" />
        </mxCell>
        <mxCell id="x2HAkG1FpfWmCbXRU_R8-237" value="&lt;b&gt;&lt;u&gt;CPF&lt;/u&gt;&lt;/b&gt;" style="ellipse;whiteSpace=wrap;html=1;align=center;fillColor=#99CCFF;" parent="1" vertex="1">
          <mxGeometry x="140" y="2215.75" width="100" height="40" as="geometry" />
        </mxCell>
        <mxCell id="x2HAkG1FpfWmCbXRU_R8-239" value="Instituição de Ensino" style="ellipse;whiteSpace=wrap;html=1;align=center;fillColor=#99CCFF;" parent="1" vertex="1">
          <mxGeometry x="168" y="2295.75" width="100" height="40" as="geometry" />
        </mxCell>
        <mxCell id="x2HAkG1FpfWmCbXRU_R8-240" value="Tipo de Vínculo" style="ellipse;whiteSpace=wrap;html=1;align=center;fillColor=#99CCFF;" parent="1" vertex="1">
          <mxGeometry x="124" y="2259" width="100" height="40" as="geometry" />
        </mxCell>
        <mxCell id="x2HAkG1FpfWmCbXRU_R8-241" value="Área de atuação" style="ellipse;whiteSpace=wrap;html=1;align=center;fillColor=#99CCFF;" parent="1" vertex="1">
          <mxGeometry x="31" y="2262.75" width="100" height="40" as="geometry" />
        </mxCell>
        <mxCell id="x2HAkG1FpfWmCbXRU_R8-242" value="Gênero" style="ellipse;whiteSpace=wrap;html=1;align=center;fillColor=#99CCFF;" parent="1" vertex="1">
          <mxGeometry x="81" y="2294.75" width="100" height="40" as="geometry" />
        </mxCell>
        <mxCell id="x2HAkG1FpfWmCbXRU_R8-251" value="Comprovante de matrícula" style="ellipse;whiteSpace=wrap;html=1;align=center;fillColor=#99CCFF;" parent="1" vertex="1">
          <mxGeometry x="234" y="2266.75" width="100" height="40" as="geometry" />
        </mxCell>
        <mxCell id="bFW7XB5v9sW4Uqi8YyjJ-226" value="" style="shape=link;html=1;rounded=0;" parent="1" source="x2HAkG1FpfWmCbXRU_R8-235" target="x2HAkG1FpfWmCbXRU_R8-234" edge="1">
          <mxGeometry relative="1" as="geometry">
            <mxPoint x="-140" y="2318" as="sourcePoint" />
            <mxPoint x="-140" y="2251" as="targetPoint" />
          </mxGeometry>
        </mxCell>
        <mxCell id="bFW7XB5v9sW4Uqi8YyjJ-227" value="N" style="resizable=0;html=1;whiteSpace=wrap;align=right;verticalAlign=bottom;" parent="bFW7XB5v9sW4Uqi8YyjJ-226" connectable="0" vertex="1">
          <mxGeometry x="1" relative="1" as="geometry">
            <mxPoint x="-12" y="16" as="offset" />
          </mxGeometry>
        </mxCell>
        <mxCell id="x2HAkG1FpfWmCbXRU_R8-255" style="edgeStyle=none;shape=connector;rounded=0;orthogonalLoop=1;jettySize=auto;html=1;labelBackgroundColor=default;strokeColor=default;fontFamily=Helvetica;fontSize=12;fontColor=default;endArrow=none;endFill=0;" parent="1" source="x2HAkG1FpfWmCbXRU_R8-253" target="x2HAkG1FpfWmCbXRU_R8-254" edge="1">
          <mxGeometry relative="1" as="geometry" />
        </mxCell>
        <mxCell id="x2HAkG1FpfWmCbXRU_R8-256" style="edgeStyle=none;shape=connector;rounded=0;orthogonalLoop=1;jettySize=auto;html=1;labelBackgroundColor=default;strokeColor=default;fontFamily=Helvetica;fontSize=12;fontColor=default;endArrow=none;endFill=0;exitX=0;exitY=0.5;exitDx=0;exitDy=0;exitPerimeter=0;" parent="1" source="2aCZPNWcDrdmzFEZ2BWf-39" target="x2HAkG1FpfWmCbXRU_R8-192" edge="1">
          <mxGeometry relative="1" as="geometry" />
        </mxCell>
        <mxCell id="x2HAkG1FpfWmCbXRU_R8-257" style="edgeStyle=none;shape=connector;rounded=0;orthogonalLoop=1;jettySize=auto;html=1;labelBackgroundColor=default;strokeColor=default;fontFamily=Helvetica;fontSize=12;fontColor=default;endArrow=none;endFill=0;exitX=0;exitY=0.5;exitDx=0;exitDy=0;exitPerimeter=0;" parent="1" source="2aCZPNWcDrdmzFEZ2BWf-37" target="x2HAkG1FpfWmCbXRU_R8-215" edge="1">
          <mxGeometry relative="1" as="geometry" />
        </mxCell>
        <mxCell id="x2HAkG1FpfWmCbXRU_R8-254" value="D" style="ellipse;whiteSpace=wrap;html=1;aspect=fixed;" parent="1" vertex="1">
          <mxGeometry x="-1181.5" y="2215" width="20" height="20" as="geometry" />
        </mxCell>
        <mxCell id="x2HAkG1FpfWmCbXRU_R8-253" value="Credenciado" style="whiteSpace=wrap;html=1;align=center;fillColor=#B3FF66;" parent="1" vertex="1">
          <mxGeometry x="-1236" y="2111" width="129" height="40" as="geometry" />
        </mxCell>
        <mxCell id="bFW7XB5v9sW4Uqi8YyjJ-228" value="" style="endArrow=none;html=1;rounded=0;" parent="1" source="bFW7XB5v9sW4Uqi8YyjJ-45" target="x2HAkG1FpfWmCbXRU_R8-234" edge="1">
          <mxGeometry relative="1" as="geometry">
            <mxPoint x="-232" y="2133" as="sourcePoint" />
            <mxPoint x="-161" y="2201" as="targetPoint" />
          </mxGeometry>
        </mxCell>
        <mxCell id="bFW7XB5v9sW4Uqi8YyjJ-229" value="1" style="resizable=0;html=1;whiteSpace=wrap;align=right;verticalAlign=bottom;" parent="bFW7XB5v9sW4Uqi8YyjJ-228" connectable="0" vertex="1">
          <mxGeometry x="1" relative="1" as="geometry">
            <mxPoint x="-9" y="-8" as="offset" />
          </mxGeometry>
        </mxCell>
        <mxCell id="bFW7XB5v9sW4Uqi8YyjJ-230" value="" style="shape=link;html=1;rounded=0;" parent="1" source="bFW7XB5v9sW4Uqi8YyjJ-45" target="bFW7XB5v9sW4Uqi8YyjJ-73" edge="1">
          <mxGeometry relative="1" as="geometry">
            <mxPoint x="188" y="2311" as="sourcePoint" />
            <mxPoint x="188" y="2242" as="targetPoint" />
          </mxGeometry>
        </mxCell>
        <mxCell id="bFW7XB5v9sW4Uqi8YyjJ-231" value="1" style="resizable=0;html=1;whiteSpace=wrap;align=right;verticalAlign=bottom;" parent="bFW7XB5v9sW4Uqi8YyjJ-230" connectable="0" vertex="1">
          <mxGeometry x="1" relative="1" as="geometry">
            <mxPoint x="-12" y="16" as="offset" />
          </mxGeometry>
        </mxCell>
        <mxCell id="bFW7XB5v9sW4Uqi8YyjJ-232" value="" style="shape=link;html=1;rounded=0;" parent="1" source="x2HAkG1FpfWmCbXRU_R8-232" target="bFW7XB5v9sW4Uqi8YyjJ-73" edge="1">
          <mxGeometry relative="1" as="geometry">
            <mxPoint x="188" y="1853" as="sourcePoint" />
            <mxPoint x="188" y="1781" as="targetPoint" />
          </mxGeometry>
        </mxCell>
        <mxCell id="bFW7XB5v9sW4Uqi8YyjJ-233" value="N" style="resizable=0;html=1;whiteSpace=wrap;align=right;verticalAlign=bottom;" parent="bFW7XB5v9sW4Uqi8YyjJ-232" connectable="0" vertex="1">
          <mxGeometry x="1" relative="1" as="geometry">
            <mxPoint x="-12" y="-4" as="offset" />
          </mxGeometry>
        </mxCell>
        <mxCell id="x2HAkG1FpfWmCbXRU_R8-266" style="edgeStyle=none;shape=connector;rounded=0;orthogonalLoop=1;jettySize=auto;html=1;labelBackgroundColor=default;strokeColor=default;fontFamily=Helvetica;fontSize=12;fontColor=default;endArrow=none;endFill=0;" parent="1" source="x2HAkG1FpfWmCbXRU_R8-265" target="x2HAkG1FpfWmCbXRU_R8-192" edge="1">
          <mxGeometry relative="1" as="geometry" />
        </mxCell>
        <mxCell id="x2HAkG1FpfWmCbXRU_R8-269" value="Nome" style="ellipse;whiteSpace=wrap;html=1;align=center;fillColor=#99CCFF;" parent="1" vertex="1">
          <mxGeometry x="-1802" y="1204" width="100" height="40" as="geometry" />
        </mxCell>
        <mxCell id="x2HAkG1FpfWmCbXRU_R8-206" value="&lt;i&gt;et al&lt;/i&gt;" style="ellipse;whiteSpace=wrap;html=1;align=center;fillColor=#99CCFF;" parent="1" vertex="1">
          <mxGeometry x="-1202" y="2584" width="100" height="40" as="geometry" />
        </mxCell>
        <mxCell id="x2HAkG1FpfWmCbXRU_R8-272" value="Senha" style="ellipse;whiteSpace=wrap;html=1;align=center;fillColor=#99CCFF;" parent="1" vertex="1">
          <mxGeometry x="-1748" y="1141" width="100" height="40" as="geometry" />
        </mxCell>
        <mxCell id="x2HAkG1FpfWmCbXRU_R8-270" value="&lt;b&gt;&lt;u&gt;CPF&lt;/u&gt;&lt;/b&gt;" style="ellipse;whiteSpace=wrap;html=1;align=center;fillColor=#99CCFF;" parent="1" vertex="1">
          <mxGeometry x="-1835" y="1160" width="100" height="40" as="geometry" />
        </mxCell>
        <mxCell id="x2HAkG1FpfWmCbXRU_R8-197" value="Idioma credenciado" style="ellipse;whiteSpace=wrap;html=1;align=center;fillColor=#99CCFF;" parent="1" vertex="1">
          <mxGeometry x="-1289" y="2594" width="100" height="40" as="geometry" />
        </mxCell>
        <mxCell id="x2HAkG1FpfWmCbXRU_R8-281" value="Cadastrado em" style="ellipse;whiteSpace=wrap;html=1;align=center;fillColor=#99CCFF;" parent="1" vertex="1">
          <mxGeometry x="-1748" y="1178" width="100" height="40" as="geometry" />
        </mxCell>
        <mxCell id="x2HAkG1FpfWmCbXRU_R8-265" value="Sigla da instituição de ensino" style="ellipse;whiteSpace=wrap;html=1;align=center;fillColor=#99CCFF;" parent="1" vertex="1">
          <mxGeometry x="-1130" y="2609" width="100" height="51.75" as="geometry" />
        </mxCell>
        <mxCell id="mlaGE-T-amm_81YhXGvV-2" value="Certificado POCA" style="ellipse;whiteSpace=wrap;html=1;align=center;fillColor=#99CCFF;" parent="1" vertex="1">
          <mxGeometry x="-1226" y="2624" width="100" height="40" as="geometry" />
        </mxCell>
        <mxCell id="x2HAkG1FpfWmCbXRU_R8-274" value="Endereço" style="ellipse;whiteSpace=wrap;html=1;align=center;fillColor=#99CCFF;" parent="1" vertex="1">
          <mxGeometry x="-1848" y="1338" width="100" height="40" as="geometry" />
        </mxCell>
        <mxCell id="x2HAkG1FpfWmCbXRU_R8-284" style="edgeStyle=none;shape=connector;rounded=0;orthogonalLoop=1;jettySize=auto;html=1;labelBackgroundColor=default;strokeColor=default;fontFamily=Helvetica;fontSize=12;fontColor=default;endArrow=none;endFill=0;" parent="1" source="x2HAkG1FpfWmCbXRU_R8-283" target="bFW7XB5v9sW4Uqi8YyjJ-38" edge="1">
          <mxGeometry relative="1" as="geometry" />
        </mxCell>
        <mxCell id="x2HAkG1FpfWmCbXRU_R8-283" value="Papel de Atuação" style="ellipse;whiteSpace=wrap;html=1;align=center;fillColor=#99CCFF;" parent="1" vertex="1">
          <mxGeometry x="-1673" y="1209" width="100" height="40" as="geometry" />
        </mxCell>
        <mxCell id="hV6xTBGtTwOXngfLoMFE-1" value="&lt;div&gt;Genérico&lt;/div&gt;" style="whiteSpace=wrap;html=1;align=center;fillColor=#B3FF66;" parent="1" vertex="1">
          <mxGeometry x="428" y="1879" width="100" height="40" as="geometry" />
        </mxCell>
        <mxCell id="hV6xTBGtTwOXngfLoMFE-4" value="&lt;div&gt;Ligação estrangeira&lt;/div&gt;" style="ellipse;shape=doubleEllipse;margin=3;whiteSpace=wrap;html=1;align=center;fillColor=#99CCFF;" parent="1" vertex="1">
          <mxGeometry x="345" y="1973" width="100" height="40" as="geometry" />
        </mxCell>
        <mxCell id="hV6xTBGtTwOXngfLoMFE-5" value="" style="edgeStyle=none;orthogonalLoop=1;jettySize=auto;html=1;rounded=0;endArrow=none;endFill=0;" parent="1" source="hV6xTBGtTwOXngfLoMFE-1" target="hV6xTBGtTwOXngfLoMFE-4" edge="1">
          <mxGeometry width="80" relative="1" as="geometry">
            <mxPoint x="310" y="1794" as="sourcePoint" />
            <mxPoint x="390" y="1794" as="targetPoint" />
            <Array as="points" />
          </mxGeometry>
        </mxCell>
        <mxCell id="hV6xTBGtTwOXngfLoMFE-6" value="Entidade" style="ellipse;whiteSpace=wrap;html=1;align=center;fillColor=#99CCFF;" parent="1" vertex="1">
          <mxGeometry x="278" y="2031.75" width="100" height="40" as="geometry" />
        </mxCell>
        <mxCell id="hV6xTBGtTwOXngfLoMFE-7" value="Propriedade" style="ellipse;whiteSpace=wrap;html=1;align=center;fillColor=#99CCFF;" parent="1" vertex="1">
          <mxGeometry x="334" y="2053" width="100" height="40" as="geometry" />
        </mxCell>
        <mxCell id="hV6xTBGtTwOXngfLoMFE-8" value="" style="edgeStyle=none;orthogonalLoop=1;jettySize=auto;html=1;rounded=0;endArrow=none;endFill=0;" parent="1" source="hV6xTBGtTwOXngfLoMFE-4" target="hV6xTBGtTwOXngfLoMFE-6" edge="1">
          <mxGeometry width="80" relative="1" as="geometry">
            <mxPoint x="658.3999999999996" y="1728.8" as="sourcePoint" />
            <mxPoint x="507.39469051503147" y="1715.9225970014786" as="targetPoint" />
            <Array as="points" />
          </mxGeometry>
        </mxCell>
        <mxCell id="hV6xTBGtTwOXngfLoMFE-9" value="" style="edgeStyle=none;orthogonalLoop=1;jettySize=auto;html=1;rounded=0;endArrow=none;endFill=0;" parent="1" source="hV6xTBGtTwOXngfLoMFE-4" target="hV6xTBGtTwOXngfLoMFE-7" edge="1">
          <mxGeometry width="80" relative="1" as="geometry">
            <mxPoint x="572" y="1729" as="sourcePoint" />
            <mxPoint x="568" y="1694" as="targetPoint" />
            <Array as="points" />
          </mxGeometry>
        </mxCell>
        <mxCell id="hV6xTBGtTwOXngfLoMFE-10" value="URL de acesso público" style="ellipse;whiteSpace=wrap;html=1;align=center;fillColor=#99CCFF;" parent="1" vertex="1">
          <mxGeometry x="553" y="1970" width="100" height="40" as="geometry" />
        </mxCell>
        <mxCell id="hV6xTBGtTwOXngfLoMFE-11" value="" style="edgeStyle=none;orthogonalLoop=1;jettySize=auto;html=1;rounded=0;endArrow=none;endFill=0;" parent="1" source="hV6xTBGtTwOXngfLoMFE-1" target="hV6xTBGtTwOXngfLoMFE-10" edge="1">
          <mxGeometry width="80" relative="1" as="geometry">
            <mxPoint x="420" y="1746" as="sourcePoint" />
            <mxPoint x="450" y="1716" as="targetPoint" />
            <Array as="points" />
          </mxGeometry>
        </mxCell>
        <mxCell id="hV6xTBGtTwOXngfLoMFE-14" style="rounded=0;orthogonalLoop=1;jettySize=auto;html=1;endArrow=none;endFill=0;" parent="1" source="hV6xTBGtTwOXngfLoMFE-13" target="hV6xTBGtTwOXngfLoMFE-1" edge="1">
          <mxGeometry relative="1" as="geometry" />
        </mxCell>
        <mxCell id="hV6xTBGtTwOXngfLoMFE-13" value="&lt;div&gt;É público&lt;/div&gt;" style="ellipse;whiteSpace=wrap;html=1;align=center;dashed=1;fillColor=#99CCFF;" parent="1" vertex="1">
          <mxGeometry x="474" y="1987" width="100" height="40" as="geometry" />
        </mxCell>
        <mxCell id="hV6xTBGtTwOXngfLoMFE-15" value="Controle de acesso" style="ellipse;shape=doubleEllipse;margin=3;whiteSpace=wrap;html=1;align=center;fillColor=#99CCFF;" parent="1" vertex="1">
          <mxGeometry x="451" y="2021.75" width="100" height="40" as="geometry" />
        </mxCell>
        <mxCell id="hV6xTBGtTwOXngfLoMFE-20" value="Categoria" style="ellipse;whiteSpace=wrap;html=1;align=center;fillColor=#99CCFF;" parent="1" vertex="1">
          <mxGeometry x="539" y="2013" width="100" height="40" as="geometry" />
        </mxCell>
        <mxCell id="USordbcRZa57--ELn6Re-1" value="" style="shape=link;html=1;rounded=0;" parent="1" source="x2HAkG1FpfWmCbXRU_R8-136" target="x2HAkG1FpfWmCbXRU_R8-161" edge="1">
          <mxGeometry relative="1" as="geometry">
            <mxPoint x="-1839" y="2121" as="sourcePoint" />
            <mxPoint x="-1947" y="2081" as="targetPoint" />
          </mxGeometry>
        </mxCell>
        <mxCell id="USordbcRZa57--ELn6Re-2" value="N" style="resizable=0;html=1;whiteSpace=wrap;align=right;verticalAlign=bottom;" parent="USordbcRZa57--ELn6Re-1" connectable="0" vertex="1">
          <mxGeometry x="1" relative="1" as="geometry">
            <mxPoint x="11" y="27" as="offset" />
          </mxGeometry>
        </mxCell>
        <mxCell id="hV6xTBGtTwOXngfLoMFE-26" value="&lt;u&gt;&lt;b&gt;Título&lt;/b&gt;&lt;/u&gt;" style="ellipse;whiteSpace=wrap;html=1;align=center;fillColor=#99CCFF;" parent="1" vertex="1">
          <mxGeometry x="-1082.5" y="1523" width="100" height="40" as="geometry" />
        </mxCell>
        <mxCell id="EwDSnlVrmYeqQzUvhRLh-9" value="D" style="ellipse;whiteSpace=wrap;html=1;aspect=fixed;" parent="1" vertex="1">
          <mxGeometry x="-2060.25" y="2069" width="20" height="20" as="geometry" />
        </mxCell>
        <mxCell id="EwDSnlVrmYeqQzUvhRLh-10" style="edgeStyle=none;shape=connector;rounded=0;orthogonalLoop=1;jettySize=auto;html=1;labelBackgroundColor=default;strokeColor=default;fontFamily=Helvetica;fontSize=12;fontColor=default;endArrow=none;endFill=0;" parent="1" source="x2HAkG1FpfWmCbXRU_R8-136" target="EwDSnlVrmYeqQzUvhRLh-9" edge="1">
          <mxGeometry relative="1" as="geometry">
            <mxPoint x="-1372" y="1788" as="sourcePoint" />
            <mxPoint x="-2251" y="1901" as="targetPoint" />
          </mxGeometry>
        </mxCell>
        <mxCell id="EwDSnlVrmYeqQzUvhRLh-16" value="endereço" style="ellipse;shape=doubleEllipse;margin=3;whiteSpace=wrap;html=1;align=center;fillColor=#99CCFF;" parent="1" vertex="1">
          <mxGeometry x="-2833" y="2193" width="100" height="49" as="geometry" />
        </mxCell>
        <mxCell id="EwDSnlVrmYeqQzUvhRLh-17" value="Adere" style="shape=rhombus;perimeter=rhombusPerimeter;whiteSpace=wrap;html=1;align=center;strokeColor=default;fontFamily=Helvetica;fontSize=12;fontColor=default;fillColor=#FFFF99;" parent="1" vertex="1">
          <mxGeometry x="-2895" y="1977" width="120" height="60" as="geometry" />
        </mxCell>
        <mxCell id="EwDSnlVrmYeqQzUvhRLh-18" value="Publica" style="shape=rhombus;perimeter=rhombusPerimeter;whiteSpace=wrap;html=1;align=center;strokeColor=default;fontFamily=Helvetica;fontSize=12;fontColor=default;fillColor=#FFFF99;" parent="1" vertex="1">
          <mxGeometry x="-1456" y="1262" width="120" height="60" as="geometry" />
        </mxCell>
        <mxCell id="EwDSnlVrmYeqQzUvhRLh-19" value="Publica" style="shape=rhombus;perimeter=rhombusPerimeter;whiteSpace=wrap;html=1;align=center;strokeColor=default;fontFamily=Helvetica;fontSize=12;fontColor=default;fillColor=#FFFF99;" parent="1" vertex="1">
          <mxGeometry x="-1222" y="1050" width="120" height="60" as="geometry" />
        </mxCell>
        <mxCell id="-rI8hnywURZdHphwKEdb-3" style="edgeStyle=none;shape=connector;rounded=0;orthogonalLoop=1;jettySize=auto;html=1;exitX=1;exitY=0.5;exitDx=0;exitDy=0;labelBackgroundColor=default;strokeColor=default;fontFamily=Helvetica;fontSize=12;fontColor=default;endArrow=none;endFill=0;" parent="1" source="-rI8hnywURZdHphwKEdb-1" target="bFW7XB5v9sW4Uqi8YyjJ-38" edge="1">
          <mxGeometry relative="1" as="geometry" />
        </mxCell>
        <mxCell id="-rI8hnywURZdHphwKEdb-1" value="Telefone" style="ellipse;shape=doubleEllipse;margin=3;whiteSpace=wrap;html=1;align=center;fillColor=#99CCFF;" parent="1" vertex="1">
          <mxGeometry x="-2039.25" y="1190" width="100" height="40" as="geometry" />
        </mxCell>
        <mxCell id="-rI8hnywURZdHphwKEdb-6" style="edgeStyle=none;shape=connector;rounded=0;orthogonalLoop=1;jettySize=auto;html=1;labelBackgroundColor=default;strokeColor=default;fontFamily=Helvetica;fontSize=12;fontColor=default;endArrow=none;endFill=0;" parent="1" source="-rI8hnywURZdHphwKEdb-4" target="-rI8hnywURZdHphwKEdb-1" edge="1">
          <mxGeometry relative="1" as="geometry" />
        </mxCell>
        <mxCell id="-rI8hnywURZdHphwKEdb-4" value="Número" style="ellipse;whiteSpace=wrap;html=1;align=center;fillColor=#99CCFF;" parent="1" vertex="1">
          <mxGeometry x="-2090" y="1138" width="100" height="40" as="geometry" />
        </mxCell>
        <mxCell id="-rI8hnywURZdHphwKEdb-7" style="edgeStyle=none;shape=connector;rounded=0;orthogonalLoop=1;jettySize=auto;html=1;labelBackgroundColor=default;strokeColor=default;fontFamily=Helvetica;fontSize=12;fontColor=default;endArrow=none;endFill=0;" parent="1" source="-rI8hnywURZdHphwKEdb-5" target="-rI8hnywURZdHphwKEdb-1" edge="1">
          <mxGeometry relative="1" as="geometry" />
        </mxCell>
        <mxCell id="-rI8hnywURZdHphwKEdb-5" value="Código de País" style="ellipse;whiteSpace=wrap;html=1;align=center;fillColor=#99CCFF;" parent="1" vertex="1">
          <mxGeometry x="-1994.75" y="1120" width="100" height="40" as="geometry" />
        </mxCell>
        <mxCell id="-rI8hnywURZdHphwKEdb-9" style="edgeStyle=none;shape=connector;rounded=0;orthogonalLoop=1;jettySize=auto;html=1;labelBackgroundColor=default;strokeColor=default;fontFamily=Helvetica;fontSize=12;fontColor=default;endArrow=none;endFill=0;" parent="1" source="-rI8hnywURZdHphwKEdb-8" target="-rI8hnywURZdHphwKEdb-1" edge="1">
          <mxGeometry relative="1" as="geometry" />
        </mxCell>
        <mxCell id="-rI8hnywURZdHphwKEdb-8" value="Código de Área" style="ellipse;whiteSpace=wrap;html=1;align=center;fillColor=#99CCFF;" parent="1" vertex="1">
          <mxGeometry x="-2046.25" y="1078" width="100" height="40" as="geometry" />
        </mxCell>
        <mxCell id="-rI8hnywURZdHphwKEdb-11" style="edgeStyle=none;shape=connector;rounded=0;orthogonalLoop=1;jettySize=auto;html=1;labelBackgroundColor=default;strokeColor=default;fontFamily=Helvetica;fontSize=12;fontColor=default;endArrow=none;endFill=0;" parent="1" source="-rI8hnywURZdHphwKEdb-10" target="x2HAkG1FpfWmCbXRU_R8-274" edge="1">
          <mxGeometry relative="1" as="geometry" />
        </mxCell>
        <mxCell id="-rI8hnywURZdHphwKEdb-10" value="Código Postal" style="ellipse;whiteSpace=wrap;html=1;align=center;fillColor=#99CCFF;" parent="1" vertex="1">
          <mxGeometry x="-2084.75" y="1387" width="100" height="40" as="geometry" />
        </mxCell>
        <mxCell id="-rI8hnywURZdHphwKEdb-13" style="edgeStyle=none;shape=connector;rounded=0;orthogonalLoop=1;jettySize=auto;html=1;labelBackgroundColor=default;strokeColor=default;fontFamily=Helvetica;fontSize=12;fontColor=default;endArrow=none;endFill=0;" parent="1" source="-rI8hnywURZdHphwKEdb-12" target="x2HAkG1FpfWmCbXRU_R8-274" edge="1">
          <mxGeometry relative="1" as="geometry" />
        </mxCell>
        <mxCell id="-rI8hnywURZdHphwKEdb-18" style="edgeStyle=none;shape=connector;rounded=0;orthogonalLoop=1;jettySize=auto;html=1;labelBackgroundColor=default;strokeColor=default;fontFamily=Helvetica;fontSize=12;fontColor=default;endArrow=none;endFill=0;" parent="1" source="-rI8hnywURZdHphwKEdb-15" target="x2HAkG1FpfWmCbXRU_R8-274" edge="1">
          <mxGeometry relative="1" as="geometry">
            <mxPoint x="-1820" y="1366" as="targetPoint" />
          </mxGeometry>
        </mxCell>
        <mxCell id="-rI8hnywURZdHphwKEdb-15" value="Estado" style="ellipse;whiteSpace=wrap;html=1;align=center;fillColor=#99CCFF;" parent="1" vertex="1">
          <mxGeometry x="-2071.75" y="1421" width="100" height="40" as="geometry" />
        </mxCell>
        <mxCell id="-rI8hnywURZdHphwKEdb-22" style="edgeStyle=none;shape=connector;rounded=0;orthogonalLoop=1;jettySize=auto;html=1;labelBackgroundColor=default;strokeColor=default;fontFamily=Helvetica;fontSize=12;fontColor=default;endArrow=none;endFill=0;" parent="1" source="-rI8hnywURZdHphwKEdb-16" target="x2HAkG1FpfWmCbXRU_R8-274" edge="1">
          <mxGeometry relative="1" as="geometry" />
        </mxCell>
        <mxCell id="-rI8hnywURZdHphwKEdb-16" value="Cidade" style="ellipse;whiteSpace=wrap;html=1;align=center;fillColor=#99CCFF;" parent="1" vertex="1">
          <mxGeometry x="-1994.75" y="1432" width="100" height="40" as="geometry" />
        </mxCell>
        <mxCell id="-rI8hnywURZdHphwKEdb-12" value="Logradouro" style="ellipse;whiteSpace=wrap;html=1;align=center;fillColor=#99CCFF;" parent="1" vertex="1">
          <mxGeometry x="-2016.25" y="1401" width="100" height="40" as="geometry" />
        </mxCell>
        <mxCell id="-rI8hnywURZdHphwKEdb-21" style="edgeStyle=none;shape=connector;rounded=0;orthogonalLoop=1;jettySize=auto;html=1;labelBackgroundColor=default;strokeColor=default;fontFamily=Helvetica;fontSize=12;fontColor=default;endArrow=none;endFill=0;" parent="1" source="-rI8hnywURZdHphwKEdb-14" target="x2HAkG1FpfWmCbXRU_R8-274" edge="1">
          <mxGeometry relative="1" as="geometry" />
        </mxCell>
        <mxCell id="-rI8hnywURZdHphwKEdb-14" value="País" style="ellipse;whiteSpace=wrap;html=1;align=center;fillColor=#99CCFF;" parent="1" vertex="1">
          <mxGeometry x="-1939.25" y="1414" width="100" height="40" as="geometry" />
        </mxCell>
        <mxCell id="x2HAkG1FpfWmCbXRU_R8-159" value="Tipo de Instituição onde atua" style="ellipse;whiteSpace=wrap;html=1;align=center;fillColor=#99CCFF;" parent="1" vertex="1">
          <mxGeometry x="-1750.5" y="2242.75" width="100" height="40" as="geometry" />
        </mxCell>
        <mxCell id="-rI8hnywURZdHphwKEdb-45" style="edgeStyle=none;shape=connector;rounded=0;orthogonalLoop=1;jettySize=auto;html=1;labelBackgroundColor=default;strokeColor=default;fontFamily=Helvetica;fontSize=12;fontColor=default;endArrow=none;endFill=0;" parent="1" source="-rI8hnywURZdHphwKEdb-44" target="x2HAkG1FpfWmCbXRU_R8-235" edge="1">
          <mxGeometry relative="1" as="geometry" />
        </mxCell>
        <mxCell id="-rI8hnywURZdHphwKEdb-95" style="edgeStyle=none;shape=connector;rounded=0;orthogonalLoop=1;jettySize=auto;html=1;labelBackgroundColor=default;strokeColor=default;fontFamily=Helvetica;fontSize=12;fontColor=default;endArrow=none;endFill=0;" parent="1" source="-rI8hnywURZdHphwKEdb-44" target="-rI8hnywURZdHphwKEdb-93" edge="1">
          <mxGeometry relative="1" as="geometry" />
        </mxCell>
        <mxCell id="-rI8hnywURZdHphwKEdb-96" style="edgeStyle=none;shape=connector;rounded=0;orthogonalLoop=1;jettySize=auto;html=1;labelBackgroundColor=default;strokeColor=default;fontFamily=Helvetica;fontSize=12;fontColor=default;endArrow=none;endFill=0;" parent="1" source="-rI8hnywURZdHphwKEdb-44" target="-rI8hnywURZdHphwKEdb-94" edge="1">
          <mxGeometry relative="1" as="geometry" />
        </mxCell>
        <mxCell id="-rI8hnywURZdHphwKEdb-97" style="edgeStyle=none;shape=connector;rounded=0;orthogonalLoop=1;jettySize=auto;html=1;labelBackgroundColor=default;strokeColor=default;fontFamily=Helvetica;fontSize=12;fontColor=default;endArrow=none;endFill=0;" parent="1" source="-rI8hnywURZdHphwKEdb-44" target="-rI8hnywURZdHphwKEdb-92" edge="1">
          <mxGeometry relative="1" as="geometry" />
        </mxCell>
        <mxCell id="-rI8hnywURZdHphwKEdb-44" value="Telefone" style="ellipse;shape=doubleEllipse;margin=3;whiteSpace=wrap;html=1;align=center;fillColor=#99CCFF;" parent="1" vertex="1">
          <mxGeometry x="245" y="2191.75" width="100" height="40" as="geometry" />
        </mxCell>
        <mxCell id="x2HAkG1FpfWmCbXRU_R8-168" value="Lattes" style="ellipse;whiteSpace=wrap;html=1;align=center;fillColor=#99CCFF;" parent="1" vertex="1">
          <mxGeometry x="-2012" y="2248" width="100" height="40" as="geometry" />
        </mxCell>
        <mxCell id="x2HAkG1FpfWmCbXRU_R8-178" value="Título" style="ellipse;whiteSpace=wrap;html=1;align=center;fillColor=#99CCFF;" parent="1" vertex="1">
          <mxGeometry x="-2084" y="2420.25" width="100" height="40" as="geometry" />
        </mxCell>
        <mxCell id="x2HAkG1FpfWmCbXRU_R8-192" value="Professor ISF" style="whiteSpace=wrap;html=1;align=center;fillColor=#B3FF66;" parent="1" vertex="1">
          <mxGeometry x="-1236" y="2521.75" width="129" height="40" as="geometry" />
        </mxCell>
        <mxCell id="-rI8hnywURZdHphwKEdb-87" style="edgeStyle=none;shape=connector;rounded=0;orthogonalLoop=1;jettySize=auto;html=1;labelBackgroundColor=default;strokeColor=default;fontFamily=Helvetica;fontSize=12;fontColor=default;endArrow=none;endFill=0;" parent="1" source="-rI8hnywURZdHphwKEdb-83" target="EwDSnlVrmYeqQzUvhRLh-16" edge="1">
          <mxGeometry relative="1" as="geometry" />
        </mxCell>
        <mxCell id="-rI8hnywURZdHphwKEdb-83" value="Estado" style="ellipse;whiteSpace=wrap;html=1;align=center;fillColor=#99CCFF;" parent="1" vertex="1">
          <mxGeometry x="-2738" y="2175" width="100" height="40" as="geometry" />
        </mxCell>
        <mxCell id="-rI8hnywURZdHphwKEdb-88" style="edgeStyle=none;shape=connector;rounded=0;orthogonalLoop=1;jettySize=auto;html=1;labelBackgroundColor=default;strokeColor=default;fontFamily=Helvetica;fontSize=12;fontColor=default;endArrow=none;endFill=0;" parent="1" source="-rI8hnywURZdHphwKEdb-84" target="EwDSnlVrmYeqQzUvhRLh-16" edge="1">
          <mxGeometry relative="1" as="geometry" />
        </mxCell>
        <mxCell id="-rI8hnywURZdHphwKEdb-84" value="Cidade" style="ellipse;whiteSpace=wrap;html=1;align=center;fillColor=#99CCFF;" parent="1" vertex="1">
          <mxGeometry x="-2709" y="2209.25" width="100" height="40" as="geometry" />
        </mxCell>
        <mxCell id="-rI8hnywURZdHphwKEdb-91" style="edgeStyle=none;shape=connector;rounded=0;orthogonalLoop=1;jettySize=auto;html=1;labelBackgroundColor=default;strokeColor=default;fontFamily=Helvetica;fontSize=12;fontColor=default;endArrow=none;endFill=0;" parent="1" source="-rI8hnywURZdHphwKEdb-85" target="EwDSnlVrmYeqQzUvhRLh-16" edge="1">
          <mxGeometry relative="1" as="geometry" />
        </mxCell>
        <mxCell id="-rI8hnywURZdHphwKEdb-85" value="Logradouro" style="ellipse;whiteSpace=wrap;html=1;align=center;fillColor=#99CCFF;" parent="1" vertex="1">
          <mxGeometry x="-2721" y="2291.75" width="100" height="40" as="geometry" />
        </mxCell>
        <mxCell id="-rI8hnywURZdHphwKEdb-89" style="edgeStyle=none;shape=connector;rounded=0;orthogonalLoop=1;jettySize=auto;html=1;labelBackgroundColor=default;strokeColor=default;fontFamily=Helvetica;fontSize=12;fontColor=default;endArrow=none;endFill=0;" parent="1" source="-rI8hnywURZdHphwKEdb-86" target="EwDSnlVrmYeqQzUvhRLh-16" edge="1">
          <mxGeometry relative="1" as="geometry" />
        </mxCell>
        <mxCell id="-rI8hnywURZdHphwKEdb-86" value="País" style="ellipse;whiteSpace=wrap;html=1;align=center;fillColor=#99CCFF;" parent="1" vertex="1">
          <mxGeometry x="-2715" y="2252.75" width="100" height="40" as="geometry" />
        </mxCell>
        <mxCell id="-rI8hnywURZdHphwKEdb-92" value="Número" style="ellipse;whiteSpace=wrap;html=1;align=center;fillColor=#99CCFF;" parent="1" vertex="1">
          <mxGeometry x="357" y="2237" width="100" height="40" as="geometry" />
        </mxCell>
        <mxCell id="-rI8hnywURZdHphwKEdb-94" value="Código de Área" style="ellipse;whiteSpace=wrap;html=1;align=center;fillColor=#99CCFF;" parent="1" vertex="1">
          <mxGeometry x="385" y="2208" width="100" height="40" as="geometry" />
        </mxCell>
        <mxCell id="dzElMeFzcnh--6nZ8-IU-6" value="E-mail" style="ellipse;shape=doubleEllipse;margin=3;whiteSpace=wrap;html=1;align=center;fillColor=#99CCFF;" parent="1" vertex="1">
          <mxGeometry x="-391" y="2294.75" width="100" height="40" as="geometry" />
        </mxCell>
        <mxCell id="THlvHC6nMn96xe4pw3AP-8" value="E-mail" style="ellipse;shape=doubleEllipse;margin=3;whiteSpace=wrap;html=1;align=center;fillColor=#99CCFF;" parent="1" vertex="1">
          <mxGeometry x="-3090" y="1836" width="100" height="40" as="geometry" />
        </mxCell>
        <mxCell id="THlvHC6nMn96xe4pw3AP-9" value="E-mail" style="ellipse;shape=doubleEllipse;margin=3;whiteSpace=wrap;html=1;align=center;fillColor=#99CCFF;" parent="1" vertex="1">
          <mxGeometry x="-1884" y="1190" width="100" height="40" as="geometry" />
        </mxCell>
        <mxCell id="MONinfcuOaBZ7uyU44ot-2" value="" style="edgeStyle=none;shape=connector;rounded=0;orthogonalLoop=1;jettySize=auto;html=1;labelBackgroundColor=default;strokeColor=default;fontFamily=Helvetica;fontSize=12;fontColor=default;endArrow=none;endFill=0;" parent="1" source="MONinfcuOaBZ7uyU44ot-3" target="bFW7XB5v9sW4Uqi8YyjJ-125" edge="1">
          <mxGeometry relative="1" as="geometry">
            <mxPoint x="-2636" y="2384.25" as="sourcePoint" />
            <mxPoint x="-2701" y="2352.25" as="targetPoint" />
          </mxGeometry>
        </mxCell>
        <mxCell id="MONinfcuOaBZ7uyU44ot-3" value="periodo" style="ellipse;shape=doubleEllipse;margin=3;whiteSpace=wrap;html=1;align=center;fillColor=#99CCFF;" parent="1" vertex="1">
          <mxGeometry x="-2763" y="2482.5" width="100" height="49" as="geometry" />
        </mxCell>
        <mxCell id="MONinfcuOaBZ7uyU44ot-7" value="Pessoa" style="whiteSpace=wrap;html=1;align=center;fillColor=#B3FF66;" parent="1" vertex="1">
          <mxGeometry x="-1499" y="1925.75" width="129" height="40" as="geometry" />
        </mxCell>
        <mxCell id="MONinfcuOaBZ7uyU44ot-8" value="&lt;u&gt;&lt;b&gt;CPF&lt;/b&gt;&lt;/u&gt;" style="ellipse;whiteSpace=wrap;html=1;align=center;fillColor=#99CCFF;" parent="1" vertex="1">
          <mxGeometry x="-1432" y="1860" width="100" height="40" as="geometry" />
        </mxCell>
        <mxCell id="2aCZPNWcDrdmzFEZ2BWf-1" value="inicio" style="ellipse;whiteSpace=wrap;html=1;align=center;fillColor=#99CCFF;" parent="1" vertex="1">
          <mxGeometry x="-2643" y="2465.5" width="100" height="40" as="geometry" />
        </mxCell>
        <mxCell id="MONinfcuOaBZ7uyU44ot-9" style="edgeStyle=none;shape=connector;rounded=0;orthogonalLoop=1;jettySize=auto;html=1;labelBackgroundColor=default;strokeColor=default;fontFamily=Helvetica;fontSize=12;fontColor=default;endArrow=none;endFill=0;" parent="1" source="MONinfcuOaBZ7uyU44ot-8" target="MONinfcuOaBZ7uyU44ot-7" edge="1">
          <mxGeometry relative="1" as="geometry">
            <mxPoint x="-1405" y="2097.75" as="sourcePoint" />
            <mxPoint x="-1511" y="2003.75" as="targetPoint" />
          </mxGeometry>
        </mxCell>
        <mxCell id="2aCZPNWcDrdmzFEZ2BWf-2" value="" style="edgeStyle=none;shape=connector;rounded=0;orthogonalLoop=1;jettySize=auto;html=1;labelBackgroundColor=default;strokeColor=default;fontFamily=Helvetica;fontSize=12;fontColor=default;endArrow=none;endFill=0;" parent="1" source="2aCZPNWcDrdmzFEZ2BWf-1" target="MONinfcuOaBZ7uyU44ot-3" edge="1">
          <mxGeometry relative="1" as="geometry">
            <mxPoint x="-2764" y="2554.5" as="sourcePoint" />
            <mxPoint x="-2872" y="2519.5" as="targetPoint" />
          </mxGeometry>
        </mxCell>
        <mxCell id="2aCZPNWcDrdmzFEZ2BWf-3" value="fim" style="ellipse;whiteSpace=wrap;html=1;align=center;fillColor=#99CCFF;" parent="1" vertex="1">
          <mxGeometry x="-2646" y="2522" width="100" height="40" as="geometry" />
        </mxCell>
        <mxCell id="2aCZPNWcDrdmzFEZ2BWf-4" value="" style="edgeStyle=none;shape=connector;rounded=0;orthogonalLoop=1;jettySize=auto;html=1;labelBackgroundColor=default;strokeColor=default;fontFamily=Helvetica;fontSize=12;fontColor=default;endArrow=none;endFill=0;" parent="1" source="2aCZPNWcDrdmzFEZ2BWf-3" target="MONinfcuOaBZ7uyU44ot-3" edge="1">
          <mxGeometry relative="1" as="geometry">
            <mxPoint x="-2633" y="2493.5" as="sourcePoint" />
            <mxPoint x="-2668" y="2492.5" as="targetPoint" />
          </mxGeometry>
        </mxCell>
        <mxCell id="MONinfcuOaBZ7uyU44ot-11" value="nome completo" style="ellipse;whiteSpace=wrap;html=1;align=center;fillColor=#99CCFF;" parent="1" vertex="1">
          <mxGeometry x="-1365" y="1876" width="100" height="40" as="geometry" />
        </mxCell>
        <mxCell id="MONinfcuOaBZ7uyU44ot-12" style="edgeStyle=none;shape=connector;rounded=0;orthogonalLoop=1;jettySize=auto;html=1;labelBackgroundColor=default;strokeColor=default;fontFamily=Helvetica;fontSize=12;fontColor=default;endArrow=none;endFill=0;" parent="1" source="MONinfcuOaBZ7uyU44ot-11" target="MONinfcuOaBZ7uyU44ot-7" edge="1">
          <mxGeometry relative="1" as="geometry">
            <mxPoint x="-1505" y="2063" as="sourcePoint" />
            <mxPoint x="-1514" y="1985" as="targetPoint" />
          </mxGeometry>
        </mxCell>
        <mxCell id="_hz-Q_SBPdc9EHus1pmJ-1" value="Email Institucional" style="ellipse;whiteSpace=wrap;html=1;align=center;fillColor=#99CCFF;" parent="1" vertex="1">
          <mxGeometry x="-3352" y="2522" width="100" height="40" as="geometry" />
        </mxCell>
        <mxCell id="MONinfcuOaBZ7uyU44ot-15" value="E-mail" style="ellipse;shape=doubleEllipse;margin=3;whiteSpace=wrap;html=1;align=center;fillColor=#99CCFF;" parent="1" vertex="1">
          <mxGeometry x="-1499" y="1848" width="100" height="40" as="geometry" />
        </mxCell>
        <mxCell id="_hz-Q_SBPdc9EHus1pmJ-3" style="edgeStyle=none;shape=connector;rounded=0;orthogonalLoop=1;jettySize=auto;html=1;exitX=0.5;exitY=0;exitDx=0;exitDy=0;labelBackgroundColor=default;strokeColor=default;fontFamily=Helvetica;fontSize=12;fontColor=default;endArrow=none;endFill=0;" parent="1" source="_hz-Q_SBPdc9EHus1pmJ-1" target="x2HAkG1FpfWmCbXRU_R8-84" edge="1">
          <mxGeometry relative="1" as="geometry" />
        </mxCell>
        <mxCell id="MONinfcuOaBZ7uyU44ot-16" style="edgeStyle=none;shape=connector;rounded=0;orthogonalLoop=1;jettySize=auto;html=1;labelBackgroundColor=default;strokeColor=default;fontFamily=Helvetica;fontSize=12;fontColor=default;endArrow=none;endFill=0;" parent="1" source="MONinfcuOaBZ7uyU44ot-15" target="MONinfcuOaBZ7uyU44ot-7" edge="1">
          <mxGeometry relative="1" as="geometry">
            <mxPoint x="-1380.5" y="2063" as="sourcePoint" />
            <mxPoint x="-1459.5" y="1981" as="targetPoint" />
          </mxGeometry>
        </mxCell>
        <mxCell id="MONinfcuOaBZ7uyU44ot-17" value="Telefone" style="ellipse;shape=doubleEllipse;margin=3;whiteSpace=wrap;html=1;align=center;fillColor=#99CCFF;" parent="1" vertex="1">
          <mxGeometry x="-1591" y="1857" width="100" height="40" as="geometry" />
        </mxCell>
        <mxCell id="MONinfcuOaBZ7uyU44ot-19" style="edgeStyle=none;shape=connector;rounded=0;orthogonalLoop=1;jettySize=auto;html=1;labelBackgroundColor=default;strokeColor=default;fontFamily=Helvetica;fontSize=12;fontColor=default;endArrow=none;endFill=0;" parent="1" source="MONinfcuOaBZ7uyU44ot-17" target="MONinfcuOaBZ7uyU44ot-7" edge="1">
          <mxGeometry relative="1" as="geometry">
            <mxPoint x="-1476" y="2115" as="sourcePoint" />
            <mxPoint x="-1438" y="1969" as="targetPoint" />
          </mxGeometry>
        </mxCell>
        <mxCell id="MONinfcuOaBZ7uyU44ot-22" value="" style="edgeStyle=none;shape=connector;rounded=0;orthogonalLoop=1;jettySize=auto;html=1;labelBackgroundColor=default;strokeColor=default;fontFamily=Helvetica;fontSize=12;fontColor=default;endArrow=none;endFill=0;" parent="1" source="MONinfcuOaBZ7uyU44ot-7" target="MONinfcuOaBZ7uyU44ot-21" edge="1">
          <mxGeometry relative="1" as="geometry">
            <mxPoint x="-1499" y="1944.5" as="sourcePoint" />
            <mxPoint x="-1698" y="2020.5" as="targetPoint" />
          </mxGeometry>
        </mxCell>
        <mxCell id="MONinfcuOaBZ7uyU44ot-26" style="edgeStyle=none;shape=connector;rounded=0;orthogonalLoop=1;jettySize=auto;html=1;entryX=1;entryY=0.5;entryDx=0;entryDy=0;labelBackgroundColor=default;strokeColor=default;fontFamily=Helvetica;fontSize=12;fontColor=default;endArrow=none;endFill=0;jumpStyle=arc;" parent="1" source="MONinfcuOaBZ7uyU44ot-21" target="x2HAkG1FpfWmCbXRU_R8-85" edge="1">
          <mxGeometry relative="1" as="geometry">
            <Array as="points">
              <mxPoint x="-1432" y="2646" />
            </Array>
          </mxGeometry>
        </mxCell>
        <mxCell id="MONinfcuOaBZ7uyU44ot-32" style="edgeStyle=none;shape=connector;rounded=0;orthogonalLoop=1;jettySize=auto;html=1;labelBackgroundColor=default;strokeColor=default;fontFamily=Helvetica;fontSize=12;fontColor=default;endArrow=none;endFill=0;" parent="1" source="MONinfcuOaBZ7uyU44ot-21" target="x2HAkG1FpfWmCbXRU_R8-136" edge="1">
          <mxGeometry relative="1" as="geometry">
            <mxPoint x="-1489" y="2069" as="sourcePoint" />
          </mxGeometry>
        </mxCell>
        <mxCell id="2aCZPNWcDrdmzFEZ2BWf-6" style="edgeStyle=none;shape=connector;rounded=0;jumpStyle=arc;orthogonalLoop=1;jettySize=auto;html=1;labelBackgroundColor=default;strokeColor=default;fontFamily=Helvetica;fontSize=12;fontColor=default;endArrow=none;endFill=0;" parent="1" source="MONinfcuOaBZ7uyU44ot-21" target="x2HAkG1FpfWmCbXRU_R8-192" edge="1">
          <mxGeometry relative="1" as="geometry" />
        </mxCell>
        <mxCell id="MONinfcuOaBZ7uyU44ot-21" value="D" style="ellipse;whiteSpace=wrap;html=1;aspect=fixed;" parent="1" vertex="1">
          <mxGeometry x="-1442" y="2121" width="20" height="20" as="geometry" />
        </mxCell>
        <mxCell id="MONinfcuOaBZ7uyU44ot-34" style="edgeStyle=none;shape=connector;rounded=0;orthogonalLoop=1;jettySize=auto;html=1;labelBackgroundColor=default;strokeColor=default;fontFamily=Helvetica;fontSize=12;fontColor=default;endArrow=none;endFill=0;" parent="1" source="MONinfcuOaBZ7uyU44ot-33" target="x2HAkG1FpfWmCbXRU_R8-85" edge="1">
          <mxGeometry relative="1" as="geometry" />
        </mxCell>
        <mxCell id="T-kXRJLJ9EJ4aOlGfXl7-1" value="Parceiros" style="rounded=0;whiteSpace=wrap;html=1;shadow=1;comic=0;labelBackgroundColor=none;strokeWidth=1;fontFamily=Verdana;fontSize=12;align=center;spacingLeft=0;spacing=6;fillStyle=solid;hachureGap=4;fontSource=https%3A%2F%2Ffonts.googleapis.com%2Fcss%3Ffamily%3DArchitects%2BDaughter;fillColor=#B3FF66;" parent="1" vertex="1">
          <mxGeometry x="-2477" y="1276" width="120" height="54" as="geometry" />
        </mxCell>
        <mxCell id="2aCZPNWcDrdmzFEZ2BWf-20" style="edgeStyle=none;shape=connector;rounded=0;jumpStyle=arc;orthogonalLoop=1;jettySize=auto;html=1;labelBackgroundColor=default;strokeColor=default;fontFamily=Helvetica;fontSize=12;fontColor=default;endArrow=none;endFill=0;" parent="1" source="T-kXRJLJ9EJ4aOlGfXl7-2" target="T-kXRJLJ9EJ4aOlGfXl7-1" edge="1">
          <mxGeometry relative="1" as="geometry" />
        </mxCell>
        <mxCell id="T-kXRJLJ9EJ4aOlGfXl7-2" value="CNPJ" style="ellipse;whiteSpace=wrap;html=1;align=center;fillColor=#99CCFF;" parent="1" vertex="1">
          <mxGeometry x="-2514" y="1185" width="100" height="40" as="geometry" />
        </mxCell>
        <mxCell id="T-kXRJLJ9EJ4aOlGfXl7-3" value="Endereço&lt;br&gt;" style="ellipse;whiteSpace=wrap;html=1;align=center;fillColor=#99CCFF;" parent="1" vertex="1">
          <mxGeometry x="-2617" y="1285" width="100" height="40" as="geometry" />
        </mxCell>
        <mxCell id="T-kXRJLJ9EJ4aOlGfXl7-4" value="Nome" style="ellipse;whiteSpace=wrap;html=1;align=center;fillColor=#99CCFF;" parent="1" vertex="1">
          <mxGeometry x="-2577" y="1373" width="100" height="40" as="geometry" />
        </mxCell>
        <mxCell id="MONinfcuOaBZ7uyU44ot-33" value="função_ies" style="ellipse;whiteSpace=wrap;html=1;align=center;fillColor=#99CCFF;" parent="1" vertex="1">
          <mxGeometry x="-3057" y="2713" width="100" height="40" as="geometry" />
        </mxCell>
        <mxCell id="2aCZPNWcDrdmzFEZ2BWf-21" style="edgeStyle=none;shape=connector;rounded=0;jumpStyle=arc;orthogonalLoop=1;jettySize=auto;html=1;labelBackgroundColor=default;strokeColor=default;fontFamily=Helvetica;fontSize=12;fontColor=default;endArrow=none;endFill=0;" parent="1" source="T-kXRJLJ9EJ4aOlGfXl7-7" target="T-kXRJLJ9EJ4aOlGfXl7-1" edge="1">
          <mxGeometry relative="1" as="geometry" />
        </mxCell>
        <mxCell id="T-kXRJLJ9EJ4aOlGfXl7-7" value="Telefone" style="ellipse;shape=doubleEllipse;margin=3;whiteSpace=wrap;html=1;align=center;fillColor=#99CCFF;" parent="1" vertex="1">
          <mxGeometry x="-2531" y="1462" width="100" height="40" as="geometry" />
        </mxCell>
        <mxCell id="_hz-Q_SBPdc9EHus1pmJ-4" value="Status" style="ellipse;whiteSpace=wrap;html=1;align=center;dashed=1;fillColor=#99CCFF;" parent="1" vertex="1">
          <mxGeometry x="-2761" y="2554" width="100" height="40" as="geometry" />
        </mxCell>
        <mxCell id="2aCZPNWcDrdmzFEZ2BWf-23" style="edgeStyle=none;shape=connector;rounded=0;jumpStyle=arc;orthogonalLoop=1;jettySize=auto;html=1;labelBackgroundColor=default;strokeColor=default;fontFamily=Helvetica;fontSize=12;fontColor=default;endArrow=none;endFill=0;" parent="1" source="T-kXRJLJ9EJ4aOlGfXl7-8" target="T-kXRJLJ9EJ4aOlGfXl7-7" edge="1">
          <mxGeometry relative="1" as="geometry" />
        </mxCell>
        <mxCell id="T-kXRJLJ9EJ4aOlGfXl7-8" value="Número" style="ellipse;whiteSpace=wrap;html=1;align=center;fillColor=#99CCFF;" parent="1" vertex="1">
          <mxGeometry x="-2619" y="1495" width="100" height="40" as="geometry" />
        </mxCell>
        <mxCell id="2aCZPNWcDrdmzFEZ2BWf-24" style="edgeStyle=none;shape=connector;rounded=0;jumpStyle=arc;orthogonalLoop=1;jettySize=auto;html=1;labelBackgroundColor=default;strokeColor=default;fontFamily=Helvetica;fontSize=12;fontColor=default;endArrow=none;endFill=0;" parent="1" source="T-kXRJLJ9EJ4aOlGfXl7-9" target="T-kXRJLJ9EJ4aOlGfXl7-7" edge="1">
          <mxGeometry relative="1" as="geometry" />
        </mxCell>
        <mxCell id="T-kXRJLJ9EJ4aOlGfXl7-9" value="Código de Área" style="ellipse;whiteSpace=wrap;html=1;align=center;fillColor=#99CCFF;" parent="1" vertex="1">
          <mxGeometry x="-2582" y="1561" width="100" height="40" as="geometry" />
        </mxCell>
        <mxCell id="2aCZPNWcDrdmzFEZ2BWf-16" style="edgeStyle=none;shape=connector;rounded=0;jumpStyle=arc;orthogonalLoop=1;jettySize=auto;html=1;labelBackgroundColor=default;strokeColor=default;fontFamily=Helvetica;fontSize=12;fontColor=default;endArrow=none;endFill=0;" parent="1" source="T-kXRJLJ9EJ4aOlGfXl7-11" target="T-kXRJLJ9EJ4aOlGfXl7-3" edge="1">
          <mxGeometry relative="1" as="geometry" />
        </mxCell>
        <mxCell id="T-kXRJLJ9EJ4aOlGfXl7-11" value="Estado" style="ellipse;whiteSpace=wrap;html=1;align=center;fillColor=#99CCFF;" parent="1" vertex="1">
          <mxGeometry x="-2764" y="1141" width="100" height="40" as="geometry" />
        </mxCell>
        <mxCell id="2aCZPNWcDrdmzFEZ2BWf-12" style="edgeStyle=none;shape=connector;rounded=0;jumpStyle=arc;orthogonalLoop=1;jettySize=auto;html=1;labelBackgroundColor=default;strokeColor=default;fontFamily=Helvetica;fontSize=12;fontColor=default;endArrow=none;endFill=0;" parent="1" source="2aCZPNWcDrdmzFEZ2BWf-7" target="x2HAkG1FpfWmCbXRU_R8-161" edge="1">
          <mxGeometry relative="1" as="geometry" />
        </mxCell>
        <mxCell id="2aCZPNWcDrdmzFEZ2BWf-17" style="edgeStyle=none;shape=connector;rounded=0;jumpStyle=arc;orthogonalLoop=1;jettySize=auto;html=1;labelBackgroundColor=default;strokeColor=default;fontFamily=Helvetica;fontSize=12;fontColor=default;endArrow=none;endFill=0;" parent="1" source="T-kXRJLJ9EJ4aOlGfXl7-12" target="T-kXRJLJ9EJ4aOlGfXl7-3" edge="1">
          <mxGeometry relative="1" as="geometry" />
        </mxCell>
        <mxCell id="T-kXRJLJ9EJ4aOlGfXl7-12" value="País" style="ellipse;whiteSpace=wrap;html=1;align=center;fillColor=#99CCFF;" parent="1" vertex="1">
          <mxGeometry x="-2684" y="1104" width="100" height="40" as="geometry" />
        </mxCell>
        <mxCell id="2aCZPNWcDrdmzFEZ2BWf-22" style="edgeStyle=none;shape=connector;rounded=0;jumpStyle=arc;orthogonalLoop=1;jettySize=auto;html=1;labelBackgroundColor=default;strokeColor=default;fontFamily=Helvetica;fontSize=12;fontColor=default;endArrow=none;endFill=0;" parent="1" source="T-kXRJLJ9EJ4aOlGfXl7-10" target="T-kXRJLJ9EJ4aOlGfXl7-7" edge="1">
          <mxGeometry relative="1" as="geometry" />
        </mxCell>
        <mxCell id="T-kXRJLJ9EJ4aOlGfXl7-10" value="Código de País" style="ellipse;whiteSpace=wrap;html=1;align=center;fillColor=#99CCFF;" parent="1" vertex="1">
          <mxGeometry x="-2471" y="1526" width="100" height="40" as="geometry" />
        </mxCell>
        <mxCell id="2aCZPNWcDrdmzFEZ2BWf-7" value="periodo" style="ellipse;shape=doubleEllipse;margin=3;whiteSpace=wrap;html=1;align=center;fillColor=#99CCFF;" parent="1" vertex="1">
          <mxGeometry x="-2615" y="2017.25" width="100" height="49" as="geometry" />
        </mxCell>
        <mxCell id="2aCZPNWcDrdmzFEZ2BWf-15" style="edgeStyle=none;shape=connector;rounded=0;jumpStyle=arc;orthogonalLoop=1;jettySize=auto;html=1;labelBackgroundColor=default;strokeColor=default;fontFamily=Helvetica;fontSize=12;fontColor=default;endArrow=none;endFill=0;" parent="1" source="T-kXRJLJ9EJ4aOlGfXl7-13" target="T-kXRJLJ9EJ4aOlGfXl7-3" edge="1">
          <mxGeometry relative="1" as="geometry" />
        </mxCell>
        <mxCell id="T-kXRJLJ9EJ4aOlGfXl7-13" value="Cidade" style="ellipse;whiteSpace=wrap;html=1;align=center;fillColor=#99CCFF;" parent="1" vertex="1">
          <mxGeometry x="-2801" y="1200" width="100" height="40" as="geometry" />
        </mxCell>
        <mxCell id="2aCZPNWcDrdmzFEZ2BWf-14" style="edgeStyle=none;shape=connector;rounded=0;jumpStyle=arc;orthogonalLoop=1;jettySize=auto;html=1;labelBackgroundColor=default;strokeColor=default;fontFamily=Helvetica;fontSize=12;fontColor=default;endArrow=none;endFill=0;" parent="1" source="T-kXRJLJ9EJ4aOlGfXl7-14" target="T-kXRJLJ9EJ4aOlGfXl7-3" edge="1">
          <mxGeometry relative="1" as="geometry" />
        </mxCell>
        <mxCell id="T-kXRJLJ9EJ4aOlGfXl7-14" value="Bairro" style="ellipse;whiteSpace=wrap;html=1;align=center;fillColor=#99CCFF;" parent="1" vertex="1">
          <mxGeometry x="-2796" y="1269" width="100" height="40" as="geometry" />
        </mxCell>
        <mxCell id="2aCZPNWcDrdmzFEZ2BWf-9" value="" style="edgeStyle=none;shape=connector;rounded=0;orthogonalLoop=1;jettySize=auto;html=1;labelBackgroundColor=default;strokeColor=default;fontFamily=Helvetica;fontSize=12;fontColor=default;endArrow=none;endFill=0;" parent="1" source="2aCZPNWcDrdmzFEZ2BWf-8" target="2aCZPNWcDrdmzFEZ2BWf-7" edge="1">
          <mxGeometry relative="1" as="geometry">
            <mxPoint x="-2669" y="2042.5" as="sourcePoint" />
            <mxPoint x="-2777" y="2007.5" as="targetPoint" />
          </mxGeometry>
        </mxCell>
        <mxCell id="2aCZPNWcDrdmzFEZ2BWf-10" value="fim" style="ellipse;whiteSpace=wrap;html=1;align=center;fillColor=#99CCFF;" parent="1" vertex="1">
          <mxGeometry x="-2575" y="1977.25" width="100" height="40" as="geometry" />
        </mxCell>
        <mxCell id="2aCZPNWcDrdmzFEZ2BWf-11" value="" style="edgeStyle=none;shape=connector;rounded=0;orthogonalLoop=1;jettySize=auto;html=1;labelBackgroundColor=default;strokeColor=default;fontFamily=Helvetica;fontSize=12;fontColor=default;endArrow=none;endFill=0;" parent="1" source="2aCZPNWcDrdmzFEZ2BWf-10" target="2aCZPNWcDrdmzFEZ2BWf-7" edge="1">
          <mxGeometry relative="1" as="geometry">
            <mxPoint x="-2538" y="1981.5" as="sourcePoint" />
            <mxPoint x="-2573" y="1980.5" as="targetPoint" />
          </mxGeometry>
        </mxCell>
        <mxCell id="2aCZPNWcDrdmzFEZ2BWf-8" value="inicio" style="ellipse;whiteSpace=wrap;html=1;align=center;fillColor=#99CCFF;" parent="1" vertex="1">
          <mxGeometry x="-2677" y="1973" width="100" height="40" as="geometry" />
        </mxCell>
        <mxCell id="_hz-Q_SBPdc9EHus1pmJ-5" style="edgeStyle=none;shape=connector;rounded=0;orthogonalLoop=1;jettySize=auto;html=1;exitX=0;exitY=0;exitDx=0;exitDy=0;entryX=1;entryY=1;entryDx=0;entryDy=0;labelBackgroundColor=default;strokeColor=default;fontFamily=Helvetica;fontSize=12;fontColor=default;endArrow=none;endFill=0;" parent="1" source="_hz-Q_SBPdc9EHus1pmJ-4" target="bFW7XB5v9sW4Uqi8YyjJ-125" edge="1">
          <mxGeometry relative="1" as="geometry" />
        </mxCell>
        <mxCell id="2aCZPNWcDrdmzFEZ2BWf-13" style="edgeStyle=none;shape=connector;rounded=0;jumpStyle=arc;orthogonalLoop=1;jettySize=auto;html=1;labelBackgroundColor=default;strokeColor=default;fontFamily=Helvetica;fontSize=12;fontColor=default;endArrow=none;endFill=0;" parent="1" source="T-kXRJLJ9EJ4aOlGfXl7-15" target="T-kXRJLJ9EJ4aOlGfXl7-3" edge="1">
          <mxGeometry relative="1" as="geometry" />
        </mxCell>
        <mxCell id="T-kXRJLJ9EJ4aOlGfXl7-15" value="Rua" style="ellipse;whiteSpace=wrap;html=1;align=center;fillColor=#99CCFF;" parent="1" vertex="1">
          <mxGeometry x="-2787.25" y="1338" width="100" height="40" as="geometry" />
        </mxCell>
        <mxCell id="2aCZPNWcDrdmzFEZ2BWf-18" style="edgeStyle=none;shape=connector;rounded=0;jumpStyle=arc;orthogonalLoop=1;jettySize=auto;html=1;labelBackgroundColor=default;strokeColor=default;fontFamily=Helvetica;fontSize=12;fontColor=default;endArrow=none;endFill=0;" parent="1" source="T-kXRJLJ9EJ4aOlGfXl7-16" target="T-kXRJLJ9EJ4aOlGfXl7-3" edge="1">
          <mxGeometry relative="1" as="geometry" />
        </mxCell>
        <mxCell id="T-kXRJLJ9EJ4aOlGfXl7-16" value="Número" style="ellipse;whiteSpace=wrap;html=1;align=center;fillColor=#99CCFF;" parent="1" vertex="1">
          <mxGeometry x="-2758.25" y="1394" width="100" height="40" as="geometry" />
        </mxCell>
        <mxCell id="2aCZPNWcDrdmzFEZ2BWf-19" style="edgeStyle=none;shape=connector;rounded=0;jumpStyle=arc;orthogonalLoop=1;jettySize=auto;html=1;labelBackgroundColor=default;strokeColor=default;fontFamily=Helvetica;fontSize=12;fontColor=default;endArrow=none;endFill=0;" parent="1" source="T-kXRJLJ9EJ4aOlGfXl7-17" target="T-kXRJLJ9EJ4aOlGfXl7-3" edge="1">
          <mxGeometry relative="1" as="geometry" />
        </mxCell>
        <mxCell id="T-kXRJLJ9EJ4aOlGfXl7-17" value="Complemento" style="ellipse;whiteSpace=wrap;html=1;align=center;fillColor=#99CCFF;" parent="1" vertex="1">
          <mxGeometry x="-2709" y="1434" width="100" height="40" as="geometry" />
        </mxCell>
        <mxCell id="MONinfcuOaBZ7uyU44ot-40" style="edgeStyle=none;shape=connector;rounded=0;orthogonalLoop=1;jettySize=auto;html=1;labelBackgroundColor=default;strokeColor=default;fontFamily=Helvetica;fontSize=12;fontColor=default;endArrow=none;endFill=0;" parent="1" source="MONinfcuOaBZ7uyU44ot-39" target="x2HAkG1FpfWmCbXRU_R8-85" edge="1">
          <mxGeometry relative="1" as="geometry" />
        </mxCell>
        <mxCell id="MONinfcuOaBZ7uyU44ot-39" value="email_institucional" style="ellipse;shape=doubleEllipse;margin=3;whiteSpace=wrap;html=1;align=center;fillColor=#99CCFF;" parent="1" vertex="1">
          <mxGeometry x="-3158" y="2650" width="147" height="53" as="geometry" />
        </mxCell>
        <mxCell id="T-kXRJLJ9EJ4aOlGfXl7-18" style="edgeStyle=none;shape=connector;rounded=0;orthogonalLoop=1;jettySize=auto;html=1;labelBackgroundColor=default;strokeColor=default;fontFamily=Helvetica;fontSize=12;fontColor=default;endArrow=none;endFill=0;" parent="1" source="T-kXRJLJ9EJ4aOlGfXl7-1" target="T-kXRJLJ9EJ4aOlGfXl7-4" edge="1">
          <mxGeometry relative="1" as="geometry">
            <mxPoint x="-2394.004752377741" y="1439.6226238111296" as="sourcePoint" />
            <mxPoint x="-2497.414660940673" y="1388.3821356237308" as="targetPoint" />
          </mxGeometry>
        </mxCell>
        <mxCell id="T-kXRJLJ9EJ4aOlGfXl7-19" style="edgeStyle=none;shape=connector;rounded=0;jumpStyle=arc;orthogonalLoop=1;jettySize=auto;html=1;labelBackgroundColor=default;strokeColor=default;fontFamily=Helvetica;fontSize=12;fontColor=default;endArrow=none;endFill=0;entryX=0;entryY=0.5;entryDx=0;entryDy=0;" parent="1" source="T-kXRJLJ9EJ4aOlGfXl7-3" target="T-kXRJLJ9EJ4aOlGfXl7-1" edge="1">
          <mxGeometry relative="1" as="geometry">
            <mxPoint x="-2529" y="1204" as="sourcePoint" />
            <mxPoint x="-2476" y="1345" as="targetPoint" />
          </mxGeometry>
        </mxCell>
        <mxCell id="MONinfcuOaBZ7uyU44ot-42" style="edgeStyle=none;shape=connector;rounded=0;orthogonalLoop=1;jettySize=auto;html=1;labelBackgroundColor=default;strokeColor=default;fontFamily=Helvetica;fontSize=12;fontColor=default;endArrow=none;endFill=0;" parent="1" source="MONinfcuOaBZ7uyU44ot-41" target="x2HAkG1FpfWmCbXRU_R8-85" edge="1">
          <mxGeometry relative="1" as="geometry" />
        </mxCell>
        <mxCell id="T-kXRJLJ9EJ4aOlGfXl7-20" value="Aprovado por" style="shape=rhombus;perimeter=rhombusPerimeter;whiteSpace=wrap;html=1;align=center;fillColor=#FFFF99;" parent="1" vertex="1">
          <mxGeometry x="-2196" y="1265" width="120" height="60" as="geometry" />
        </mxCell>
        <mxCell id="MONinfcuOaBZ7uyU44ot-41" value="telefone_institucional" style="ellipse;shape=doubleEllipse;margin=3;whiteSpace=wrap;html=1;align=center;fillColor=#99CCFF;" parent="1" vertex="1">
          <mxGeometry x="-3158" y="2571" width="147" height="53" as="geometry" />
        </mxCell>
        <mxCell id="T-kXRJLJ9EJ4aOlGfXl7-25" value="" style="endArrow=none;html=1;rounded=0;" parent="1" source="bFW7XB5v9sW4Uqi8YyjJ-38" target="T-kXRJLJ9EJ4aOlGfXl7-20" edge="1">
          <mxGeometry relative="1" as="geometry">
            <mxPoint x="-2025" y="1333" as="sourcePoint" />
            <mxPoint x="-1914" y="1294.17" as="targetPoint" />
          </mxGeometry>
        </mxCell>
        <mxCell id="T-kXRJLJ9EJ4aOlGfXl7-26" value="N" style="resizable=0;html=1;whiteSpace=wrap;align=right;verticalAlign=bottom;" parent="T-kXRJLJ9EJ4aOlGfXl7-25" connectable="0" vertex="1">
          <mxGeometry x="1" relative="1" as="geometry">
            <mxPoint x="1" y="-9" as="offset" />
          </mxGeometry>
        </mxCell>
        <mxCell id="T-kXRJLJ9EJ4aOlGfXl7-33" value="" style="shape=link;html=1;rounded=0;" parent="1" source="T-kXRJLJ9EJ4aOlGfXl7-1" target="T-kXRJLJ9EJ4aOlGfXl7-20" edge="1">
          <mxGeometry relative="1" as="geometry">
            <mxPoint x="-1974" y="1677" as="sourcePoint" />
            <mxPoint x="-1882" y="1578" as="targetPoint" />
          </mxGeometry>
        </mxCell>
        <mxCell id="T-kXRJLJ9EJ4aOlGfXl7-34" value="N" style="resizable=0;html=1;whiteSpace=wrap;align=right;verticalAlign=bottom;" parent="T-kXRJLJ9EJ4aOlGfXl7-33" connectable="0" vertex="1">
          <mxGeometry x="1" relative="1" as="geometry">
            <mxPoint x="-12" y="20" as="offset" />
          </mxGeometry>
        </mxCell>
        <mxCell id="MONinfcuOaBZ7uyU44ot-44" style="edgeStyle=none;shape=connector;rounded=0;orthogonalLoop=1;jettySize=auto;html=1;exitX=0.5;exitY=1;exitDx=0;exitDy=0;entryX=0.5;entryY=0;entryDx=0;entryDy=0;labelBackgroundColor=default;strokeColor=default;fontFamily=Helvetica;fontSize=12;fontColor=default;endArrow=none;endFill=0;" parent="1" source="MONinfcuOaBZ7uyU44ot-43" target="x2HAkG1FpfWmCbXRU_R8-77" edge="1">
          <mxGeometry relative="1" as="geometry" />
        </mxCell>
        <mxCell id="MONinfcuOaBZ7uyU44ot-43" value="link_oficio_coord_pedago_geral" style="ellipse;whiteSpace=wrap;html=1;align=center;fillColor=#99CCFF;" parent="1" vertex="1">
          <mxGeometry x="-2866" y="1739" width="223" height="40" as="geometry" />
        </mxCell>
        <mxCell id="MONinfcuOaBZ7uyU44ot-46" style="edgeStyle=none;shape=connector;rounded=0;orthogonalLoop=1;jettySize=auto;html=1;exitX=0.5;exitY=1;exitDx=0;exitDy=0;labelBackgroundColor=default;strokeColor=default;fontFamily=Helvetica;fontSize=12;fontColor=default;endArrow=none;endFill=0;" parent="1" source="MONinfcuOaBZ7uyU44ot-45" target="x2HAkG1FpfWmCbXRU_R8-77" edge="1">
          <mxGeometry relative="1" as="geometry" />
        </mxCell>
        <mxCell id="MONinfcuOaBZ7uyU44ot-45" value="link_termo_compromisso" style="ellipse;whiteSpace=wrap;html=1;align=center;fillColor=#99CCFF;" parent="1" vertex="1">
          <mxGeometry x="-2997" y="1706" width="175" height="40" as="geometry" />
        </mxCell>
        <mxCell id="MONinfcuOaBZ7uyU44ot-48" style="edgeStyle=none;shape=connector;rounded=0;orthogonalLoop=1;jettySize=auto;html=1;exitX=0.5;exitY=1;exitDx=0;exitDy=0;labelBackgroundColor=default;strokeColor=default;fontFamily=Helvetica;fontSize=12;fontColor=default;endArrow=none;endFill=0;" parent="1" source="MONinfcuOaBZ7uyU44ot-47" target="x2HAkG1FpfWmCbXRU_R8-77" edge="1">
          <mxGeometry relative="1" as="geometry" />
        </mxCell>
        <mxCell id="MONinfcuOaBZ7uyU44ot-47" value="link_poltica_linguística" style="ellipse;whiteSpace=wrap;html=1;align=center;fillColor=#99CCFF;" parent="1" vertex="1">
          <mxGeometry x="-2677" y="1677" width="175" height="40" as="geometry" />
        </mxCell>
        <mxCell id="T-kXRJLJ9EJ4aOlGfXl7-37" value="" style="edgeStyle=none;shape=connector;rounded=0;orthogonalLoop=1;jettySize=auto;html=1;labelBackgroundColor=default;strokeColor=default;fontFamily=Helvetica;fontSize=12;fontColor=default;endArrow=none;endFill=0;jumpStyle=arc;entryX=0;entryY=0.5;entryDx=0;entryDy=0;entryPerimeter=0;" parent="1" source="bFW7XB5v9sW4Uqi8YyjJ-38" target="2aCZPNWcDrdmzFEZ2BWf-34" edge="1">
          <mxGeometry relative="1" as="geometry">
            <mxPoint x="-1662" y="1319" as="sourcePoint" />
            <mxPoint x="-2058" y="2065" as="targetPoint" />
            <Array as="points">
              <mxPoint x="-1961" y="1559" />
            </Array>
          </mxGeometry>
        </mxCell>
        <mxCell id="MONinfcuOaBZ7uyU44ot-50" style="edgeStyle=none;shape=connector;rounded=0;orthogonalLoop=1;jettySize=auto;html=1;exitX=0;exitY=0.5;exitDx=0;exitDy=0;entryX=1;entryY=0.75;entryDx=0;entryDy=0;labelBackgroundColor=default;strokeColor=default;fontFamily=Helvetica;fontSize=12;fontColor=default;endArrow=none;endFill=0;" parent="1" source="MONinfcuOaBZ7uyU44ot-49" target="x2HAkG1FpfWmCbXRU_R8-83" edge="1">
          <mxGeometry relative="1" as="geometry" />
        </mxCell>
        <mxCell id="MONinfcuOaBZ7uyU44ot-52" value="Aprova" style="shape=rhombus;perimeter=rhombusPerimeter;whiteSpace=wrap;html=1;align=center;strokeColor=default;fontFamily=Helvetica;fontSize=12;fontColor=default;fillColor=#FFFF99;" parent="1" vertex="1">
          <mxGeometry x="-2157" y="1729" width="120" height="60" as="geometry" />
        </mxCell>
        <mxCell id="T-kXRJLJ9EJ4aOlGfXl7-38" value="" style="edgeStyle=none;shape=connector;rounded=0;orthogonalLoop=1;jettySize=auto;html=1;labelBackgroundColor=default;strokeColor=default;fontFamily=Helvetica;fontSize=12;fontColor=default;endArrow=none;endFill=0;jumpStyle=arc;exitX=0;exitY=0.5;exitDx=0;exitDy=0;exitPerimeter=0;" parent="1" source="EwDSnlVrmYeqQzUvhRLh-12" target="EwDSnlVrmYeqQzUvhRLh-9" edge="1">
          <mxGeometry relative="1" as="geometry">
            <mxPoint x="-3220" y="2450" as="sourcePoint" />
            <mxPoint x="-2116" y="2094" as="targetPoint" />
            <Array as="points" />
          </mxGeometry>
        </mxCell>
        <mxCell id="MONinfcuOaBZ7uyU44ot-49" value="tem_NucLi" style="ellipse;whiteSpace=wrap;html=1;align=center;fillColor=#99CCFF;" parent="1" vertex="1">
          <mxGeometry x="-2857" y="2141" width="100" height="40" as="geometry" />
        </mxCell>
        <mxCell id="2aCZPNWcDrdmzFEZ2BWf-27" value="" style="shape=link;html=1;rounded=0;" parent="1" source="x2HAkG1FpfWmCbXRU_R8-85" target="MONinfcuOaBZ7uyU44ot-52" edge="1">
          <mxGeometry relative="1" as="geometry">
            <mxPoint x="-2862" y="2639" as="sourcePoint" />
            <mxPoint x="-2190" y="2548" as="targetPoint" />
            <Array as="points">
              <mxPoint x="-2373" y="2581" />
            </Array>
          </mxGeometry>
        </mxCell>
        <mxCell id="2aCZPNWcDrdmzFEZ2BWf-28" value="N" style="resizable=0;html=1;whiteSpace=wrap;align=right;verticalAlign=bottom;" parent="2aCZPNWcDrdmzFEZ2BWf-27" connectable="0" vertex="1">
          <mxGeometry x="1" relative="1" as="geometry">
            <mxPoint x="-10" y="20" as="offset" />
          </mxGeometry>
        </mxCell>
        <mxCell id="2aCZPNWcDrdmzFEZ2BWf-29" value="" style="endArrow=none;html=1;rounded=0;" parent="1" source="bFW7XB5v9sW4Uqi8YyjJ-38" target="MONinfcuOaBZ7uyU44ot-52" edge="1">
          <mxGeometry relative="1" as="geometry">
            <mxPoint x="-1579" y="1329" as="sourcePoint" />
            <mxPoint x="-1866" y="1590" as="targetPoint" />
          </mxGeometry>
        </mxCell>
        <mxCell id="2aCZPNWcDrdmzFEZ2BWf-30" value="1" style="resizable=0;html=1;whiteSpace=wrap;align=right;verticalAlign=bottom;" parent="2aCZPNWcDrdmzFEZ2BWf-29" connectable="0" vertex="1">
          <mxGeometry x="1" relative="1" as="geometry" />
        </mxCell>
        <mxCell id="2aCZPNWcDrdmzFEZ2BWf-33" value="" style="edgeStyle=none;shape=connector;rounded=0;orthogonalLoop=1;jettySize=auto;html=1;labelBackgroundColor=default;strokeColor=default;fontFamily=Helvetica;fontSize=12;fontColor=default;endArrow=none;endFill=0;jumpStyle=arc;entryX=0;entryY=0.5;entryDx=0;entryDy=0;entryPerimeter=0;" parent="1" source="x2HAkG1FpfWmCbXRU_R8-84" target="EwDSnlVrmYeqQzUvhRLh-12" edge="1">
          <mxGeometry relative="1" as="geometry">
            <mxPoint x="-3220" y="2450" as="sourcePoint" />
            <mxPoint x="-2059" y="2083" as="targetPoint" />
            <Array as="points">
              <mxPoint x="-2640" y="2371" />
            </Array>
          </mxGeometry>
        </mxCell>
        <mxCell id="EwDSnlVrmYeqQzUvhRLh-12" value="" style="verticalLabelPosition=bottom;verticalAlign=top;html=1;shape=mxgraph.basic.arc;startAngle=0.5;endAngle=0;hachureGap=4;fontFamily=Architects Daughter;fontSource=https%3A%2F%2Ffonts.googleapis.com%2Fcss%3Ffamily%3DArchitects%2BDaughter;fontSize=20;rotation=-30;points=[[0,0.5,0,0,0]];" parent="1" vertex="1">
          <mxGeometry x="-2348" y="2221.75" width="18" height="18" as="geometry" />
        </mxCell>
        <mxCell id="2aCZPNWcDrdmzFEZ2BWf-36" style="edgeStyle=none;shape=connector;rounded=0;jumpStyle=arc;orthogonalLoop=1;jettySize=auto;html=1;exitX=0;exitY=0.5;exitDx=0;exitDy=0;exitPerimeter=0;labelBackgroundColor=default;strokeColor=default;fontFamily=Architects Daughter;fontSource=https%3A%2F%2Ffonts.googleapis.com%2Fcss%3Ffamily%3DArchitects%2BDaughter;fontSize=20;fontColor=default;endArrow=none;endFill=0;" parent="1" source="2aCZPNWcDrdmzFEZ2BWf-34" target="EwDSnlVrmYeqQzUvhRLh-9" edge="1">
          <mxGeometry relative="1" as="geometry" />
        </mxCell>
        <mxCell id="2aCZPNWcDrdmzFEZ2BWf-34" value="" style="verticalLabelPosition=bottom;verticalAlign=top;html=1;shape=mxgraph.basic.arc;startAngle=0.5;endAngle=0;hachureGap=4;fontFamily=Architects Daughter;fontSource=https%3A%2F%2Ffonts.googleapis.com%2Fcss%3Ffamily%3DArchitects%2BDaughter;fontSize=20;rotation=100;points=[[0,0.5,0,0,0]];" parent="1" vertex="1">
          <mxGeometry x="-2049" y="2013.75" width="18" height="18" as="geometry" />
        </mxCell>
        <mxCell id="2aCZPNWcDrdmzFEZ2BWf-38" style="edgeStyle=none;shape=connector;rounded=0;jumpStyle=arc;orthogonalLoop=1;jettySize=auto;html=1;exitX=0;exitY=0.5;exitDx=0;exitDy=0;exitPerimeter=0;labelBackgroundColor=default;strokeColor=default;fontFamily=Architects Daughter;fontSource=https%3A%2F%2Ffonts.googleapis.com%2Fcss%3Ffamily%3DArchitects%2BDaughter;fontSize=20;fontColor=default;endArrow=none;endFill=0;" parent="1" source="2aCZPNWcDrdmzFEZ2BWf-37" target="x2HAkG1FpfWmCbXRU_R8-254" edge="1">
          <mxGeometry relative="1" as="geometry" />
        </mxCell>
        <mxCell id="2aCZPNWcDrdmzFEZ2BWf-37" value="" style="verticalLabelPosition=bottom;verticalAlign=top;html=1;shape=mxgraph.basic.arc;startAngle=0.5;endAngle=0;hachureGap=4;fontFamily=Architects Daughter;fontSource=https%3A%2F%2Ffonts.googleapis.com%2Fcss%3Ffamily%3DArchitects%2BDaughter;fontSize=20;rotation=-180;points=[[0,0.5,0,0,0]];" parent="1" vertex="1">
          <mxGeometry x="-1074" y="2205" width="18" height="18" as="geometry" />
        </mxCell>
        <mxCell id="2aCZPNWcDrdmzFEZ2BWf-40" style="edgeStyle=none;shape=connector;rounded=0;jumpStyle=arc;orthogonalLoop=1;jettySize=auto;html=1;exitX=0;exitY=0.5;exitDx=0;exitDy=0;exitPerimeter=0;labelBackgroundColor=default;strokeColor=default;fontFamily=Architects Daughter;fontSource=https%3A%2F%2Ffonts.googleapis.com%2Fcss%3Ffamily%3DArchitects%2BDaughter;fontSize=20;fontColor=default;endArrow=none;endFill=0;" parent="1" source="2aCZPNWcDrdmzFEZ2BWf-39" target="x2HAkG1FpfWmCbXRU_R8-254" edge="1">
          <mxGeometry relative="1" as="geometry" />
        </mxCell>
        <mxCell id="2aCZPNWcDrdmzFEZ2BWf-39" value="" style="verticalLabelPosition=bottom;verticalAlign=top;html=1;shape=mxgraph.basic.arc;startAngle=0.5;endAngle=0;hachureGap=4;fontFamily=Architects Daughter;fontSource=https%3A%2F%2Ffonts.googleapis.com%2Fcss%3Ffamily%3DArchitects%2BDaughter;fontSize=20;rotation=-95;points=[[0,0.5,0,0,0]];" parent="1" vertex="1">
          <mxGeometry x="-1180.5" y="2282" width="18" height="18" as="geometry" />
        </mxCell>
      </root>
    </mxGraphModel>
  </diagram>
</mxfile>
